<?xml version="1.0" encoding="utf-8"?>
<!DOCTYPE svg PUBLIC "-//W3C//DTD SVG 1.1//EN" "http://www.w3.org/Graphics/SVG/1.1/DTD/svg11.dtd">
<svg xmlns="http://www.w3.org/2000/svg" xmlns:xlink="http://www.w3.org/1999/xlink" version="1.1" baseProfile="full" width="495.348" height="419.765" viewBox="0 0 495.35 419.76" enable-background="new 0 0 495.35 419.76" xml:space="preserve">
	<g>
		<path fill="#FFFFFF" fill-opacity="1" stroke-linejoin="round" stroke="#000000" stroke-opacity="1" d="M 385.049,285.484C 385.049,285.484 348.799,319.428 347.549,323.279C 346.299,327.131 283.964,391.047 283.964,391.047C 283.964,391.047 265.067,426.986 246.169,417.766C 227.272,408.547 170.579,398.869 170.579,398.869L 76.0905,376.049C 76.0905,376.049 19.3976,394.549 0.5,373.299C 0.5,373.299 38.2223,355.799 43.2223,354.799C 48.2223,353.799 50.2223,337.303 61.4723,342.176C 72.7223,347.049 164.222,347.549 164.222,347.549L 234.639,342.176L 340.657,239.715"/>
		<path fill="#FFFFFF" fill-opacity="1" stroke-linejoin="round" stroke="#000000" stroke-opacity="1" d="M 321.76,222.631L 201.716,285.484L 94.9882,213.047C 94.9882,213.047 97.9658,190.996 84.4658,190.995C 70.9658,190.995 47.4658,190.995 47.4658,190.995C 47.4658,190.995 22.8295,185.715 19.3976,184.714C 15.9658,183.714 4.82947,187.037 19.3976,198.464C 33.9658,209.893 54.2158,218.464 54.2158,218.464C 54.2158,218.464 145.896,333.971 151.681,342.176C 157.466,350.381 168.66,370.267 197.966,361.074C 227.272,351.881 375.216,279.131 375.216,279.131"/>
		<path fill="#FFFFFF" fill-opacity="1" stroke-linejoin="round" stroke="#000000" stroke-opacity="1" d="M 458.207,66.9902C 458.207,66.9902 464.957,42.8892 462.957,39.8145C 460.957,36.7397 456.207,24.0933 458.207,20.916C 460.207,17.7397 464.707,20.916 464.707,20.916L 468.207,20.916C 468.207,20.916 464.957,2.01904 467.457,2.01807C 469.957,2.01807 472.941,11.9897 472.941,11.9897C 472.941,11.9888 473.957,5.29736 476.332,2.01807C 478.707,-1.26025 481.707,0.740234 482.082,4.86475C 482.457,8.98975 482.707,12.3647 482.707,12.3647C 482.707,12.3647 485.207,3.49023 487.582,4.61475C 489.957,5.73828 488.957,24.2397 488.957,24.2397C 488.957,24.2388 491.207,17.9902 493.457,18.3647C 495.707,18.7397 494.707,28.6152 494.082,32.7397C 493.457,36.8633 492.332,55.6152 488.957,61.3647C 485.582,67.1147 483.332,68.6211 485.332,73.1147"/>
		<path fill="#FFFFFF" fill-opacity="1" stroke-linejoin="round" stroke="#000000" stroke-opacity="1" d="M 293.757,128.111C 293.757,128.111 265.067,110.215 265.067,103.361C 265.067,96.5063 253.448,96.6118 259.257,87.1099C 265.067,77.6089 261.507,56.6108 257.007,63.8599C 252.507,71.1089 243.445,85.2983 242.257,82.4224C 241.07,79.5474 221.945,49.4849 221.945,49.4849C 221.945,49.4849 213.695,42.4023 213.278,49.3184C 212.862,56.2349 213.445,63.1523 213.778,63.2349C 214.112,63.3184 206.362,55.8184 206.362,55.8184C 206.362,55.8184 201.028,50.9023 198.695,53.9019C 196.362,56.9019 199.195,61.7358 201.028,64.5684C 202.862,67.4019 206.528,72.9849 206.528,72.9849L 195.778,66.9019C 195.778,66.9019 190.508,61.6523 189.476,63.5684C 188.445,65.4849 189.528,76.0664 193.278,77.6089C 197.028,79.1519 192.695,80.8184 192.695,80.8184L 188.362,77.6089C 188.362,77.6089 184.778,75.1499 183.695,77.6089C 182.612,80.0684 186.737,98.4023 201.237,112.402C 215.737,126.4 214.737,132.569 224.903,136.568C 235.07,140.568 246.169,140.902 246.169,140.902"/>
		<path fill="#FFFFFF" fill-opacity="1" stroke-linejoin="round" stroke="#000000" stroke-opacity="1" d="M 402.403,172.098C 402.403,172.097 400.653,156.5 403.403,153.201C 406.153,149.902 418.903,142.652 421.153,142.402C 423.403,142.15 429.153,134.4 426.153,124.902C 423.153,115.403 412.653,70.4023 407.903,68.4019C 403.153,66.4019 377.903,63.6523 375.403,103.902C 372.903,144.152 373.752,138.104 378.453,145.652C 383.153,153.2 381.403,165.402 381.403,165.402L 402.403,172.098 Z "/>
		<path fill="#5B5B5B" fill-opacity="1" stroke-linejoin="round" stroke="#000000" stroke-opacity="1" d="M 380.778,170.652L 381.278,165.464C 381.278,165.464 382.757,149.752 375.757,142.027C 368.757,134.301 377.632,74.6523 385.632,74.9019C 385.632,74.7754 393.757,66.1523 399.757,67.6519C 405.757,69.1519 394.382,60.1523 380.257,63.5269C 366.132,66.9019 333.091,80.4531 334.424,134.302C 334.591,134.302 338.591,149.985 338.591,149.985L 380.778,170.652 Z "/>
		<path fill="#FFFFFF" fill-opacity="1" stroke-linejoin="round" stroke="#000000" stroke-opacity="1" d="M 446.799,83.0063L 456.049,54.3813C 456.049,54.3809 490.128,59.3813 491.839,74.3809C 493.549,89.3809 402.024,308.423 371.341,312.922C 371.341,312.422 359.555,315.798 359.555,310.089C 359.555,304.381 378.453,304.381 359.555,266.585C 340.657,228.791 283.964,209.894 283.964,228.791C 283.964,247.686 288.591,244.006 288.507,244.006C 288.424,244.006 282.384,246.659 283.174,228.791C 283.174,228.79 283.507,221.215 290.757,220.922C 298.007,220.629 340.657,197.339 340.657,197.339C 340.657,197.338 371.377,169.064 378.453,172.097C 385.528,175.131 412.362,179.631 412.362,179.631L 446.799,83.0063 Z "/>
		<path fill="#FFFFFF" fill-opacity="1" stroke-linejoin="round" stroke="#000000" stroke-opacity="1" d="M 338.237,215.09C 338.237,215.09 312.488,188.757 302.862,183.256C 293.237,177.756 249.403,153.2 249.403,153.2L 232.07,142.922C 232.07,142.922 265.737,124.923 268.07,103.922C 268.237,104.088 272.903,106.089 272.903,106.089C 272.903,106.089 329.903,138.646 336.403,145.922C 342.903,153.2 386.362,166.34 385.612,176.964"/>
		<path fill="#FFFFFF" fill-opacity="1" stroke-linejoin="round" stroke="#000000" stroke-opacity="1" d="M 410.299,183.548L 422.966,166.631C 422.966,166.631 395.528,166.34 388.278,166.672C 381.028,167.006 337.695,146.922 337.695,146.922L 335.028,156.506L 378.453,182.464L 410.299,183.548 Z "/>
		<path fill="none" stroke-linejoin="round" stroke="#000000" stroke-opacity="1" d="M 418.924,167.34C 418.924,167.34 431.757,156.674 439.257,147.173C 446.757,137.672 462.6,108.423 439.424,70.9224C 416.248,33.4214 293.253,24.8042 316.153,131.818"/>
	</g>
</svg>
