<?xml version="1.0" encoding="utf-8"?>
<!DOCTYPE svg PUBLIC "-//W3C//DTD SVG 1.1//EN" "http://www.w3.org/Graphics/SVG/1.1/DTD/svg11.dtd">
<svg xmlns="http://www.w3.org/2000/svg" xmlns:xlink="http://www.w3.org/1999/xlink" version="1.1" baseProfile="full" width="1294.19" height="688.493" viewBox="0 0 1294.19 688.49" enable-background="new 0 0 1294.19 688.49" xml:space="preserve">
	<g>
		<path fill="none" stroke-width="2" stroke-linejoin="round" stroke="#000000" stroke-opacity="1" d="M 875.462,100.444L 951.052,289.421L 1083.34,516.192L 1121.13,610.68"/>
		<line fill="none" stroke-width="2" stroke-linejoin="round" stroke="#000000" stroke-opacity="1" x1="951.052" y1="678.592" x2="1083.34" y2="516.192"/>
		<path fill="none" stroke-width="2" stroke-linejoin="round" stroke="#000000" stroke-opacity="1" d="M 951.052,289.421L 686.485,478.397L 440.816,648.475"/>
		<path fill="none" stroke-width="2" stroke-linejoin="round" stroke="#000000" stroke-opacity="1" d="M 438.8,5.95557L 365.226,265.908L 696.309,470.156"/>
		<path fill="none" stroke-width="2" stroke-linejoin="round" stroke="#000000" stroke-opacity="1" d="M 6.17056,138.24L 365.226,270.523L 25.0682,591.783"/>
		<line fill="none" stroke-width="2" stroke-linejoin="round" stroke="#000000" stroke-opacity="1" x1="1026.64" y1="402.806" x2="1291.21" y2="176.035"/>
		<path fill="#000000" fill-opacity="1" stroke-width="2" stroke-linejoin="round" stroke="#000000" stroke-opacity="1" d="M 947.03,285.91C 946.643,285.665 946.078,285.989 945.697,286.243C 945.043,286.679 944.552,287.323 944.03,287.91C 942.966,289.107 941.752,290.355 941.364,291.91C 941.002,293.356 942.151,295.043 943.364,295.91C 945.192,297.216 947.926,297.699 950.03,296.91C 950.55,296.715 950.971,296.303 951.364,295.91C 951.757,295.517 951.881,294.852 952.364,294.577C 952.75,294.356 953.255,294.625 953.697,294.577C 954.26,294.514 954.928,294.606 955.364,294.243C 955.716,293.95 955.878,293.331 955.697,292.91C 954.76,290.725 952.047,289.837 950.03,288.577C 949.609,288.313 949.162,288.084 948.697,287.91C 948.268,287.749 947.657,287.929 947.364,287.577C 947.001,287.142 947.509,286.213 947.03,285.91 Z "/>
		<path fill="#000000" fill-opacity="1" stroke-width="2" stroke-linejoin="round" stroke="#000000" stroke-opacity="1" d="M 1081.53,514.827C 1080.23,514.5 1078.34,514.251 1077.53,515.327C 1076.83,516.262 1076.52,517.938 1077.28,518.827C 1077.6,519.195 1078.11,519.34 1078.53,519.577C 1078.86,519.757 1079.21,519.879 1079.53,520.077C 1080.79,520.867 1082.05,522.261 1083.53,522.077C 1085.52,521.828 1087.33,519.574 1087.53,517.577C 1087.57,517.154 1087.74,516.75 1087.78,516.327C 1087.82,515.912 1088,515.43 1087.78,515.077C 1087.52,514.665 1086.97,514.524 1086.53,514.327C 1086.22,514.187 1085.84,514.23 1085.53,514.077C 1083.95,513.286 1082.05,513.327 1080.28,513.327"/>
		<path fill="#000000" fill-opacity="1" stroke-width="2" stroke-linejoin="round" stroke="#000000" stroke-opacity="1" d="M 1118.28,609.577C 1116.49,610.025 1116.22,613.768 1117.53,615.077C 1118.92,616.463 1121.79,617.603 1123.28,616.327C 1124.95,614.895 1126.51,612.474 1126.03,610.327C 1125.43,607.633 1121.29,606.827 1118.53,606.827C 1117.45,606.827 1116.18,606.226 1115.28,606.827C 1114.02,607.664 1114.84,610.148 1115.78,611.327"/>
		<path fill="#000000" fill-opacity="1" stroke-width="2" stroke-linejoin="round" stroke="#000000" stroke-opacity="1" d="M 955.197,674.743C 953.548,674.331 951.846,673.331 950.197,673.743C 947.254,674.479 946.054,678.28 944.697,680.993C 944.2,681.988 943.706,683.158 943.947,684.243C 944.348,686.049 946.652,687.044 948.447,687.493C 950.759,688.071 953.512,685.526 954.197,683.243C 954.557,682.043 954.007,680.666 954.447,679.493C 954.809,678.528 955.447,677.493 955.197,676.493C 954.971,675.589 953.622,675.359 952.697,675.243C 951.674,675.115 950.72,674.365 949.697,674.493C 948.251,674.674 946.822,675.577 945.947,676.743"/>
		<path fill="#000000" fill-opacity="1" stroke-width="2" stroke-linejoin="round" stroke="#000000" stroke-opacity="1" d="M 441.477,640.833C 439.696,640.833 437.812,640.541 436.144,641.167C 433.903,642.007 432.086,645.885 433.477,647.833C 434.641,649.463 436.534,650.681 438.477,651.167C 440.764,651.738 443.943,651.956 445.477,650.167C 446.348,649.15 446.28,647.419 445.81,646.167C 444.598,642.935 440.103,642.275 437.144,640.5"/>
		<path fill="none" stroke-width="2" stroke-linejoin="round" stroke="#000000" stroke-opacity="1" d="M 370.31,265.333C 368.994,265.004 367.645,264.826 366.31,264.583C 365.326,264.404 363.961,263.824 363.31,264.583C 362.967,264.983 363.093,265.639 362.81,266.083C 361.636,267.929 359.832,270.377 360.81,272.333C 361.661,274.034 363.965,274.622 365.81,275.083C 367.194,275.429 369.269,275.77 370.06,274.583C 370.95,273.25 370.272,271.115 369.31,269.833C 368.416,268.641 366.801,267.833 365.31,267.833"/>
		<path fill="#000000" fill-opacity="1" stroke-width="2" stroke-linejoin="round" stroke="#000000" stroke-opacity="1" d="M 441.894,1.1665C 437.409,0.499023 431.614,1.53955 428.894,5.1665C 425.294,9.9668 425.714,18.0786 428.894,23.1665C 432.227,28.5 438.653,32.3867 444.894,33.1665C 452.049,34.061 455.145,22.1621 456.894,15.1665C 457.255,13.7202 459.303,12.5996 458.894,11.1665C 457.088,4.84521 448.396,2.13428 441.894,1.1665 Z "/>
		<path fill="#000000" fill-opacity="1" stroke-width="2" stroke-linejoin="round" stroke="#000000" stroke-opacity="1" d="M 2.89371,132.167C -3.80621,135.517 8.19379,154.517 14.8937,151.167C 16.4993,150.364 16.5043,147.919 16.8937,146.167C 17.183,144.865 16.5703,143.46 16.8937,142.167C 17.2553,140.72 18.5322,139.613 18.8937,138.167C 19.2171,136.873 19.6333,135.276 18.8937,134.167C 15.9123,129.694 7.70111,129.763 2.89371,132.167 Z "/>
		<path fill="#000000" fill-opacity="1" stroke-width="2" stroke-linejoin="round" stroke="#000000" stroke-opacity="1" d="M 24.3104,584.083C 23.227,584.083 21.9419,583.454 21.0604,584.083C 20.665,584.366 20.4973,584.884 20.3104,585.333C 20.077,585.893 20.0022,586.507 19.8104,587.083C 19.6685,587.509 19.3984,587.893 19.3104,588.333C 19.2287,588.742 19.096,589.226 19.3104,589.583C 20.1732,591.021 22.2194,591.303 23.8104,591.833C 25.191,592.293 26.9239,593.742 28.0604,592.833C 29.4331,591.735 28.1776,589.229 27.5604,587.583C 27.0083,586.111 26.3937,584.417 25.0604,583.583C 23.91,582.864 22.4169,582.833 21.0604,582.833"/>
		<path fill="none" stroke-width="2" stroke-linejoin="round" stroke="#000000" stroke-opacity="1" d="M 700.395,467.166C 699.109,466.522 697.584,466.416 696.145,466.416C 695.812,466.416 695.477,466.378 695.145,466.416C 694.723,466.462 694.196,466.365 693.895,466.666C 693.595,466.966 693.737,467.5 693.645,467.916C 693.571,468.25 693.479,468.582 693.395,468.916C 693.312,469.249 693.188,469.575 693.145,469.916C 693.104,470.246 692.996,470.617 693.145,470.916C 694.047,472.718 696.44,473.426 698.395,473.916C 698.757,474.006 699.034,474.325 699.395,474.416C 699.719,474.496 700.072,474.496 700.395,474.416C 702.032,474.006 701.977,471.344 702.145,469.666C 702.188,469.243 702.348,468.837 702.395,468.416C 702.432,468.084 702.589,467.687 702.395,467.416C 701.091,465.589 698.322,465.459 696.145,464.916"/>
		<path fill="#000000" fill-opacity="1" stroke-width="2" stroke-linejoin="round" stroke="#000000" stroke-opacity="1" d="M 1286.19,174.947C 1285.52,174.947 1284.66,174.476 1284.19,174.947C 1283.58,175.548 1283.39,176.652 1283.69,177.447C 1283.98,178.228 1284.98,178.506 1285.69,178.947C 1286.32,179.343 1286.96,179.786 1287.69,179.947C 1289.81,180.419 1293.78,178.537 1293.19,176.447C 1292.96,175.646 1291.89,175.389 1291.19,174.947C 1289.35,173.799 1286.72,170.915 1285.19,172.447C 1284.58,173.048 1284.78,174.103 1284.69,174.947C 1284.61,175.61 1284.69,176.281 1284.69,176.947"/>
		<path fill="#000000" fill-opacity="1" stroke-width="2" stroke-linejoin="round" stroke="#000000" stroke-opacity="1" d="M 876.434,97.1143C 876.223,96.9839 876,97.3604 875.768,97.4478C 875.553,97.5283 875.328,97.5859 875.101,97.6143C 874.881,97.6421 874.655,97.5869 874.434,97.6143C 874.207,97.6426 873.93,97.6191 873.768,97.7813C 872.994,98.5547 872.314,99.6934 872.434,100.781C 872.518,101.532 873.107,102.248 873.768,102.614C 874.428,102.981 875.278,103.656 875.934,103.281C 876.591,102.906 876.901,102.108 877.268,101.448C 877.42,101.173 877.794,101.063 877.934,100.781C 878.034,100.582 877.983,100.331 877.934,100.114C 877.744,99.2568 876.791,98.7505 876.434,97.9478C 876.322,97.6938 876.671,97.2607 876.434,97.1143 Z "/>
		<path fill="#000000" fill-opacity="1" stroke-width="2" stroke-linejoin="round" stroke="#000000" stroke-opacity="1" d="M 1023.29,389.704C 1018.8,389.037 1013.01,390.077 1010.29,393.704C 1006.69,398.504 1007.11,406.616 1010.29,411.704C 1013.62,417.038 1020.05,420.924 1026.29,421.704C 1033.44,422.599 1036.54,410.7 1038.29,403.704C 1038.65,402.258 1040.7,401.137 1040.29,399.704C 1038.48,393.383 1029.79,390.672 1023.29,389.704 Z "/>
	</g>
</svg>
