<?xml version="1.0" encoding="utf-8"?>
<!DOCTYPE svg PUBLIC "-//W3C//DTD SVG 1.1//EN" "http://www.w3.org/Graphics/SVG/1.1/DTD/svg11.dtd">
<svg xmlns="http://www.w3.org/2000/svg" xmlns:xlink="http://www.w3.org/1999/xlink" version="1.1" baseProfile="full" width="394.807" height="436.646" viewBox="0 0 394.81 436.65" enable-background="new 0 0 394.81 436.65" xml:space="preserve">
	<g>
		<g>
			<g>
				<path fill="#FFFFFF" fill-opacity="1" stroke-width="2" stroke-linejoin="round" stroke="#000000" stroke-opacity="1" d="M 159.006,261.212L 171.079,261.212L 201.006,141.68L 205.006,261.212L 222.339,261.212L 222.173,137.014L 181.339,128.928L 159.006,261.212 Z "/>
				<path fill="#FFFFFF" fill-opacity="1" stroke-width="2" stroke-linejoin="round" stroke="#000000" stroke-opacity="1" d="M 166.506,131.639L 166.006,140.472C 166.006,140.472 159.506,145.305 164.173,152.639C 168.839,159.972 167.985,153.472 171.079,154.305C 174.173,155.139 174.173,154.139 174.173,153.472C 174.173,152.805 175.881,146.222 172.548,143.055C 169.214,139.889 171.079,134.305 171.079,134.305"/>
				<path fill="#FFFFFF" fill-opacity="1" stroke-width="2" stroke-linejoin="round" stroke="#000000" stroke-opacity="1" d="M 238.714,142.805C 238.714,142.805 239.965,150.305 238.881,152.389C 237.798,154.472 229.464,159.722 229.464,159.722L 229.464,145.972L 237.298,140.472L 238.714,142.805 Z "/>
				<path fill="#FFFFFF" fill-opacity="1" stroke-width="2" stroke-linejoin="round" stroke="#000000" stroke-opacity="1" d="M 174.798,130.639C 174.798,130.639 174.61,138.139 171.079,139.014C 167.548,139.889 160.173,138.264 159.298,135.014C 158.423,131.764 162.423,129.514 162.923,124.889C 163.423,120.264 171.079,76.1651 171.079,72.2352C 171.079,68.3054 173.589,59.4303 183.339,58.3053C 193.089,57.1803 194.464,55.7448 195.714,53.3376C 196.964,50.9303 191.613,50.7636 189.976,46.6387C 188.339,42.5137 184.589,41.3886 186.214,32.2637C 187.839,23.1387 198.006,5.01361 200.381,4.63867C 202.756,4.26367 214.381,-1.61139 219.631,2.38867C 224.881,6.38867 233.256,14.1386 232.881,23.1387C 232.506,32.1387 231.152,49.5365 225.402,53.3376C 219.652,57.1387 224.652,56.6387 224.652,56.6387C 224.652,56.6387 246.669,56.3261 246.669,74.9511C 246.669,93.5761 242.069,142.534 242.069,142.534L 231.735,142.618L 232.735,83.6179L 230.673,149.618C 230.673,149.618 203.923,151.846 194.548,147.826C 185.173,143.805 176.798,144.305 176.798,144.305L 185.298,76.222L 174.798,130.639 Z "/>
				<path fill="#FFFFFF" fill-opacity="1" stroke-width="2" stroke-linejoin="round" stroke="#000000" stroke-opacity="1" d="M 195.508,88.0804L 191.883,92.7054L 195.758,95.4882"/>
				<path fill="#FFFFFF" fill-opacity="1" stroke-width="2" stroke-linejoin="round" stroke="#000000" stroke-opacity="1" d="M 219.216,88.7054L 223.341,92.2054L 220.466,95.4881"/>
				<g>
					<path fill="#000000" fill-opacity="1" stroke-linejoin="round" d="M 198.679,95.4882L 198.679,88.6107L 201.026,88.6107C 201.557,88.6107 201.961,88.6435 202.24,88.7092C 202.631,88.7996 202.964,88.9638 203.24,89.2017C 203.6,89.5081 203.869,89.9 204.047,90.377C 204.225,90.8542 204.314,91.3991 204.314,92.0121C 204.314,92.5345 204.254,92.9974 204.133,93.4009C 204.012,93.8044 203.857,94.1382 203.668,94.4024C 203.479,94.6666 203.272,94.8745 203.047,95.0262C 202.822,95.178 202.551,95.2929 202.233,95.371C 201.915,95.4492 201.55,95.4882 201.138,95.4882L 198.679,95.4882 Z M 199.634,94.7241L 201.059,94.7241C 201.5,94.7241 201.846,94.681 202.096,94.5949C 202.346,94.5089 202.546,94.3876 202.695,94.2315C 202.904,94.0125 203.067,93.7176 203.184,93.3464C 203.301,92.9753 203.359,92.5256 203.359,91.9971C 203.359,91.2648 203.245,90.7018 203.015,90.3084C 202.786,89.9149 202.507,89.6514 202.18,89.5181C 201.943,89.4225 201.562,89.3748 201.037,89.3748L 199.634,89.3748L 199.634,94.7241 Z "/>
					<path fill="#000000" fill-opacity="1" stroke-linejoin="round" d="M 205.556,95.4882L 205.556,88.6107L 210.523,88.6107L 210.523,89.3748L 206.512,89.3748L 206.512,91.5718L 210.237,91.5718L 210.237,92.336L 206.512,92.336L 206.512,94.7241L 210.714,94.7241L 210.714,95.4882L 205.556,95.4882 Z "/>
					<path fill="#000000" fill-opacity="1" stroke-linejoin="round" d="M 213.888,95.4882L 211.122,88.6107L 212.147,88.6107L 214.015,93.5613C 214.165,93.9573 214.291,94.329 214.392,94.6762C 214.5,94.3041 214.624,93.9324 214.765,93.5613L 216.637,88.6107L 217.662,88.6107L 214.998,95.4882L 213.888,95.4882 Z "/>
				</g>
				<path fill="#FFFFFF" fill-opacity="1" stroke-width="2" stroke-linejoin="round" stroke="#000000" stroke-opacity="1" d="M 1,240.646C 0.999878,240.646 19.8976,307.773 38.7953,318.312C 57.6929,328.851 142.856,359.747 152.181,372.646C 161.506,385.544 201.01,423.34 223.839,423.34C 246.669,423.34 246.669,435.646 246.669,435.646L 388.506,272.158C 388.506,272.158 410.086,253.261 366.173,253.261C 322.26,253.261 303.362,262.646 246.669,263.646C 189.976,264.646 181.803,231.364 95.4882,242.312C 9.17273,253.261 0.999878,240.312 1,240.646 Z "/>
			</g>
			<path fill="#000000" fill-opacity="1" stroke-width="2" stroke-linejoin="round" stroke="#000000" stroke-opacity="1" d="M 181.33,271.371L 215.034,269.705L 190.476,296.453L 182.597,370.953L 181.33,271.371 Z "/>
			<path fill="#000000" fill-opacity="1" stroke-width="2" stroke-linejoin="round" stroke="#000000" stroke-opacity="1" d="M 311.68,352.055L 322.26,303.42L 371.18,286.92L 314.657,351.341"/>
			<path fill="#000000" fill-opacity="1" stroke-width="2" stroke-linejoin="round" stroke="#000000" stroke-opacity="1" d="M 11.8536,257.567C 15.8668,257.567 37.2002,270.005 36.2002,270.339L 76.5905,322.337L 38.795,314.26"/>
			<path fill="#000000" fill-opacity="1" stroke-width="2" stroke-linejoin="round" stroke="#000000" stroke-opacity="1" d="M 234.18,420.087L 303.362,366.462L 248.93,429.212L 234.18,420.087 Z "/>
		</g>
		<line fill="none" stroke-width="2" stroke-linejoin="round" stroke="#000000" stroke-opacity="1" x1="336.043" y1="266.341" x2="346.376" y2="250.841"/>
		<line fill="none" stroke-width="2" stroke-linejoin="round" stroke="#000000" stroke-opacity="1" x1="326.876" y1="264.841" x2="331.21" y2="252.841"/>
		<line fill="none" stroke-width="2" stroke-linejoin="round" stroke="#000000" stroke-opacity="1" x1="313.043" y1="265.174" x2="324.543" y2="253.341"/>
		<line fill="none" stroke-width="2" stroke-linejoin="round" stroke="#000000" stroke-opacity="1" x1="306.21" y1="265.674" x2="315.043" y2="253.508"/>
		<path fill="none" stroke-width="2" stroke-linejoin="round" stroke="#000000" stroke-opacity="1" d="M 295.376,266.841C 296.043,266.508 303.362,251.674 303.362,251.674"/>
		<line fill="none" stroke-width="2" stroke-linejoin="round" stroke="#000000" stroke-opacity="1" x1="282.376" y1="267.841" x2="292.543" y2="253.174"/>
		<line fill="none" stroke-width="2" stroke-linejoin="round" stroke="#000000" stroke-opacity="1" x1="265.567" y1="262.341" x2="274.876" y2="252.174"/>
		<line fill="none" stroke-width="2" stroke-linejoin="round" stroke="#000000" stroke-opacity="1" x1="252.168" y1="264.591" x2="254.793" y2="252.591"/>
		<line fill="none" stroke-width="2" stroke-linejoin="round" stroke="#000000" stroke-opacity="1" x1="244.293" y1="264.216" x2="249.168" y2="252.216"/>
		<line fill="none" stroke-width="2" stroke-linejoin="round" stroke="#000000" stroke-opacity="1" x1="148.918" y1="258.049" x2="145.834" y2="242.633"/>
		<line fill="none" stroke-width="2" stroke-linejoin="round" stroke="#000000" stroke-opacity="1" x1="122.418" y1="256.299" x2="116.918" y2="239.216"/>
		<line fill="none" stroke-width="2" stroke-linejoin="round" stroke="#000000" stroke-opacity="1" x1="99.6261" y1="253.508" x2="97.1261" y2="238.258"/>
		<line fill="none" stroke-width="2" stroke-linejoin="round" stroke="#000000" stroke-opacity="1" x1="86.1261" y1="254.758" x2="83.2511" y2="236.258"/>
		<line fill="none" stroke-width="2" stroke-linejoin="round" stroke="#000000" stroke-opacity="1" x1="79.2511" y1="249.883" x2="79.6261" y2="236.258"/>
		<line fill="none" stroke-width="2" stroke-linejoin="round" stroke="#000000" stroke-opacity="1" x1="74.2511" y1="255.133" x2="64.8761" y2="236.508"/>
		<line fill="none" stroke-width="2" stroke-linejoin="round" stroke="#000000" stroke-opacity="1" x1="61.7511" y1="253.883" x2="51.1261" y2="241.438"/>
		<path fill="none" stroke-width="2" stroke-linejoin="round" stroke="#000000" stroke-opacity="1" d="M 114.386,255.049L 116.751,298.131L 171.079,326.716"/>
		<path fill="none" stroke-width="2" stroke-linejoin="round" stroke="#000000" stroke-opacity="1" d="M 129.751,260.336L 133.284,282.466L 139.251,284.966"/>
		<path fill="none" stroke-width="2" stroke-linejoin="round" stroke="#000000" stroke-opacity="1" d="M 275.251,301.966L 317.251,290.966L 317.251,260.336"/>
		<path fill="none" stroke-width="2" stroke-linejoin="round" stroke="#000000" stroke-opacity="1" d="M 322.26,263.216L 322.26,303.466L 275.251,313.216"/>
		<path fill="none" stroke-width="2" stroke-linejoin="round" stroke="#000000" stroke-opacity="1" d="M 265.567,418.549L 238.001,397.216L 265.567,366.883L 246.669,335.927"/>
		<path fill="none" stroke-width="2" stroke-linejoin="round" stroke="#000000" stroke-opacity="1" d="M 171.079,401.883L 198.668,359.883L 227.771,360.216"/>
		<path fill="none" stroke-width="2" stroke-linejoin="round" stroke="#000000" stroke-opacity="1" d="M 152.181,392.619L 175.668,349.216L 227.771,343.216"/>
		<path fill="none" stroke-width="2" stroke-linejoin="round" stroke="#000000" stroke-opacity="1" d="M 169.834,326.383C 169.39,326.383 168.848,326.105 168.501,326.383C 167.595,327.107 168.376,329.435 169.501,329.716C 170.967,330.083 172.172,328.187 173.168,327.049C 173.582,326.576 174.501,326.345 174.501,325.716C 174.501,325.258 173.622,325.44 173.168,325.383C 172.727,325.328 172.256,325.523 171.834,325.383C 171.22,325.178 170.723,324.716 170.168,324.383"/>
		<path fill="#000000" fill-opacity="1" stroke-width="2" stroke-linejoin="round" stroke="#000000" stroke-opacity="1" d="M 134.501,284.049C 134.3,284.461 134.568,285.01 134.834,285.383C 135.157,285.835 135.641,286.207 136.168,286.383C 137.472,286.817 139.685,286.67 140.168,285.383C 140.849,283.566 135.352,282.305 134.501,284.049 Z "/>
		<path fill="#000000" fill-opacity="1" stroke-width="2" stroke-linejoin="round" stroke="#000000" stroke-opacity="1" d="M 226.251,341.966C 226.162,342.345 226.251,342.744 226.251,343.133C 226.251,343.997 227.246,345.176 228.084,344.966C 228.219,344.932 228.333,344.826 228.418,344.716C 228.532,344.569 228.558,344.367 228.668,344.216C 228.783,344.057 228.989,343.971 229.084,343.799C 229.508,343.037 228.329,341.992 227.501,341.716C 227.098,341.582 226.349,341.553 226.251,341.966 Z "/>
		<path fill="#000000" fill-opacity="1" stroke-width="2" stroke-linejoin="round" stroke="#000000" stroke-opacity="1" d="M 227.834,358.049C 227.439,358.445 227.015,358.995 227.084,359.549C 227.197,360.449 228.368,360.873 229.168,361.299C 229.377,361.411 229.622,361.443 229.834,361.549C 229.959,361.612 230.046,361.732 230.168,361.799C 230.298,361.872 230.443,361.919 230.584,361.966C 230.693,362.002 230.83,362.123 230.918,362.049C 231.43,361.623 231.079,360.696 230.918,360.049C 230.8,359.579 230.657,359.079 230.334,358.716C 229.879,358.203 229.104,357.966 228.418,357.966"/>
		<path fill="#000000" fill-opacity="1" stroke-width="2" stroke-linejoin="round" stroke="#000000" stroke-opacity="1" d="M 245.418,334.883C 245.279,334.966 245.129,335.033 245.001,335.133C 244.877,335.229 244.762,335.34 244.668,335.466C 244.401,335.822 244.413,336.51 244.751,336.799C 245.038,337.045 245.476,337.013 245.834,337.133C 246.178,337.247 246.594,337.378 246.918,337.216C 247.454,336.948 247.632,335.987 247.334,335.466C 246.886,334.681 245.656,334.633 244.751,334.633"/>
		<path fill="#000000" fill-opacity="1" stroke-width="2" stroke-linejoin="round" stroke="#000000" stroke-opacity="1" d="M 273.293,301.258C 272.848,301.258 272.404,301.258 271.959,301.258C 271.528,301.258 270.985,301.26 270.709,301.591C 270.424,301.933 270.405,302.538 270.626,302.924C 270.928,303.453 271.684,303.674 272.293,303.674C 272.976,303.674 273.515,303.063 274.126,302.758C 274.471,302.585 274.768,302.318 275.126,302.174C 275.281,302.113 275.466,302.222 275.626,302.174C 275.759,302.135 275.869,302.03 275.959,301.924C 276.216,301.625 275.555,301.2 275.209,301.008C 274.519,300.624 273.508,300.117 272.876,300.591"/>
		<path fill="#000000" fill-opacity="1" stroke-width="2" stroke-linejoin="round" stroke="#000000" stroke-opacity="1" d="M 274.126,312.508C 273.837,312.38 273.453,312.784 273.376,313.091C 273.246,313.612 273.53,314.269 273.959,314.591C 274.406,314.926 275.068,314.758 275.626,314.758C 275.765,314.758 275.904,314.758 276.043,314.758C 276.209,314.758 276.376,314.758 276.543,314.758C 276.959,314.758 277.5,314.12 277.293,313.758C 277.003,313.251 276.291,313.066 275.709,313.008C 275.571,312.994 275.432,313.008 275.293,313.008C 275.154,313.008 275.004,313.063 274.876,313.008C 274.6,312.889 274.401,312.629 274.126,312.508 Z "/>
		<path fill="#000000" fill-opacity="1" stroke-width="2" stroke-linejoin="round" stroke="#000000" stroke-opacity="1" d="M 231.962,59.7723C 231.962,59.7723 245.674,67.1431 243.962,78.3973C 242.25,89.6516 239.253,139.731 239.253,139.731L 237.212,139.981L 242.128,74.9807L 230.249,66.3365"/>
		<path fill="#000000" fill-opacity="1" stroke-width="2" stroke-linejoin="round" stroke="#000000" stroke-opacity="1" d="M 179.332,68.3596C 179.332,68.3596 183.499,71.9429 187.999,71.3596C 192.499,70.7763 208.874,63.7763 208.874,63.7763C 208.874,63.7763 208.999,57.6096 204.332,56.3596C 199.666,55.1096 189.976,60.6935 189.976,60.6935L 180.832,66.8597"/>
		<path fill="#000000" fill-opacity="1" stroke-width="2" stroke-linejoin="round" stroke="#000000" stroke-opacity="1" d="M 202.332,42.3365C 202.332,42.3365 199.999,27.3364 194.915,26.8365C 189.832,26.3365 189.165,28.8365 189.165,28.8365C 189.165,28.8365 185.749,41.8365 192.665,43.3365C 199.582,44.8365 202.249,42.1699 202.332,42.3365 Z "/>
		<path fill="#000000" fill-opacity="1" stroke-width="2" stroke-linejoin="round" stroke="#000000" stroke-opacity="1" d="M 211.249,12.4614C 211.749,14.6667 218.332,23.8364 217.666,26.0864C 216.999,28.3365 215.832,29.1256 215.915,33.5644"/>
		<path fill="#000000" fill-opacity="1" stroke-width="2" stroke-linejoin="round" stroke="#000000" stroke-opacity="1" d="M 226.647,17.4598C 226.646,17.4597 227.103,28.2658 225.243,36.8973C 223.16,46.564 219.884,49.8479 219.884,49.8479L 222.24,51.0557C 222.24,51.0557 226.889,47.689 227.805,42.1473C 228.387,38.6304 230.834,20.991 226.647,17.4598 Z "/>
		<path fill="#000000" fill-opacity="1" stroke-width="2" stroke-linejoin="round" stroke="#000000" stroke-opacity="1" d="M 205.874,146.95L 227.771,113.106L 227.771,146.95L 206.207,146.95"/>
		<path fill="#000000" fill-opacity="1" stroke-width="2" stroke-linejoin="round" stroke="#000000" stroke-opacity="1" d="M 183.957,151.503L 220.124,151.836L 219.624,169.003L 198.79,154.67L 194.624,160.17C 194.624,160.17 186.457,161.503 183.29,156.67C 180.124,151.836 184.29,151.836 183.957,151.503 Z "/>
		<path fill="#000000" fill-opacity="1" stroke-width="2" stroke-linejoin="round" stroke="#000000" stroke-opacity="1" d="M 227.772,152.17L 224.957,235.003L 222.957,165.848L 227.772,152.17 Z "/>
		<path fill="#000000" fill-opacity="1" stroke-width="2" stroke-linejoin="round" stroke="#000000" stroke-opacity="1" d="M 166.42,143.689C 166.42,143.689 164.462,147.939 165.545,151.439C 166.628,154.939 168.17,153.772 168.17,153.772L 169.462,151.314L 166.42,143.689 Z "/>
		<path fill="#000000" fill-opacity="1" stroke-width="2" stroke-linejoin="round" stroke="#000000" stroke-opacity="1" d="M 169.378,131.481L 172.045,88.9807L 161.712,133.897C 161.712,133.897 164.878,137.314 167.378,135.564C 169.878,133.814 169.378,131.981 169.378,131.981"/>
	</g>
</svg>
