<?xml version="1.0" encoding="utf-8"?>
<!DOCTYPE svg PUBLIC "-//W3C//DTD SVG 1.1//EN" "http://www.w3.org/Graphics/SVG/1.1/DTD/svg11.dtd">
<svg xmlns="http://www.w3.org/2000/svg" xmlns:xlink="http://www.w3.org/1999/xlink" version="1.1" baseProfile="full" width="492.339" height="454.543" viewBox="0 0 492.34 454.54" enable-background="new 0 0 492.34 454.54" xml:space="preserve">
	<g>
		<path fill="#000000" fill-opacity="1" stroke-linejoin="round" stroke="#000000" stroke-opacity="1" d="M 485.953,50.585C 485.953,50.585 454.043,66.1348 435.146,57.1934C 416.248,48.251 385.286,19.3965 385.286,19.3965L 384.286,7.58398L 355.619,0.5C 355.619,0.5 283.965,57.1934 283.965,76.0898C 283.965,76.0898 132.784,76.0908 0.5,132.783C 0.5,132.782 74.2141,304.206 103.499,312.982C 132.783,321.76 416.248,454.044 435.146,454.043C 454.043,454.043 454.043,445.836 454.043,445.836L 491.839,389.169L 480.851,151.681L 491.839,57.1924L 485.953,50.585 Z "/>
		<path fill="#FFFFFF" fill-opacity="1" stroke-linejoin="round" stroke="#E3E3E3" stroke-opacity="1" d="M 112.886,318.76L 56.193,138.523L 131.783,262.065L 207.374,299.861L 131.783,129.782L 216.03,280.963C 216.03,280.963 234.03,194.572 234.03,190.523C 234.03,186.475 282.965,186.475 282.965,186.475L 264.067,262.065L 434.146,356.554L 453.043,451.042L 245.169,375.451L 112.886,318.76 Z "/>
	</g>
</svg>
