<?xml version="1.0" encoding="utf-8"?>
<!DOCTYPE svg PUBLIC "-//W3C//DTD SVG 1.1//EN" "http://www.w3.org/Graphics/SVG/1.1/DTD/svg11.dtd">
<svg xmlns="http://www.w3.org/2000/svg" xmlns:xlink="http://www.w3.org/1999/xlink" version="1.1" baseProfile="full" width="545.332" height="780.382" viewBox="0 0 545.33 780.38" enable-background="new 0 0 545.33 780.38" xml:space="preserve">
	<g>
		<path fill="#FFFFFF" fill-opacity="1" stroke-linejoin="round" stroke="#000000" stroke-opacity="1" d="M 457.379,349.856C 457.379,349.855 456.879,335.947 476.129,324.004C 495.379,312.061 491.805,320.254 507.129,303.754C 522.453,287.254 529.407,295.254 535.379,299.504C 541.351,303.754 549.823,319.913 541.351,330.958C 532.879,342.004 529.629,349.856 509.129,349.855C 488.629,349.855 481.087,349.212 476.879,354.004C 472.671,358.795 457.358,349.855 457.379,349.856 Z "/>
		<path fill="#FFFFFF" fill-opacity="1" stroke-linejoin="round" stroke="#000000" stroke-opacity="1" d="M 438.129,482.141C 438.129,482.14 449.796,471.943 451.462,482.141C 453.129,492.336 471.421,529.713 470.921,530.337C 470.421,530.962 475.296,542.588 457.421,543.837C 439.546,545.087 351.587,573.879 338.087,567.879C 324.587,561.879 343.087,557.73 344.087,557.73C 345.087,557.73 390.17,522.045 390.17,522.045L 427.965,487.712L 438.129,482.141 Z "/>
		<path fill="#FFFFFF" fill-opacity="1" stroke-linejoin="round" stroke="#000000" stroke-opacity="1" d="M 272.254,538.833L 291.588,519.936L 308.254,433.885C 308.254,433.885 314.58,395.351 333.477,382.052C 352.375,368.754 379.624,324.404 371.272,312.061C 362.921,299.719 341.866,293.163 333.477,255.367C 325.088,217.571 302.692,217.572 295.682,179.777C 288.672,141.982 264.422,123.084 264.422,123.084L 257.887,195.066L 220.091,28.5957L 192.005,18.4834L 201.194,198.675L 175.843,16L 144.501,0.5L 163.398,104.187L 163.398,302.5L 192.843,293.163L 190.843,378.5C 190.843,378.5 182.009,384.157 204.509,414.25C 227.009,444.344 272.843,538.832 272.254,538.833 Z "/>
		<path fill="#FFFFFF" fill-opacity="1" stroke-linejoin="round" stroke="#000000" stroke-opacity="1" d="M 342.765,459.145C 336.39,463.242 352.375,451.77 352.375,451.77L 354.89,459.895C 354.89,459.895 359.156,468.895 355.765,468.27C 352.375,467.645 346.14,476.27 341.89,474.145C 337.64,472.02 335.064,472.27 333.477,472.02C 331.89,471.77 334.89,465.52 335.64,465.27C 336.39,465.02 343.515,459.145 343.515,459.145"/>
		<path fill="#FFFFFF" fill-opacity="1" stroke-linejoin="round" stroke="#000000" stroke-opacity="1" d="M 193.182,633.321L 209.182,624.561L 269.182,647.561L 263.515,682.894C 263.515,682.894 255.375,689.228 247.182,685.561C 238.989,681.894 193.849,633.32 193.182,633.321 Z "/>
		<path fill="#FFFFFF" fill-opacity="1" stroke-linejoin="round" stroke="#000000" stroke-opacity="1" d="M 76.3488,583.561C 76.3486,583.561 76.8896,573.812 82.3488,563.061C 87.8078,552.311 98.3486,538.832 98.3486,538.832C 98.3486,538.832 158.099,583.811 159.099,584.061C 160.099,584.311 158.349,591.061 158.349,591.061C 158.349,591.061 84.0988,587.811 80.5986,587.811C 77.0986,587.811 77.3486,583.311 76.3488,583.561 Z "/>
		<path fill="#FFFFFF" fill-opacity="1" stroke-linejoin="round" stroke="#000000" stroke-opacity="1" d="M 139.599,637.311C 139.599,637.311 153.849,636.312 156.849,640.811C 159.849,645.311 154.697,655.877 149.599,652.219C 144.501,648.561 138.599,639.811 138.599,639.811L 139.599,637.311 Z "/>
		<path fill="#FFFFFF" fill-opacity="1" stroke-linejoin="round" stroke="#000000" stroke-opacity="1" d="M 163.398,700.562C 163.208,700.472 183.015,726.062 187.515,723.812C 192.015,721.561 215.515,700.061 215.515,700.061C 215.515,700.061 177.031,688.81 163.398,700.562 Z "/>
		<path fill="#FFFFFF" fill-opacity="1" stroke-linejoin="round" stroke="#000000" stroke-opacity="1" d="M 303.057,667.103L 302.057,679.603L 320.307,674.103C 320.307,674.103 310.932,674.352 303.057,667.103 Z "/>
		<path fill="#FFFFFF" fill-opacity="1" stroke-linejoin="round" stroke="#000000" stroke-opacity="1" d="M 465.761,633.321C 465.761,633.32 466.224,639.02 470.557,639.686C 474.89,640.352 480.224,638.019 480.224,638.019L 465.761,633.321 Z "/>
		<path fill="#FFFFFF" fill-opacity="1" stroke-linejoin="round" stroke="#000000" stroke-opacity="1" d="M 271.057,557.73C 271.057,557.73 272.641,554.187 275.557,554.77C 278.474,555.352 282.974,557.73 282.974,557.73C 282.974,557.73 280.497,560.353 278.64,560.352C 276.784,560.352 270.89,557.73 271.057,557.73 Z "/>
		<path fill="#FFFFFF" fill-opacity="1" stroke-linejoin="round" stroke="#000000" stroke-opacity="1" d="M 150.745,312.957C 150.745,312.956 157.62,314.895 153.37,317.707C 149.12,320.519 146.245,321.706 146.245,321.706C 146.245,321.706 142.257,319.52 144.501,317.644C 146.745,315.769 150.807,312.831 150.745,312.957 Z "/>
		<path fill="#FFFFFF" fill-opacity="1" stroke-linejoin="round" stroke="#000000" stroke-opacity="1" d="M 101.432,336.936C 101.432,336.936 97.0573,338.249 97.0571,341.936C 97.0571,345.623 97.5571,346.186 97.5571,346.186C 97.5571,346.186 102.307,342.936 102.932,341.811C 103.557,340.686 101.557,336.748 101.432,336.936 Z "/>
		<path fill="#FFFFFF" fill-opacity="1" stroke-linejoin="round" stroke="#000000" stroke-opacity="1" d="M 66.0363,396.728C 66.0363,396.727 61.5364,398.791 63.0988,399.79C 64.6613,400.789 67.0988,400.228 67.2863,399.039C 67.4738,397.852 66.0988,396.602 66.0363,396.728 Z "/>
		<path fill="#FFFFFF" fill-opacity="1" stroke-linejoin="round" stroke="#000000" stroke-opacity="1" d="M 28.8699,504.52C 28.8698,504.519 21.3981,503.687 12.2173,507.52C 3.0365,511.352 1.86987,511.353 0.869812,510.852C -0.130188,510.352 1.20313,515.686 1.20313,515.686L 4.86981,524.019L 22.8698,531.852L 31.1149,531.186C 31.1149,531.186 33.0366,526.437 37.7031,523.186C 42.3698,519.935 39.7031,512.686 39.7031,512.686L 28.8699,504.52 Z "/>
		<path fill="#FFFFFF" fill-opacity="1" stroke-linejoin="round" stroke="#000000" stroke-opacity="1" d="M 20.6342,740.217L 41.9675,736.217C 41.9675,736.216 29.7178,720.884 20.9675,719.883C 12.2172,718.883 12.2173,723.069 12.2172,727.81C 12.2172,732.55 20.6342,741.55 20.6342,740.217 Z "/>
		<path fill="#FFFFFF" fill-opacity="1" stroke-linejoin="round" stroke="#000000" stroke-opacity="1" d="M 111.634,773.217C 111.634,773.216 137.301,757.66 138.968,765.604C 140.634,773.55 136.967,779.883 136.967,779.883C 136.967,779.883 114.676,772.967 112.759,773.8C 110.842,774.633 111.509,773.466 111.634,773.217 Z "/>
		<path fill="#000000" fill-opacity="1" stroke-linejoin="round" stroke="#000000" stroke-opacity="1" d="M 181.296,384.651L 189.543,225.272L 200.194,309.061L 219.091,384.65L 275.784,469.938L 229.543,376.605L 219.091,327.957L 294.682,422.445C 294.682,422.445 313.58,470.605 294.682,489.271C 275.784,507.938 275.784,525.938 275.784,525.938L 200.194,403.549L 181.296,384.651 Z "/>
		<path fill="#000000" fill-opacity="1" stroke-linejoin="round" stroke="#000000" stroke-opacity="1" d="M 313.58,403.549L 256.887,262.605L 342.876,365.753C 342.876,365.753 313.579,384.65 313.58,403.549 Z "/>
		<line fill="none" stroke-linejoin="round" stroke="#000000" stroke-opacity="1" x1="226.05" y1="316.452" x2="200.194" y2="101.187"/>
		<path fill="#000000" fill-opacity="1" stroke-linejoin="round" stroke="#000000" stroke-opacity="1" d="M 345.55,299.452L 275.784,165.952L 275.784,176.776"/>
		<path fill="#000000" fill-opacity="1" stroke-linejoin="round" stroke="#000000" stroke-opacity="1" d="M 464.761,346.855C 464.761,346.855 521.454,317.264 521.453,309.061C 521.453,300.857 464.761,327.957 464.761,327.957L 464.761,346.855 Z "/>
		<path fill="#000000" fill-opacity="1" stroke-linejoin="round" stroke="#000000" stroke-opacity="1" d="M 434.213,490.842L 355.213,550.509L 439.546,540.842L 433.879,487.842"/>
		<path fill="#000000" fill-opacity="1" stroke-linejoin="round" stroke="#000000" stroke-opacity="1" d="M 270.522,649.219L 249.522,659.834L 244.355,683.167L 256.887,680.5L 270.522,649.219 Z "/>
		<path fill="#000000" fill-opacity="1" stroke-linejoin="round" stroke="#000000" stroke-opacity="1" d="M 131.188,564.917L 155.355,582.417L 86.8078,585.083L 89.5215,559.416L 131.188,564.917 Z "/>
		<path fill="#000000" fill-opacity="1" stroke-linejoin="round" stroke="#000000" stroke-opacity="1" d="M 97.6882,538.584L 124.603,556.75L 90.3549,554.729L 97.6882,538.584 Z "/>
		<path fill="#000000" fill-opacity="1" stroke-linejoin="round" stroke="#000000" stroke-opacity="1" d="M 181.296,697.917L 204.772,696.667L 181.296,716.917C 181.296,716.917 160.9,699.542 162.398,699.542C 163.897,699.542 181.296,698.042 181.296,697.917 Z "/>
	</g>
</svg>
