<?xml version="1.0" encoding="utf-8"?>
<!DOCTYPE svg PUBLIC "-//W3C//DTD SVG 1.1//EN" "http://www.w3.org/Graphics/SVG/1.1/DTD/svg11.dtd">
<svg xmlns="http://www.w3.org/2000/svg" xmlns:xlink="http://www.w3.org/1999/xlink" version="1.1" baseProfile="full" width="389.515" height="380.952" viewBox="0 0 389.51 380.95" enable-background="new 0 0 389.51 380.95" xml:space="preserve">
	<g>
		<g>
			<path fill="#FFFFFF" fill-opacity="1" stroke-width="3" stroke-linejoin="round" stroke="#000000" stroke-opacity="1" d="M 189.5,1.5L 142.346,133.784L 1.5,171.579L 142.346,247.169L 199.039,379.453L 255.732,236.613L 388.015,190.476L 251.667,124.28L 189.5,1.5 Z "/>
			<path fill="none" stroke-width="3" stroke-linejoin="round" stroke="#000000" stroke-opacity="1" d="M 255.732,114.886C 255.732,114.886 293.527,76.5698 293.527,86.2788C 293.527,95.9878 142.346,286.029 123.448,294.945C 104.55,303.862 142.346,247.169 142.346,247.169"/>
			<path fill="none" stroke-width="3" stroke-linejoin="round" stroke="#000000" stroke-opacity="1" d="M 255.732,247.169C 255.732,247.169 312.425,284.965 312.425,266.067C 312.424,247.169 104.551,58.1934 104.55,77.0903C 104.55,95.9878 142.346,133.783 142.346,133.783"/>
		</g>
		<path fill="none" stroke-width="2" stroke-linejoin="round" stroke="#000000" stroke-opacity="1" d="M 246.088,129.711L 375.838,190.477L 251.172,232.628L 199.039,352.461L 150.338,247.169L 19.5884,171.579L 148.088,140.128L 189.588,12.2944L 246.088,129.711 Z "/>
		<path fill="none" stroke-width="2" stroke-linejoin="round" stroke="#000000" stroke-opacity="1" d="M 367.838,190.477L 367.422,190.477L 250.088,223.628L 183.338,341.657"/>
		<path fill="none" stroke-width="2" stroke-linejoin="round" stroke="#000000" stroke-opacity="1" d="M 180.141,333.034L 246.172,218.534L 366.859,190.476L 240.255,136.221L 190.026,22.1587L 163.234,137.909L 34.8799,190.476"/>
		<path fill="none" stroke-width="2" stroke-linejoin="round" stroke="#000000" stroke-opacity="1" d="M 47.8575,198.18L 169.13,143.888L 190.422,36.2632L 232.797,145.971L 362.026,190.476L 243.651,213.805L 174.317,320.971"/>
		<path fill="none" stroke-width="2" stroke-linejoin="round" stroke="#000000" stroke-opacity="1" d="M 222.732,322.76L 173.482,228.272L 23.899,171.579"/>
		<path fill="none" stroke-width="2" stroke-linejoin="round" stroke="#000000" stroke-opacity="1" d="M 217.936,338.723L 166.982,237.973L 22.274,171.579"/>
		<path fill="none" stroke-width="2" stroke-linejoin="round" stroke="#000000" stroke-opacity="1" d="M 211.024,350.307L 161.243,242.973L 20.1073,171.579"/>
		<path fill="none" stroke-width="2" stroke-linejoin="round" stroke="#000000" stroke-opacity="1" d="M 62.4407,209.374L 180.141,152.681L 190.316,37.0146L 225.232,155.473L 366.816,190.476"/>
	</g>
</svg>
