<?xml version="1.0" encoding="utf-8"?>
<!DOCTYPE svg PUBLIC "-//W3C//DTD SVG 1.1//EN" "http://www.w3.org/Graphics/SVG/1.1/DTD/svg11.dtd">
<svg xmlns="http://www.w3.org/2000/svg" xmlns:xlink="http://www.w3.org/1999/xlink" version="1.1" baseProfile="full" width="1252.05" height="1004.09" viewBox="0 0 1252.05 1004.09" enable-background="new 0 0 1252.05 1004.09" xml:space="preserve">
	<path fill="#FFFFFF" fill-opacity="1" stroke-width="2" stroke-linejoin="round" stroke="#000000" stroke-opacity="1" d="M 1019.11,364.297C 1019.11,364.297 1026.13,355.419 1035.36,345.399C 1044.59,335.38 1041.32,330.623 1044.59,326.502C 1047.86,322.38 982.365,326.38 981.365,322.63C 980.365,318.88 966.865,324.88 979.115,331.13C 991.365,337.38 1020.11,364.297 1019.11,364.297 Z "/>
	<path fill="#FFFFFF" fill-opacity="1" stroke-width="2" stroke-linejoin="round" stroke="#000000" stroke-opacity="1" d="M 1050.86,184.797C 1050.42,184.522 1057.86,194.218 1059.7,194.218C 1061.53,194.218 1067.2,194.218 1067.2,194.218C 1067.2,194.218 1073.03,183.606 1071.86,179.464C 1070.7,175.321 1057.13,181.13 1050.86,184.797 Z "/>
	<path fill="#FFFFFF" fill-opacity="1" stroke-width="2" stroke-linejoin="round" stroke="#000000" stroke-opacity="1" d="M 992.615,61.9347C 992.615,61.9348 1001.48,68.4893 1006.8,61.9347C 1012.11,55.3801 1020.36,30.6301 1020.36,30.6301L 969.004,12.6301L 955.865,18.3801L 958.115,28.1301L 992.615,61.9347 Z "/>
	<path fill="#FFFFFF" fill-opacity="1" stroke-width="2" stroke-linejoin="round" stroke="#000000" stroke-opacity="1" d="M 922.365,103.172C 922.365,103.172 928.281,104.205 932.365,99.73C 936.448,95.2551 926.281,93.4218 922.698,90.5885C 919.115,87.7551 914.531,89.1718 914.115,91.2551C 913.698,93.3385 916.365,99.7301 916.365,99.7301L 922.365,103.172 Z "/>
	<path fill="#FFFFFF" fill-opacity="1" stroke-width="2" stroke-linejoin="round" stroke="#000000" stroke-opacity="1" d="M 477.665,80.8323C 477.665,80.8324 475.832,87.0046 481.166,87.0048C 486.499,87.0049 499.499,78.6714 499.999,73.0049C 500.499,67.3381 491.832,68.0048 489.499,67.8381C 487.165,67.6715 477.665,80.8324 477.665,80.8323 Z "/>
	<path fill="#FFFFFF" fill-opacity="1" stroke-width="2" stroke-linejoin="round" stroke="#000000" stroke-opacity="1" d="M 417.666,87.9214L 416.332,93.2548C 416.332,93.2549 418.832,98.0881 423.499,92.7549C 428.165,87.4215 420.972,84.2549 420.972,84.2549L 417.666,87.9214 Z "/>
	<path fill="#FFFFFF" fill-opacity="1" stroke-width="2" stroke-linejoin="round" stroke="#000000" stroke-opacity="1" d="M 420.973,167.088C 420.972,167.088 443.158,194.218 439.87,194.218C 436.582,194.218 460.749,163.921 461.082,158.588C 461.415,153.255 438.749,159.088 431.915,163.255C 425.082,167.422 420.972,167.755 420.973,167.088 Z "/>
	<path fill="#FFFFFF" fill-opacity="1" stroke-width="2" stroke-linejoin="round" stroke="#000000" stroke-opacity="1" d="M 378.416,269.809C 378.415,269.809 395.734,263.338 402.075,258.671C 408.415,254.005 418.916,247.171 417.082,244.005C 415.249,240.838 396.416,228.671 373.749,228.005C 351.082,227.338 347.916,227.338 349.082,234.338C 350.249,241.338 353.249,251.171 360.749,256.672C 368.249,262.172 378.915,269.809 378.416,269.809 Z "/>
	<path fill="#FFFFFF" fill-opacity="1" stroke-width="2" stroke-linejoin="round" stroke="#000000" stroke-opacity="1" d="M 311.749,142.505C 312.103,143.084 342.182,126.25 345.382,118.628C 348.582,111.005 353.249,113.338 348.249,109.505C 343.249,105.672 333.915,106.672 333.915,106.672C 333.915,106.672 300.749,114.084 305.249,118.628C 309.749,123.172 303.749,131.672 303.749,131.672C 303.749,131.672 306.082,142.172 311.749,142.505 Z "/>
	<path fill="#FFFFFF" fill-opacity="1" stroke-width="2" stroke-linejoin="round" stroke="#000000" stroke-opacity="1" d="M 51.6667,628.864L 137.508,553.273C 137.508,553.273 150.667,545.015 130.333,539.695C 110,534.376 93.185,547.015 87,540.695C 80.815,534.376 56.3333,538.695 54.6667,539.029C 53,539.362 37.2442,534.376 24.1221,534.376C 11,534.376 1,546.029 1,546.029C 1,546.029 34.0395,624.699 43.0197,628.864C 52,633.029 51.3333,628.864 51.3333,628.864"/>
	<path fill="#000000" fill-opacity="1" stroke-width="2" stroke-linejoin="round" stroke="#000000" stroke-opacity="1" d="M 1017.14,364.297L 1042.22,326.502C 1042.22,326.502 1023.33,335.982 1023.33,345.399C 1023.33,354.817 1004.43,345.399 1004.43,345.399L 1017.14,364.297 Z "/>
	<path fill="#000000" fill-opacity="1" stroke-width="2" stroke-linejoin="round" stroke="#000000" stroke-opacity="1" d="M 349.392,242.192L 348.392,232.013C 348.392,232.013 362.267,249.38 365.392,250.911C 368.517,252.442 367.517,259.692 367.517,259.692C 367.517,259.692 379.346,260.567 380.807,260.567C 382.267,260.567 399.704,253.192 399.704,253.192L 399.704,258.817L 377.517,269.809C 377.517,269.809 371.517,269.067 368.392,265.942C 365.267,262.817 351.642,246.817 351.642,246.817L 349.392,242.192 Z "/>
	<path fill="#000000" fill-opacity="1" stroke-width="2" stroke-linejoin="round" stroke="#000000" stroke-opacity="1" d="M 418.602,237.15L 418.602,238.338L 418.602,242.775L 423.225,244.525L 422.6,238.838L 418.602,237.15 Z "/>
	<path fill="#000000" fill-opacity="1" stroke-width="2" stroke-linejoin="round" stroke="#000000" stroke-opacity="1" d="M 40.6492,628.864L 2.85388,534.376L 21.7515,553.273L 59.5468,621.004L 40.6491,628.864"/>
	<path fill="#000000" fill-opacity="1" stroke-width="2" stroke-linejoin="round" stroke="#000000" stroke-opacity="1" d="M 78.4444,609.966L 52.6212,553.273C 52.6212,553.273 78.4444,572.171 78.4444,591.069L 78.4444,609.966 Z "/>
	<path fill="#000000" fill-opacity="1" stroke-width="2" stroke-linejoin="round" stroke="#000000" stroke-opacity="1" d="M 78.4444,553.273C 78.4444,553.273 70.1212,577.004 100.871,572.171"/>
	<line fill="none" stroke-width="2" stroke-linejoin="round" stroke="#000000" stroke-opacity="1" x1="131.371" y1="553.273" x2="103.121" y2="585.838"/>
	<path fill="#000000" fill-opacity="1" stroke-width="2" stroke-linejoin="round" stroke="#000000" stroke-opacity="1" d="M 1047.08,183.921C 1047.08,183.921 1053.66,199.515 1061.12,194.218"/>
	<path fill="#000000" fill-opacity="1" stroke-width="2" stroke-linejoin="round" stroke="#000000" stroke-opacity="1" d="M 913.455,92.0045C 913.455,92.0045 928.838,91.921 928.838,98.0045C 928.838,104.088 927.663,99.7301 927.663,99.7301"/>
	<path fill="#000000" fill-opacity="1" stroke-width="2" stroke-linejoin="round" stroke="#000000" stroke-opacity="1" d="M 1029.07,24.1394L 1033.99,25.2599L 1032.82,26.6768L 1029.07,24.1394 Z "/>
	<path fill="#000000" fill-opacity="1" stroke-width="2" stroke-linejoin="round" stroke="#000000" stroke-opacity="1" d="M 998.449,43.0371C 998.449,43.0371 1013.45,37.4265 1015.12,32.7599C 1016.78,28.0934 1009.08,61.9265 1004.43,64.0934C 999.782,66.26 991.615,61.9347 991.615,61.9347L 998.449,43.0371 Z "/>
	<path fill="#000000" fill-opacity="1" stroke-width="2" stroke-linejoin="round" stroke="#000000" stroke-opacity="1" d="M 988.366,54.0115L 988.699,36.5115L 957.199,20.5117"/>
	<path fill="#000000" fill-opacity="1" stroke-width="2" stroke-linejoin="round" stroke="#000000" stroke-opacity="1" d="M 478.009,82.2603L 492.592,69.5935C 492.592,69.5938 477.925,69.0103 477.592,72.0104C 477.259,75.0104 477.925,81.8438 477.925,81.8438"/>
	<path fill="#000000" fill-opacity="1" stroke-width="2" stroke-linejoin="round" stroke="#000000" stroke-opacity="1" d="M 310.175,137.525L 327.175,118.628L 307.675,118.628L 307.509,135.552L 310.842,137.525"/>
	<path fill="#000000" fill-opacity="1" stroke-width="2" stroke-linejoin="round" stroke="#000000" stroke-opacity="1" d="M 418.602,164.302L 434.675,156.423L 442.175,165.802L 418.602,166.427L 418.602,164.302 Z "/>
	<path fill="#000000" fill-opacity="1" stroke-width="2" stroke-linejoin="round" stroke="#000000" stroke-opacity="1" d="M 106.096,495.96C 105.151,497.596 108.577,500.374 110.346,499.71C 110.736,499.564 111.104,499.299 111.346,498.96C 111.935,498.135 111.671,496.55 110.846,495.96C 110.566,495.761 110.187,495.753 109.846,495.71C 109.515,495.669 109.177,495.752 108.846,495.71C 108.505,495.668 108.188,495.429 107.846,495.46C 107.242,495.515 106.399,495.435 106.096,495.96 Z "/>
	<path fill="#000000" fill-opacity="1" stroke-width="2" stroke-linejoin="round" stroke="#000000" stroke-opacity="1" d="M 225.346,423.96C 224.259,423.96 223.5,425.108 222.596,425.71C 221.102,426.706 219.202,426.908 217.596,427.71C 215.429,428.794 213.002,432.195 214.346,434.21C 215.299,435.64 217.651,435.178 219.346,435.46C 220.998,435.736 222.684,436.168 224.346,435.96C 226.16,435.734 228.157,435.098 229.346,433.71C 230.485,432.382 230.583,429.698 229.346,428.46C 226.884,425.999 222.577,426.46 219.096,426.46"/>
	<path fill="#000000" fill-opacity="1" stroke-width="2" stroke-linejoin="round" stroke="#000000" stroke-opacity="1" d="M 947.668,134.47C 947.094,133.792 945.63,133.841 945.002,134.47C 944.373,135.098 944.891,136.255 945.002,137.137C 945.115,138.046 945.02,139.155 945.668,139.803C 946.316,140.451 947.477,140.148 948.335,140.47C 949.266,140.819 951.704,141.101 951.002,141.803C 950.2,142.604 948.539,141.862 947.668,141.137C 946.964,140.55 947.002,139.386 947.002,138.47C 947.002,137.118 948.542,135.501 947.668,134.47 Z "/>
	<path fill="#000000" fill-opacity="1" stroke-width="2" stroke-linejoin="round" stroke="#000000" stroke-opacity="1" d="M 1081.58,6.80322C 1081.92,6.88647 1082.25,6.96985 1082.58,7.05322C 1082.92,7.13647 1083.26,7.18262 1083.58,7.30322C 1084.58,7.67554 1086.5,8.7251 1085.83,9.55322C 1085.57,9.88501 1084.99,9.66895 1084.58,9.80322C 1084.23,9.92102 1083.92,10.1365 1083.58,10.3032"/>
	<path fill="#000000" fill-opacity="1" stroke-width="2" stroke-linejoin="round" stroke="#000000" stroke-opacity="1" d="M 1096.58,10.5532C 1096.83,10.8865 1096.99,11.322 1097.33,11.5532C 1097.77,11.8455 1098.33,11.8865 1098.83,12.0532"/>
	<path fill="#000000" fill-opacity="1" stroke-width="2" stroke-linejoin="round" stroke="#000000" stroke-opacity="1" d="M 269.502,8.21985C 267.818,8.64087 265.307,10.713 266.168,12.2198C 267.479,14.5129 270.996,14.3848 273.502,15.2198C 274.029,15.3956 274.284,16.2888 274.835,16.2198C 275.459,16.1418 275.82,15.4094 276.168,14.8865C 276.5,14.3887 276.592,13.7667 276.835,13.2198C 277.037,12.7657 277.246,12.3126 277.502,11.8865C 277.914,11.1995 278.364,10.5344 278.835,9.88647C 280.249,7.94263 283.356,6.23303 282.835,3.88647C 282.425,2.0426 279.709,1.45422 277.835,1.21985C 274.482,0.800781 270.224,0.49707 267.835,2.88647"/>
	<path fill="#000000" fill-opacity="1" stroke-width="2" stroke-linejoin="round" stroke="#000000" stroke-opacity="1" d="M 144.168,215.553C 145.194,217.604 148.375,217.803 150.668,217.803C 154.206,217.803 158.417,217.555 160.918,215.053C 161.72,214.252 162.519,212.764 161.918,211.803C 161.245,210.727 159.68,210.443 158.418,210.303C 156.168,210.053 153.932,209.553 151.668,209.553C 149.347,209.553 147.1,210.766 145.168,212.053"/>
	<path fill="#000000" fill-opacity="1" stroke-width="2" stroke-linejoin="round" stroke="#000000" stroke-opacity="1" d="M 1235.63,414.802C 1235.96,416.135 1236.33,417.46 1236.63,418.802C 1237,420.461 1237,422.223 1237.63,423.802C 1238.35,425.606 1239.26,427.427 1240.63,428.802C 1241.69,429.856 1243.14,430.802 1244.63,430.802C 1246.12,430.802 1247.77,430.015 1248.63,428.802C 1249.62,427.419 1249.26,425.461 1249.63,423.802C 1249.93,422.46 1250.46,421.165 1250.63,419.802C 1250.8,418.479 1251.57,416.744 1250.63,415.802C 1245.4,410.568 1234.55,414.361 1228.63,418.802"/>
	<path fill="#000000" fill-opacity="1" stroke-width="2" stroke-linejoin="round" stroke="#000000" stroke-opacity="1" d="M 1216.63,261.302C 1216.63,263.187 1219.3,266.635 1220.63,265.302C 1221.22,264.712 1220.63,263.635 1220.63,262.802C 1220.63,259.286 1217.62,256.288 1215.13,253.802"/>
	<path fill="#000000" fill-opacity="1" stroke-width="2" stroke-linejoin="round" stroke="#000000" stroke-opacity="1" d="M 1156.63,353.302C 1157.3,353.635 1157.93,354.04 1158.63,354.302C 1159.28,354.543 1159.99,354.56 1160.63,354.802C 1161.33,355.063 1161.91,355.621 1162.63,355.802C 1163.28,355.963 1164.16,356.273 1164.63,355.802C 1165.1,355.33 1164.63,354.468 1164.63,353.802"/>
	<path fill="#000000" fill-opacity="1" stroke-width="2" stroke-linejoin="round" stroke="#000000" stroke-opacity="1" d="M 1012.63,254.802C 1013.3,254.802 1013.96,254.802 1014.63,254.802C 1015.3,254.802 1015.96,254.802 1016.63,254.802"/>
	<path fill="#000000" fill-opacity="1" stroke-width="2" stroke-linejoin="round" stroke="#000000" stroke-opacity="1" d="M 1223.63,831.294C 1221.26,831.294 1218.55,834.496 1219.13,836.794C 1219.6,838.68 1222.44,840.759 1224.13,839.794C 1227.52,837.859 1230.47,831.916 1228.13,828.794C 1225.97,825.916 1221.12,825.422 1217.63,826.294"/>
</svg>
