<?xml version="1.0" encoding="utf-8"?>
<!DOCTYPE svg PUBLIC "-//W3C//DTD SVG 1.1//EN" "http://www.w3.org/Graphics/SVG/1.1/DTD/svg11.dtd">
<svg xmlns="http://www.w3.org/2000/svg" xmlns:xlink="http://www.w3.org/1999/xlink" version="1.1" baseProfile="full" width="308.052" height="299.008" viewBox="0 0 308.05 299.01" enable-background="new 0 0 308.05 299.01" xml:space="preserve">
	<g>
		<path fill="#FFFFFF" fill-opacity="1" stroke-linejoin="round" stroke="#000000" stroke-opacity="1" d="M 104.292,60.436L 73.4176,51.2656L 24.625,17.6021C 24.625,17.6016 12.5625,8.29053 11.125,8.3833C 9.6875,8.47705 8.21875,8.54834 9.46875,11.0083C 10.7188,13.4692 7.125,8.7583 7.125,8.7583C 7.125,8.75781 2.78125,10.1499 4.78125,13.4692C 4.78125,13.4692 0.8125,11.1499 0.5,13.4692C 0.1875,15.7896 1.80212,16.7695 2.17712,17.519C 2.55212,18.269 0.708374,18.8945 1.45837,19.9878C 2.20837,21.0815 20.5883,46.061 35.6222,53.6855C 50.6563,61.3105 77.457,92.7485 111.213,101.998C 144.969,111.248 118.052,81.7065 118.052,81.7065L 104.292,60.436 Z "/>
		<path fill="#FFFFFF" fill-opacity="1" stroke-linejoin="round" stroke="#000000" stroke-opacity="1" d="M 167.906,174.29C 167.906,177.416 128.594,173.04 127.469,174.04C 126.344,175.041 161.177,211.082 162.01,215.082C 162.844,219.082 167.906,219.082 167.906,219.082C 167.906,219.082 176.177,224.748 174.51,231.582C 172.844,238.416 177.344,264.915 177.177,264.748C 156.344,266.582 155.844,240.242 152.844,236.248C 149.844,232.255 118.344,205.915 108.844,202.446C 99.3438,198.978 73.4176,174.332 65.7188,161.582C 58.02,148.832 70.0938,138.832 80.7188,136.832C 91.3438,134.832 130.11,126.855 130.11,126.855L 138.844,125.332L 195.885,132.082C 195.885,132.082 228.885,189.582 233.635,198.832C 238.385,208.082 293.802,243.498 293.802,243.499C 293.802,243.499 306.052,247.531 305.552,259.139C 305.052,270.748 307.552,292.998 307.552,292.998C 307.552,292.998 305.577,302.121 300.189,296.934C 294.802,291.748 281.292,279.249 281.292,273.998C 281.292,268.748 255.802,255.748 255.802,255.748C 255.802,255.748 160.385,191.832 160.885,157.332"/>
		<path fill="none" stroke-linejoin="round" stroke="#000000" stroke-opacity="1" d="M 111.213,60.9155C 111.213,60.9146 104.415,40.6948 111.213,27.082C 118.01,13.4692 120.544,13.4702 130.11,32.3672C 139.677,51.2637 134.244,66.2446 132.177,70.1626C 130.11,74.0815 114.844,70.1626 114.844,70.1626L 111.213,60.9155 Z "/>
		<path fill="#5B5B5B" fill-opacity="1" stroke-linejoin="round" stroke="#000000" stroke-opacity="1" d="M 118.01,17.082C 118.003,17.1099 132.573,7.39502 142.51,18.082C 152.448,28.769 157.198,62.3735 150.885,67.123C 144.573,71.873 130.11,71.4355 130.11,71.4355C 130.11,71.4355 137.198,70.9985 134.885,44.6855C 134.823,44.6226 130.865,31.457 125.948,24.3315C 121.031,17.2065 120.281,17.3726 118.01,17.082 Z "/>
		<path fill="none" stroke-linejoin="round" stroke="#000000" stroke-opacity="1" d="M 156.156,55.082C 156.156,55.082 162.031,36.4448 158.156,24.957C 154.281,13.4692 133.781,-2.29297 114.531,0.831543C 95.2813,3.95654 83.4742,30.082 92.3151,44.4565C 101.156,58.8315 104.281,62.5815 104.281,62.5815"/>
		<path fill="#FFFFFF" fill-opacity="1" stroke-linejoin="round" stroke="#000000" stroke-opacity="1" d="M 173.26,85.7485C 173.26,85.7485 176.972,99.8325 186.803,111.582C 196.635,123.332 204.01,135.457 204.01,135.457C 204.01,135.457 165.552,157.463 121.719,126.855C 121.885,126.855 94.5521,73.9155 100.885,60.248C 101.26,60.4976 111.677,68.332 132.094,64.9146C 152.51,61.498 158.927,59.8315 158.927,59.8315"/>
		<path fill="#FFFFFF" fill-opacity="1" stroke-linejoin="round" stroke="#000000" stroke-opacity="1" d="M 155.76,56.3315C 155.76,56.3315 171.528,54.0015 188.615,62.082C 205.701,70.1626 219.365,86.957 229.281,96.0396C 239.198,105.123 255.99,126.416 254.115,132.915C 252.24,139.415 251.865,138.166 251.427,137.352C 250.99,136.54 251.24,141.666 249.99,142.727C 248.74,143.79 246.927,138.727 246.927,138.727C 246.927,138.727 248.552,142.452 248.302,144.102C 248.052,145.753 243.496,148.728 243.496,146.477C 243.496,144.226 242.156,156.311 238.781,152.686C 235.406,149.061 237.844,137.811 237.844,137.811L 235.656,136.686C 235.656,136.686 236.156,144.811 233.594,144.436C 231.031,144.061 230.031,140.016 228.031,133.436C 226.031,126.855 225.802,126.855 225.802,126.855C 225.802,126.855 211.035,109.749 204.469,103.665C 197.903,97.5801 175.093,88.6655 167.906,90.748"/>
		<path fill="#FFFFFF" fill-opacity="1" stroke-linejoin="round" stroke="#000000" stroke-opacity="1" d="M 158.073,50.603L 159.323,60.603C 159.323,60.6021 142.24,68.4155 127.74,68.3521C 113.24,68.2896 100.365,62.7271 100.365,62.7271L 100.177,56.0396C 100.177,56.0396 106.356,65.0405 130.11,62.9771C 153.865,60.9146 158.24,50.4771 158.073,50.603 Z "/>
	</g>
</svg>
