<?xml version="1.0" encoding="utf-8"?>
<!DOCTYPE svg PUBLIC "-//W3C//DTD SVG 1.1//EN" "http://www.w3.org/Graphics/SVG/1.1/DTD/svg11.dtd">
<svg xmlns="http://www.w3.org/2000/svg" xmlns:xlink="http://www.w3.org/1999/xlink" version="1.1" baseProfile="full" width="871.292" height="611.037" viewBox="0 0 871.29 611.04" enable-background="new 0 0 871.29 611.04" xml:space="preserve">
	<g>
		<path fill="#FFFFFF" fill-opacity="1" stroke-width="2" stroke-linejoin="round" stroke="#000000" stroke-opacity="1" d="M 38.7953,256.809C 38.7953,256.809 48.3982,198.152 66.3981,193.652C 84.3981,189.152 76.5906,158.881 76.5906,151.152C 76.5906,143.424 19.8976,162.321 19.8976,162.321L 1.00002,151.152C 1.00002,151.152 4.89864,200.116 12.3981,200.116C 19.8976,200.116 19.8976,237.912 19.8976,237.912L 38.7953,256.809 Z "/>
		<path fill="#FFFFFF" fill-opacity="1" stroke-width="2" stroke-linejoin="round" stroke="#000000" stroke-opacity="1" d="M 33.6444,509.474C 33.6443,509.474 92.9777,506.641 97.811,506.308C 102.644,505.974 90.9777,543.444 87.1443,551.308C 83.311,559.172 70.9291,580.331 64.311,578.069C 57.6929,575.808 38.7953,540.274 38.7953,540.274L 33.6444,509.474 Z "/>
		<path fill="#000000" fill-opacity="1" stroke-width="2" stroke-linejoin="round" stroke="#000000" stroke-opacity="1" d="M 44.1389,521.376L 74.3055,540.274L 74.1388,573.347L 63.1388,571.681L 44.1389,521.376 Z "/>
		<path fill="#000000" fill-opacity="1" stroke-width="2" stroke-linejoin="round" stroke="#000000" stroke-opacity="1" d="M 19.8977,169.347L 43.4725,200.116L 38.7953,228.347L 33.2225,241.847C 33.2225,241.847 20.7225,193.847 15.9725,193.847C 11.2225,193.847 8.2225,169.847 8.2225,169.847L 19.8977,169.347 Z "/>
		<path fill="#FFFFFF" fill-opacity="1" stroke-width="2" stroke-linejoin="round" stroke="#000000" stroke-opacity="1" d="M 700.304,524.701C 699.857,524.426 707.304,534.122 709.137,534.122C 710.97,534.122 716.637,534.122 716.637,534.122C 716.637,534.122 722.47,523.511 721.304,519.368C 720.137,515.225 706.574,521.035 700.304,524.701 Z "/>
		<path fill="#FFFFFF" fill-opacity="1" stroke-width="2" stroke-linejoin="round" stroke="#000000" stroke-opacity="1" d="M 642.054,401.839C 642.054,401.839 650.923,408.393 656.238,401.839C 661.554,395.284 669.804,370.534 669.804,370.534L 618.443,352.534L 605.304,358.284L 607.554,368.034L 642.054,401.839 Z "/>
		<path fill="#FFFFFF" fill-opacity="1" stroke-width="2" stroke-linejoin="round" stroke="#000000" stroke-opacity="1" d="M 571.804,443.076C 571.804,443.076 577.721,444.109 581.804,439.634C 585.887,435.159 575.72,433.326 572.137,430.493C 568.554,427.659 563.97,429.076 563.554,431.159C 563.137,433.243 565.804,439.634 565.804,439.634L 571.804,443.076 Z "/>
		<path fill="#FFFFFF" fill-opacity="1" stroke-width="2" stroke-linejoin="round" stroke="#000000" stroke-opacity="1" d="M 396.989,80.8325C 396.989,80.8326 395.155,87.0049 400.489,87.005C 405.822,87.0051 418.822,78.6716 419.322,73.0051C 419.822,67.3384 411.155,68.005 408.822,67.8384C 406.489,67.6718 396.989,80.8326 396.989,80.8325 Z "/>
		<path fill="#FFFFFF" fill-opacity="1" stroke-width="2" stroke-linejoin="round" stroke="#000000" stroke-opacity="1" d="M 336.989,87.9216L 335.655,93.255C 335.655,93.2551 338.155,98.0884 342.822,92.7551C 347.489,87.4218 340.296,84.2551 340.296,84.2551L 336.989,87.9216 Z "/>
		<path fill="#FFFFFF" fill-opacity="1" stroke-width="2" stroke-linejoin="round" stroke="#000000" stroke-opacity="1" d="M 340.296,167.088C 340.296,167.088 362.481,194.218 359.193,194.218C 355.905,194.219 380.072,163.922 380.405,158.588C 380.739,153.255 358.072,159.088 351.239,163.255C 344.405,167.422 340.296,167.755 340.296,167.088 Z "/>
		<path fill="#FFFFFF" fill-opacity="1" stroke-width="2" stroke-linejoin="round" stroke="#000000" stroke-opacity="1" d="M 297.739,269.809C 297.739,269.809 315.057,263.338 321.398,258.672C 327.739,254.005 338.239,247.172 336.405,244.005C 334.572,240.838 315.739,228.672 293.072,228.005C 270.405,227.339 267.239,227.338 268.405,234.338C 269.572,241.338 272.572,251.172 280.072,256.672C 287.572,262.172 298.239,269.809 297.739,269.809 Z "/>
		<path fill="#FFFFFF" fill-opacity="1" stroke-width="2" stroke-linejoin="round" stroke="#000000" stroke-opacity="1" d="M 231.072,142.505C 231.426,143.084 261.505,126.251 264.705,118.628C 267.905,111.005 272.572,113.338 267.572,109.505C 262.572,105.672 253.239,106.672 253.239,106.672C 253.239,106.672 220.072,114.084 224.572,118.628C 229.072,123.172 223.072,131.672 223.072,131.672C 223.072,131.672 225.405,142.172 231.072,142.505 Z "/>
		<path fill="#000000" fill-opacity="1" stroke-width="2" stroke-linejoin="round" stroke="#000000" stroke-opacity="1" d="M 268.715,242.192L 267.715,232.013C 267.715,232.013 281.59,249.38 284.715,250.911C 287.84,252.442 286.84,259.692 286.84,259.692C 286.84,259.692 298.669,260.567 300.13,260.567C 301.59,260.567 319.027,253.192 319.027,253.192L 319.027,258.817L 296.84,269.809C 296.84,269.809 290.84,269.067 287.715,265.942C 284.59,262.817 270.965,246.817 270.965,246.817L 268.715,242.192 Z "/>
		<path fill="#000000" fill-opacity="1" stroke-width="2" stroke-linejoin="round" stroke="#000000" stroke-opacity="1" d="M 337.925,237.15L 337.925,238.338L 337.925,242.775L 342.548,244.525L 341.923,238.838L 337.925,237.15 Z "/>
		<path fill="#000000" fill-opacity="1" stroke-width="2" stroke-linejoin="round" stroke="#000000" stroke-opacity="1" d="M 445.653,236.171C 445.653,236.171 444.403,244.838 444.986,244.838C 445.569,244.838 450.986,240.338 449.819,239.088C 448.653,237.838 445.569,235.838 445.653,236.171 Z "/>
		<path fill="#000000" fill-opacity="1" stroke-width="2" stroke-linejoin="round" stroke="#000000" stroke-opacity="1" d="M 696.519,523.825C 696.519,523.825 703.103,539.419 710.561,534.122"/>
		<path fill="#000000" fill-opacity="1" stroke-width="2" stroke-linejoin="round" stroke="#000000" stroke-opacity="1" d="M 562.894,431.908C 562.894,431.908 578.277,431.825 578.277,437.908C 578.277,443.992 577.102,439.634 577.102,439.634"/>
		<path fill="#000000" fill-opacity="1" stroke-width="2" stroke-linejoin="round" stroke="#000000" stroke-opacity="1" d="M 678.513,364.043L 683.429,365.164L 682.263,366.581L 678.513,364.043 Z "/>
		<path fill="#000000" fill-opacity="1" stroke-width="2" stroke-linejoin="round" stroke="#000000" stroke-opacity="1" d="M 647.888,382.941C 647.888,382.941 662.888,377.33 664.554,372.664C 666.221,367.997 658.514,401.83 653.868,403.997C 649.221,406.164 641.054,401.839 641.054,401.839L 647.888,382.941 Z "/>
		<path fill="#000000" fill-opacity="1" stroke-width="2" stroke-linejoin="round" stroke="#000000" stroke-opacity="1" d="M 637.805,393.915L 638.138,376.415L 606.638,360.416"/>
		<path fill="#000000" fill-opacity="1" stroke-width="2" stroke-linejoin="round" stroke="#000000" stroke-opacity="1" d="M 397.332,82.2603L 411.915,69.5935C 411.915,69.5936 397.249,69.0103 396.915,72.0103C 396.582,75.0103 397.249,81.8436 397.249,81.8436"/>
		<path fill="#000000" fill-opacity="1" stroke-width="2" stroke-linejoin="round" stroke="#000000" stroke-opacity="1" d="M 229.499,137.525L 246.499,118.628L 226.999,118.628L 226.832,135.552L 230.165,137.525"/>
		<path fill="#000000" fill-opacity="1" stroke-width="2" stroke-linejoin="round" stroke="#000000" stroke-opacity="1" d="M 337.925,164.302L 353.999,156.423L 361.499,165.802L 337.925,166.427L 337.925,164.302 Z "/>
		<path fill="#000000" fill-opacity="1" stroke-width="2" stroke-linejoin="round" stroke="#000000" stroke-opacity="1" d="M 383.273,278.794C 383.273,280.303 382.868,282.086 383.773,283.294C 384.023,283.627 384.362,284.112 384.773,284.044C 385.141,283.982 385.107,283.377 385.273,283.044C 385.44,282.71 385.683,282.405 385.773,282.044C 385.854,281.72 385.773,281.377 385.773,281.044C 385.773,280.627 385.819,280.208 385.773,279.794C 385.735,279.452 385.607,279.127 385.523,278.794"/>
		<path fill="#000000" fill-opacity="1" stroke-width="2" stroke-linejoin="round" stroke="#000000" stroke-opacity="1" d="M 450.775,607.787C 451.905,608.465 452.791,609.574 454.025,610.037C 455.072,610.43 456.048,609.08 457.025,608.537C 457.45,608.301 457.955,608.153 458.275,607.787C 458.57,607.449 458.884,606.972 458.775,606.537C 458.674,606.133 458.148,605.973 457.775,605.787C 457.468,605.633 457.108,605.62 456.775,605.537"/>
		<path fill="#000000" fill-opacity="1" stroke-width="2" stroke-linejoin="round" stroke="#000000" stroke-opacity="1" d="M 597.107,474.374C 596.533,473.696 595.069,473.745 594.441,474.374C 593.812,475.002 594.33,476.159 594.441,477.04C 594.554,477.95 594.459,479.059 595.107,479.707C 595.755,480.355 596.916,480.052 597.774,480.374C 598.705,480.723 601.143,481.005 600.441,481.707C 599.639,482.508 597.978,481.766 597.107,481.04C 596.404,480.454 596.441,479.29 596.441,478.374C 596.441,477.022 597.981,475.405 597.107,474.374 Z "/>
		<path fill="#000000" fill-opacity="1" stroke-width="2" stroke-linejoin="round" stroke="#000000" stroke-opacity="1" d="M 731.024,346.707C 731.357,346.79 731.691,346.874 732.024,346.957C 732.357,347.04 732.702,347.087 733.024,347.207C 734.017,347.579 735.937,348.629 735.274,349.457C 735.009,349.789 734.427,349.573 734.024,349.707C 733.67,349.825 733.357,350.04 733.024,350.207"/>
		<path fill="#000000" fill-opacity="1" stroke-width="2" stroke-linejoin="round" stroke="#000000" stroke-opacity="1" d="M 746.024,350.457C 746.274,350.79 746.427,351.226 746.774,351.457C 747.213,351.749 747.774,351.79 748.274,351.957"/>
		<path fill="#000000" fill-opacity="1" stroke-width="2" stroke-linejoin="round" stroke="#000000" stroke-opacity="1" d="M 188.825,8.21985C 187.141,8.64087 184.63,10.7129 185.491,12.2198C 186.802,14.5129 190.319,14.3846 192.825,15.2198C 193.352,15.3955 193.607,16.2888 194.158,16.2198C 194.782,16.1418 195.143,15.4094 195.491,14.8865C 195.823,14.3887 195.915,13.7666 196.158,13.2198C 196.36,12.7657 196.569,12.3126 196.825,11.8865C 197.237,11.1995 197.687,10.5344 198.158,9.88647C 199.572,7.94263 202.68,6.23291 202.158,3.88647C 201.748,2.0426 199.032,1.4541 197.158,1.21985C 193.805,0.800659 189.548,0.496948 187.158,2.88647"/>
		<path fill="#000000" fill-opacity="1" stroke-width="2" stroke-linejoin="round" stroke="#000000" stroke-opacity="1" d="M 63.4914,215.553C 64.5168,217.604 67.6986,217.803 69.9914,217.803C 73.5289,217.803 77.74,217.555 80.2414,215.053C 81.0429,214.252 81.8421,212.764 81.2414,211.803C 80.5687,210.727 79.0029,210.443 77.7414,210.303C 75.4914,210.053 73.2553,209.553 70.9914,209.553C 68.67,209.553 66.4229,210.766 64.4914,212.053"/>
		<path fill="#000000" fill-opacity="1" stroke-width="2" stroke-linejoin="round" stroke="#000000" stroke-opacity="1" d="M 866.071,601.205C 866.071,603.091 868.737,606.539 870.071,605.205C 870.66,604.616 870.071,603.539 870.071,602.705C 870.071,599.19 867.057,596.192 864.571,593.705"/>
		<path fill="#000000" fill-opacity="1" stroke-width="2" stroke-linejoin="round" stroke="#000000" stroke-opacity="1" d="M 662.071,594.705C 662.737,594.705 663.404,594.705 664.071,594.705C 664.737,594.705 665.404,594.705 666.071,594.705"/>
	</g>
</svg>
