<?xml version="1.0" encoding="utf-8"?>
<!DOCTYPE svg PUBLIC "-//W3C//DTD SVG 1.1//EN" "http://www.w3.org/Graphics/SVG/1.1/DTD/svg11.dtd">
<svg xmlns="http://www.w3.org/2000/svg" xmlns:xlink="http://www.w3.org/1999/xlink" version="1.1" baseProfile="full" width="1305.38" height="871.291" viewBox="0 0 1305.38 871.29" enable-background="new 0 0 1305.38 871.29" xml:space="preserve">
	<g>
		<path fill="#FFFFFF" fill-opacity="1" stroke-width="2" stroke-linejoin="round" stroke="#000000" stroke-opacity="1" d="M 559.158,183.705L 622.064,171.079L 628.063,57.6929L 634.748,46.2046C 634.748,46.2046 540.26,38.7954 521.362,57.6929L 521.362,76.5908L 559.158,183.705 Z "/>
		<path fill="#FFFFFF" fill-opacity="1" stroke-width="2" stroke-linejoin="round" stroke="#000000" stroke-opacity="1" d="M 691.441,257.779L 721.468,227.772L 729.236,246.669L 710.339,257.279L 767.031,208.874L 773.468,227.771L 729.236,265.567L 748.134,272.779L 861.52,208.874L 867.967,227.771L 748.134,310.779C 748.134,310.779 720.914,274.279 691.441,257.779 Z "/>
		<path fill="#FFFFFF" fill-opacity="1" stroke-width="2" stroke-linejoin="round" stroke="#000000" stroke-opacity="1" d="M 816.479,227.772L 974.906,120.443L 967.48,114.386L 937.11,121.942L 926.98,95.4883L 823.724,159.442L 823.724,197.442L 804.827,208.874L 813.979,227.771"/>
		<path fill="#FFFFFF" fill-opacity="1" stroke-width="2" stroke-linejoin="round" stroke="#000000" stroke-opacity="1" d="M 767.032,103.943L 797.979,114.386L 804.827,103.442L 823.724,114.386L 926.48,32.4424L 873.48,1L 767.031,101.442"/>
		<path fill="#FFFFFF" fill-opacity="1" stroke-width="2" stroke-linejoin="round" stroke="#000000" stroke-opacity="1" d="M 604.479,227.772L 634.748,227.772L 672.543,76.5908L 691.441,76.5908L 738.479,1L 710.339,1L 672.543,50.4424L 626.979,219.442L 604.479,227.772 Z "/>
		<path fill="#FFFFFF" fill-opacity="1" stroke-width="2" stroke-linejoin="round" stroke="#000000" stroke-opacity="1" d="M 540.26,196.776L 426.874,1C 426.874,1 433.541,1 439.656,1C 445.772,1 552.156,189.977 552.156,189.977L 540.26,201.275"/>
		<path fill="#FFFFFF" fill-opacity="1" stroke-width="2" stroke-linejoin="round" stroke="#000000" stroke-opacity="1" d="M 247.333,160.271L 445.772,284.465C 445.772,284.465 416.333,310.283 417.833,316.271C 419.333,322.26 190.833,227.771 190.833,227.771C 190.833,227.771 200.076,166.361 247.333,159.271"/>
		<path fill="#FFFFFF" fill-opacity="1" stroke-width="2" stroke-linejoin="round" stroke="#000000" stroke-opacity="1" d="M 286.333,208.874L 275.693,199.271L 294.591,171.079L 231.333,124.771L 210.833,146.271L 86.7166,76.5908L 97.3334,57.6929L 219,121.771L 229.333,105.771L 313.488,171.079L 286.333,208.874 Z "/>
		<path fill="#FFFFFF" fill-opacity="1" stroke-width="2" stroke-linejoin="round" stroke="#000000" stroke-opacity="1" d="M 1,162.771L 23,208.874L 135.5,257.771L 143.409,284.465L 320.5,354.271L 362.5,360.055L 370.181,350.271L 154,265.567L 143.409,227.771L 1,162.771 Z "/>
		<path fill="#FFFFFF" fill-opacity="1" stroke-width="2" stroke-linejoin="round" stroke="#000000" stroke-opacity="1" d="M 359.5,378.953L 256.795,350.521L 230.5,389.271L 38.6667,341.157L 86.7166,390.521L 219,416.748L 256.795,397.851L 357.167,416.748L 362.667,407.521L 305.667,397.851L 313.488,387.021L 363.167,397.851L 359.5,378.953 Z "/>
		<path fill="#FFFFFF" fill-opacity="1" stroke-width="2" stroke-linejoin="round" stroke="#000000" stroke-opacity="1" d="M 500.563,589.053C 500.563,589.053 486.938,608.054 479.188,610.803C 471.438,613.552 475.688,606.928 471.063,610.052C 466.438,613.177 453.603,626.567 449.688,624.622C 445.772,622.677 437.313,610.803 433.938,615.177C 430.563,619.552 417.438,631.233 413.688,627.927C 409.938,624.622 409.688,617.678 412.688,616.302C 415.688,614.927 386.521,586.826 386.521,586.826L 387.396,559.927C 387.396,559.927 374.771,549.928 378.021,545.427C 381.271,540.927 374.229,542.47 374.104,539.719C 373.979,536.969 390.729,513.636 390.729,513.636"/>
		<path fill="#FFFFFF" fill-opacity="1" stroke-width="2" stroke-linejoin="round" stroke="#000000" stroke-opacity="1" d="M 502.465,586.826C 502.465,586.826 445.771,586.826 389.079,511.236C 389.079,511.236 454.179,517.966 502.465,586.827"/>
		<path fill="#FFFFFF" fill-opacity="1" stroke-width="2" stroke-linejoin="round" stroke="#000000" stroke-opacity="1" d="M 678.479,586.827C 678.479,586.826 691.479,545.804 715.479,564.303C 714.979,563.552 793.146,657.052 793.146,657.052L 825.646,712.552L 760.813,756.905L 718.479,694.219L 678.479,586.827 Z "/>
		<path fill="#FFFFFF" fill-opacity="1" stroke-width="2" stroke-linejoin="round" stroke="#000000" stroke-opacity="1" d="M 909.462,700.213L 937.11,719.111L 974.905,775.803C 974.905,775.803 918.213,839.368 861.52,870.291L 823.724,813.598L 804.827,788.715L 909.462,700.213 Z "/>
		<path fill="#FFFFFF" fill-opacity="1" stroke-width="2" stroke-linejoin="round" stroke="#000000" stroke-opacity="1" d="M 743.807,629.39L 793.14,579.723L 899.315,662.417L 866.474,662.417L 794.14,598.056L 752.807,637.056L 743.807,629.39 Z "/>
		<path fill="#FFFFFF" fill-opacity="1" stroke-width="2" stroke-linejoin="round" stroke="#000000" stroke-opacity="1" d="M 540.26,624.623L 540.26,671.556L 596.953,662.417L 596.953,728.222L 653.646,727.556L 663.974,756.905L 701.307,803.556L 672.543,700.212L 615.85,710.222L 606.641,648.889L 550.807,660.056L 544.974,624.622L 540.26,624.623 Z "/>
		<path fill="#FFFFFF" fill-opacity="1" stroke-width="2" stroke-linejoin="round" stroke="#000000" stroke-opacity="1" d="M 475.307,825.556L 496.307,826.89L 544.307,700.212L 489.974,687.889L 521.362,633.889L 502.465,632.889L 468.641,692.556L 526.641,713.556L 475.307,825.556 Z "/>
		<path fill="#FFFFFF" fill-opacity="1" stroke-width="2" stroke-linejoin="round" stroke="#000000" stroke-opacity="1" d="M 449.813,643.52L 445.883,644.183L 426.874,647.393L 389.079,681.314L 321.479,681.314L 284.813,690.392L 210.146,766.726L 223.479,785.726L 294.591,706.059L 364.813,700.212L 389.079,693.392L 411.813,695.392L 449.813,643.52 Z "/>
		<path fill="#FFFFFF" fill-opacity="1" stroke-width="2" stroke-linejoin="round" stroke="#000000" stroke-opacity="1" d="M 379.485,662.417L 294.591,756.906L 389.079,756.905L 332.386,813.598L 370.181,832.496L 407.976,738.007L 340.818,728.755L 389.079,662.417L 379.485,662.417 Z "/>
		<path fill="#FFFFFF" fill-opacity="1" stroke-width="2" stroke-linejoin="round" stroke="#000000" stroke-opacity="1" d="M 332.386,605.725L 275.693,652.092L 245.827,624.622L 86.7166,726.758L 48.9213,706.758L 157.827,631.425L 143.409,613.758L 186.161,591.758L 211.494,605.724L 237.898,582.425L 275.693,624.622L 313.488,598.425L 332.386,605.725 Z "/>
		<path fill="#FFFFFF" fill-opacity="1" stroke-width="2" stroke-linejoin="round" stroke="#000000" stroke-opacity="1" d="M 899.315,530.134L 937.11,511.236L 1115.23,549.031L 1081.9,595.591L 1239.47,617.257L 1220.57,662.417L 1069.39,605.724L 1077.23,560.257L 937.11,522.758L 918.213,537.258L 947.231,549.031L 930.731,567.929L 880.417,537.258L 861.52,521.258L 880.417,511.236L 899.315,530.134 Z "/>
		<path fill="#FFFFFF" fill-opacity="1" stroke-width="2" stroke-linejoin="round" stroke="#000000" stroke-opacity="1" d="M 964.546,397.851L 974.906,378.953L 1258.37,341.157L 1258.37,378.953L 1107.19,378.953L 1107.19,397.851L 1144.98,424.936L 964.546,397.851 Z "/>
		<path fill="#FFFFFF" fill-opacity="1" stroke-width="2" stroke-linejoin="round" stroke="#000000" stroke-opacity="1" d="M 880.417,303.362L 993.803,265.567L 993.803,199.114L 1012.7,189.977L 1012.7,246.669L 1296.17,142.448L 1304.38,171.079L 1220.57,189.977L 1211.05,265.567L 1163.88,265.567L 1175.05,208.874L 1031.6,274.448L 1031.6,322.26L 1012.7,330.448L 993.803,284.465L 918.213,322.26L 880.417,303.362 Z "/>
		<line fill="none" stroke-width="2" stroke-linejoin="round" stroke="#000000" stroke-opacity="1" x1="854.531" y1="851.394" x2="908.531" y2="813.599"/>
		<path fill="#FFFFFF" fill-opacity="1" stroke-width="2" stroke-linejoin="round" stroke="#000000" stroke-opacity="1" d="M 835.781,826.406L 899.315,780.406L 918.213,806.405"/>
		<line fill="none" stroke-width="2" stroke-linejoin="round" stroke="#000000" stroke-opacity="1" x1="930.781" y1="719.111" x2="847.031" y2="794.701"/>
		<line fill="none" stroke-width="2" stroke-linejoin="round" stroke="#000000" stroke-opacity="1" x1="909.526" y1="775.804" x2="968.692" y2="780.737"/>
		<line fill="none" stroke-width="2" stroke-linejoin="round" stroke="#000000" stroke-opacity="1" x1="767.032" y1="730.32" x2="800.775" y2="709.987"/>
		<line fill="none" stroke-width="2" stroke-linejoin="round" stroke="#000000" stroke-opacity="1" x1="763.775" y1="714.32" x2="795.275" y2="692.82"/>
		<line fill="none" stroke-width="2" stroke-linejoin="round" stroke="#000000" stroke-opacity="1" x1="742.275" y1="700.213" x2="794.275" y2="683.82"/>
		<line fill="none" stroke-width="2" stroke-linejoin="round" stroke="#000000" stroke-opacity="1" x1="744.775" y1="691.654" x2="777.775" y2="671.154"/>
		<path fill="none" stroke-width="2" stroke-linejoin="round" stroke="#000000" stroke-opacity="1" d="M 720.442,695.654C 720.442,695.654 760.275,653.349 794.942,662.417"/>
		<path fill="#000000" fill-opacity="1" stroke-width="2" stroke-linejoin="round" stroke="#000000" stroke-opacity="1" d="M 730.359,657.82L 761.525,643.52C 761.525,643.519 755.826,621.987 748.134,621.986C 740.442,621.986 719.275,639.736 719.275,639.736L 727.109,656.653L 730.359,657.82 Z "/>
		<path fill="none" stroke-width="2" stroke-linejoin="round" stroke="#000000" stroke-opacity="1" d="M 710.339,628.612L 738.317,611.737L 729.236,596.361C 729.236,596.361 712.817,597.237 708.817,603.361C 704.817,609.486 708.567,626.611 708.567,626.611L 710.339,628.612 Z "/>
		<path fill="none" stroke-width="2" stroke-linejoin="round" stroke="#000000" stroke-opacity="1" d="M 698.317,602.112L 720.192,584.612L 713.942,577.111C 713.942,577.111 694.942,581.417 694.192,586.826C 693.442,592.236 698.567,601.736 698.317,602.112 Z "/>
		<line fill="none" stroke-width="2" stroke-linejoin="round" stroke="#000000" stroke-opacity="1" x1="799.609" y1="593.654" x2="874.109" y2="653.487"/>
		<path fill="none" stroke-width="2" stroke-linejoin="round" stroke="#000000" stroke-opacity="1" d="M 602.109,658.904L 606.609,719.111L 658.359,713.153"/>
		<line fill="none" stroke-width="2" stroke-linejoin="round" stroke="#000000" stroke-opacity="1" x1="667.359" y1="715.654" x2="669.359" y2="752.404"/>
		<line fill="none" stroke-width="2" stroke-linejoin="round" stroke="#000000" stroke-opacity="1" x1="642.109" y1="716.154" x2="641.359" y2="719.111"/>
		<line fill="none" stroke-width="2" stroke-linejoin="round" stroke="#000000" stroke-opacity="1" x1="509.275" y1="636.237" x2="483.567" y2="687.904"/>
		<path fill="#000000" fill-opacity="1" stroke-width="2" stroke-linejoin="round" stroke="#000000" stroke-opacity="1" d="M 502.465,693.154L 532.15,709.904L 500.025,700.212L 502.465,693.154 Z "/>
		<path fill="none" stroke-width="2" stroke-linejoin="round" stroke="#000000" stroke-opacity="1" d="M 432.9,655.654L 403.4,684.904L 306.65,696.903"/>
		<path fill="#000000" fill-opacity="1" stroke-width="2" stroke-linejoin="round" stroke="#000000" stroke-opacity="1" d="M 345.15,711.904L 318.9,753.154L 351.283,744.153L 332.386,734.153"/>
		<path fill="#000000" fill-opacity="1" stroke-width="2" stroke-linejoin="round" stroke="#000000" stroke-opacity="1" d="M 426.874,586.827L 398.734,562.57C 398.734,562.57 396.389,576.82 392.734,579.82C 389.079,582.82 416.984,608.82 416.984,608.82C 416.984,608.82 413.484,626.07 418.484,620.82C 423.484,615.57 437.484,605.724 437.484,605.724L 445.772,594.32L 426.874,586.827 Z "/>
		<path fill="#000000" fill-opacity="1" stroke-width="2" stroke-linejoin="round" stroke="#000000" stroke-opacity="1" d="M 488.734,590.32L 464.669,602.32L 477.734,605.724L 489.734,586.826"/>
		<path fill="#000000" fill-opacity="1" stroke-width="2" stroke-linejoin="round" stroke="#000000" stroke-opacity="1" d="M 988.419,389.8L 1073.42,376.133L 1069.39,391.133L 985.752,397.851"/>
		<path fill="#000000" fill-opacity="1" stroke-width="2" stroke-linejoin="round" stroke="#000000" stroke-opacity="1" d="M 1005.34,259.633C 1005.34,259.633 1006.01,259.677 1007.1,259.752C 1011.82,260.075 1024.3,260.977 1023.09,261.383C 1021.59,261.883 1019.84,271.383 1019.84,271.383L 1002.59,274.383"/>
		<path fill="#000000" fill-opacity="1" stroke-width="2" stroke-linejoin="round" stroke="#000000" stroke-opacity="1" d="M 1205.84,183.133L 1201.68,233.383L 1193.84,250.383L 1194.34,186.633L 1205.84,183.133 Z "/>
		<path fill="#000000" fill-opacity="1" stroke-width="2" stroke-linejoin="round" stroke="#000000" stroke-opacity="1" d="M 256.795,378.953L 267.324,367.889L 294.591,375.638L 263.574,383.888L 256.795,378.953 Z "/>
		<path fill="#000000" fill-opacity="1" stroke-width="2" stroke-linejoin="round" stroke="#000000" stroke-opacity="1" d="M 572.157,76.5908L 589.657,72.3887L 589.657,101.638L 570.407,103.638L 572.157,76.5908 Z "/>
		<path fill="#000000" fill-opacity="1" stroke-width="2" stroke-linejoin="round" stroke="#000000" stroke-opacity="1" d="M 713.99,5.55518L 718.99,8.68018L 691.441,57.6929L 686.115,54.0547L 714.24,4.05469"/>
		<path fill="#000000" fill-opacity="1" stroke-width="2" stroke-linejoin="round" stroke="#000000" stroke-opacity="1" d="M 823.724,76.5908L 889.824,19.8979C 889.824,19.8975 844.754,89.5552 842.622,90.0547C 840.49,90.5547 814.99,91.5547 814.99,91.5547L 823.724,76.5908 Z "/>
		<path fill="#000000" fill-opacity="1" stroke-width="2" stroke-linejoin="round" stroke="#000000" stroke-opacity="1" d="M 847.491,181.884L 846.887,181.299L 836.325,171.079L 857.158,156.217L 861.52,171.079"/>
		<path fill="none" stroke-width="2" stroke-linejoin="round" stroke="#000000" stroke-opacity="1" d="M 86.7166,700.213L 156.846,656.621L 148.513,674.287L 86.7166,700.213 Z "/>
		<path fill="none" stroke-width="2" stroke-linejoin="round" stroke="#000000" stroke-opacity="1" d="M 174.513,618.955L 181.205,643.52L 237.898,596.621L 269.513,643.519L 303.846,612.621"/>
		<line fill="none" stroke-width="2" stroke-linejoin="round" stroke="#000000" stroke-opacity="1" x1="899.315" y1="539.467" x2="931.121" y2="521.467"/>
		<line fill="none" stroke-width="2" stroke-linejoin="round" stroke="#000000" stroke-opacity="1" x1="1093.79" y1="554.467" x2="1077.45" y2="595.467"/>
		<path fill="#000000" fill-opacity="1" stroke-width="2" stroke-linejoin="round" stroke="#000000" stroke-opacity="1" d="M 1107.19,605.725L 1201.68,624.623L 1206.45,643.519L 1107.19,605.725 Z "/>
		<path fill="none" stroke-width="2" stroke-linejoin="round" stroke="#000000" stroke-opacity="1" d="M 989.121,462.134L 1131.45,482.8L 1144.98,517.133L 1231.12,524.8"/>
		<line fill="none" stroke-width="2" stroke-linejoin="round" stroke="#000000" stroke-opacity="1" x1="1008.3" y1="299.48" x2="1023.97" y2="303.362"/>
		<line fill="none" stroke-width="2" stroke-linejoin="round" stroke="#000000" stroke-opacity="1" x1="1036.3" y1="254.647" x2="1163.88" y2="204.98"/>
		<line fill="none" stroke-width="2" stroke-linejoin="round" stroke="#000000" stroke-opacity="1" x1="910.885" y1="303.362" x2="979.135" y2="284.465"/>
		<path fill="none" stroke-width="2" stroke-linejoin="round" stroke="#000000" stroke-opacity="1" d="M 729.236,284.465L 748.134,290.23L 850.301,227.771"/>
		<line fill="none" stroke-width="2" stroke-linejoin="round" stroke="#000000" stroke-opacity="1" x1="880.417" y1="141.73" x2="926.635" y2="114.386"/>
		<line fill="none" stroke-width="2" stroke-linejoin="round" stroke="#000000" stroke-opacity="1" x1="837.635" y1="195.397" x2="899.315" y2="158.397"/>
		<line fill="none" stroke-width="2" stroke-linejoin="round" stroke="#000000" stroke-opacity="1" x1="908.635" y1="143.397" x2="925.635" y2="126.73"/>
		<line fill="none" stroke-width="2" stroke-linejoin="round" stroke="#000000" stroke-opacity="1" x1="790.968" y1="95.4883" x2="854.968" y2="34.897"/>
		<path fill="none" stroke-width="2" stroke-linejoin="round" stroke="#000000" stroke-opacity="1" d="M 569.801,156.23L 596.953,152.182L 601.468,69.8965"/>
		<path fill="none" stroke-width="2" stroke-linejoin="round" stroke="#000000" stroke-opacity="1" d="M 559.158,144.897C 554.801,144.897 596.953,119.563 596.953,119.563L 585.135,91.23"/>
		<path fill="none" stroke-width="2" stroke-linejoin="round" stroke="#000000" stroke-opacity="1" d="M 547.468,133.284L 573.801,114.386L 578.055,87.5635"/>
		<line fill="none" stroke-width="2" stroke-linejoin="round" stroke="#000000" stroke-opacity="1" x1="445.772" y1="25.5635" x2="544.135" y2="189.977"/>
		<path fill="none" stroke-width="2" stroke-linejoin="round" stroke="#000000" stroke-opacity="1" d="M 429.306,298.969L 294.591,235.469L 317.806,206.802"/>
		<path fill="none" stroke-width="2" stroke-linejoin="round" stroke="#000000" stroke-opacity="1" d="M 320.473,210.803L 323.973,242.136L 332.386,219.802L 337.306,246.669L 345.306,227.771L 351.283,254.302L 357.306,240.136C 357.306,240.136 366.098,265.567 368.14,265.567C 370.181,265.567 376.306,248.969 376.306,248.969L 389.079,273.302"/>
		<path fill="none" stroke-width="2" stroke-linejoin="round" stroke="#000000" stroke-opacity="1" d="M 420.556,306.803L 219,208.874L 256.795,171.079"/>
		<line fill="none" stroke-width="2" stroke-linejoin="round" stroke="#000000" stroke-opacity="1" x1="251.306" y1="214.553" x2="266.556" y2="178.803"/>
		<line fill="none" stroke-width="2" stroke-linejoin="round" stroke="#000000" stroke-opacity="1" x1="263.306" y1="218.803" x2="279.056" y2="186.053"/>
		<path fill="none" stroke-width="2" stroke-linejoin="round" stroke="#000000" stroke-opacity="1" d="M 351.284,350.053L 162.307,277.053L 143.409,271.552L 140.39,236.552"/>
		<path fill="none" stroke-width="2" stroke-linejoin="round" stroke="#000000" stroke-opacity="1" d="M 228.056,402.636L 86.7166,371.303L 90.7229,378.953"/>
		<line fill="none" stroke-width="2" stroke-linejoin="round" stroke="#000000" stroke-opacity="1" x1="299.39" y1="378.953" x2="351.284" y2="384.636"/>
		<path fill="none" stroke-width="2" stroke-linejoin="round" stroke="#000000" stroke-opacity="1" d="M 625.772,223.224L 631.772,221.474L 669.147,73.6816"/>
	</g>
</svg>
