<?xml version="1.0" encoding="utf-8"?>
<!DOCTYPE svg PUBLIC "-//W3C//DTD SVG 1.1//EN" "http://www.w3.org/Graphics/SVG/1.1/DTD/svg11.dtd">
<svg xmlns="http://www.w3.org/2000/svg" xmlns:xlink="http://www.w3.org/1999/xlink" version="1.1" baseProfile="full" width="547.124" height="356.109" viewBox="0 0 547.12 356.11" enable-background="new 0 0 547.12 356.11" xml:space="preserve">
	<g>
		<path fill="#FFFFFF" fill-opacity="1" stroke-width="2" stroke-linejoin="round" stroke="#000000" stroke-opacity="1" d="M 187.069,268.255L 193.117,255.683L 238.736,259.016L 241.902,280.516L 244.569,301.683L 233.902,300.683L 230.912,293.683L 227.402,294.183L 228.402,302.183L 209.902,306.05L 207.236,297.183L 201.569,296.516L 201.069,284.016L 188.236,273.35L 187.069,268.255 Z "/>
		<path fill="#FFFFFF" fill-opacity="1" stroke-width="2" stroke-linejoin="round" stroke="#000000" stroke-opacity="1" d="M 117.438,224.547L 139.688,220.797L 149.274,202.796L 142.438,169.546L 130.376,161.195L 114.938,161.195L 117.688,223.296"/>
		<path fill="#FFFFFF" fill-opacity="1" stroke-width="2" stroke-linejoin="round" stroke="#000000" stroke-opacity="1" d="M 241.413,105.431C 241.413,105.431 242.186,112.681 249.862,111.181C 257.538,109.681 287.657,66.1812 287.657,66.1812C 287.657,66.1802 293.038,44.4312 273.413,59.0562C 273.663,59.1812 241.538,105.556 241.413,105.431 Z "/>
		<path fill="#FFFFFF" fill-opacity="1" stroke-width="2" stroke-linejoin="round" stroke="#000000" stroke-opacity="1" d="M 300.455,63.4438L 280.288,85.8481L 249.862,69.0142L 297.621,10.0142L 299.788,12.3472L 257.288,66.8472L 278.621,79.3472L 299.455,63.4429"/>
		<path fill="#FFFFFF" fill-opacity="1" stroke-width="2" stroke-linejoin="round" stroke="#000000" stroke-opacity="1" d="M 324.48,104.502L 323.609,104.991L 290.813,123.4L 296.146,154.255L 309.48,168.755L 338.25,151.588L 334.646,132.255L 332.98,123.4"/>
		<path fill="#FFFFFF" fill-opacity="1" stroke-width="2" stroke-linejoin="round" stroke="#000000" stroke-opacity="1" d="M 382.313,161.196L 367.48,161.196L 370.646,154.588L 342.98,133.255L 329.313,131.921L 330.146,161.195L 330.813,170.421L 322.98,194.088L 332.813,206.755L 346.646,198.991L 368.313,196.921L 369.646,180.092L 381.98,180.092L 382.313,161.196 Z "/>
		<path fill="#FFFFFF" fill-opacity="1" stroke-width="2" stroke-linejoin="round" stroke="#000000" stroke-opacity="1" d="M 346.98,159.255L 362.147,161.196L 357.148,189.588L 343.48,176.588L 346.98,159.255 Z "/>
		<path fill="#FFFFFF" fill-opacity="1" stroke-width="2" stroke-linejoin="round" stroke="#000000" stroke-opacity="1" d="M 310.98,131.422L 316.647,137.088L 312.98,146.088L 300.455,131.755L 310.98,131.422 Z "/>
		<path fill="#FFFFFF" fill-opacity="1" stroke-width="2" stroke-linejoin="round" stroke="#000000" stroke-opacity="1" d="M 322.147,110.255L 329.147,99.2554L 348.146,118.255L 329.146,126.588L 322.147,110.255 Z "/>
		<path fill="#FFFFFF" fill-opacity="1" stroke-width="2" stroke-linejoin="round" stroke="#000000" stroke-opacity="1" d="M 158.563,126.75L 171.563,118L 159.813,104.502L 174.313,85.605L 141.813,28.9116L 130.376,39.2505L 163.563,85.605L 139.813,101L 155.813,118.25L 145.063,120.5L 155.063,132L 158.563,126.75 Z "/>
		<path fill="#FFFFFF" fill-opacity="1" stroke-width="2" stroke-linejoin="round" stroke="#000000" stroke-opacity="1" d="M 155.313,99.7505L 157.813,81.7505L 92.5807,1.00049L 46.0634,41.2505L 126.813,99.2505L 140.063,85.605L 124.063,72.7505L 130.376,66.7065L 141.813,80.2505L 149.274,85.605L 155.313,99.7505 Z "/>
		<path fill="#FFFFFF" fill-opacity="1" stroke-width="2" stroke-linejoin="round" stroke="#000000" stroke-opacity="1" d="M 4.57819,217.888L 66.8282,195.912L 76.5781,249.661L 35.8878,285.661L 7.32813,281.911C 7.32813,281.911 -4.92188,249.365 4.57819,217.888 Z "/>
		<path fill="#FFFFFF" fill-opacity="1" stroke-width="2" stroke-linejoin="round" stroke="#000000" stroke-opacity="1" d="M 104.078,198.991L 111.478,204.662L 54.7855,217.888L 54.7855,225.661L 85.8281,217.888L 92.5807,250.161L 6.07813,307.161L 2.82813,298.161L 54.7855,265.661L 50.5781,236.786L 78.3281,228.661L 48.5781,231.661L 46.3281,210.411L 104.078,198.991 Z "/>
		<path fill="#FFFFFF" fill-opacity="1" stroke-width="2" stroke-linejoin="round" stroke="#000000" stroke-opacity="1" d="M 319.352,236.786L 325.854,217.888L 470.533,286.845L 476.854,264.845L 539.854,274.581L 546.124,255.683L 460.354,236.786L 457.854,255.683L 338.25,217.888L 321.104,211.97L 315.854,233.72L 319.352,236.786 Z "/>
		<path fill="#FFFFFF" fill-opacity="1" stroke-width="2" stroke-linejoin="round" stroke="#000000" stroke-opacity="1" d="M 304.418,283.776L 319.352,293.479L 329.418,326.442L 281.557,343.776L 268.751,308.442L 296.085,287.442L 304.418,283.776 Z "/>
		<path fill="#FFFFFF" fill-opacity="1" stroke-width="2" stroke-linejoin="round" stroke="#000000" stroke-opacity="1" d="M 130.376,307.776L 178.751,350.171L 149.274,355.109L 130.376,312.376L 130.376,307.776 Z "/>
		<path fill="#000000" fill-opacity="1" stroke-width="2" stroke-linejoin="round" stroke="#000000" stroke-opacity="1" d="M 141.895,322.71L 162.895,344.96L 153.145,350.171L 141.895,322.71 Z "/>
		<path fill="#000000" fill-opacity="1" stroke-width="2" stroke-linejoin="round" stroke="#000000" stroke-opacity="1" d="M 306.395,308.585L 315.145,317.335L 291.77,329.71L 306.395,308.585 Z "/>
		<path fill="#000000" fill-opacity="1" stroke-width="2" stroke-linejoin="round" stroke="#000000" stroke-opacity="1" d="M 470.534,274.582L 470.534,249.668L 466.02,251.293L 467.145,274.581"/>
		<path fill="#000000" fill-opacity="1" stroke-width="2" stroke-linejoin="round" stroke="#000000" stroke-opacity="1" d="M 435.27,255.683L 432.738,263.668L 437.895,265.793L 442.02,253.543L 435.27,255.683 Z "/>
		<path fill="#000000" fill-opacity="1" stroke-width="2" stroke-linejoin="round" stroke="#000000" stroke-opacity="1" d="M 422.52,250.773L 420.52,255.683L 422.77,259.21L 426.77,251.898L 422.52,250.773 Z "/>
		<path fill="#000000" fill-opacity="1" stroke-width="2" stroke-linejoin="round" stroke="#000000" stroke-opacity="1" d="M 410.52,245.21L 407.145,251.585L 410.958,254.398L 416.583,246.523L 410.52,245.21 Z "/>
		<path fill="#000000" fill-opacity="1" stroke-width="2" stroke-linejoin="round" stroke="#000000" stroke-opacity="1" d="M 123.299,182.627L 128.111,188.19L 124.174,192.815L 119.549,188.252L 123.299,182.627 Z "/>
		<path fill="#000000" fill-opacity="1" stroke-width="2" stroke-linejoin="round" stroke="#000000" stroke-opacity="1" d="M 119.174,165.502L 126.799,165.752L 127.611,178.127L 120.174,178.44L 119.174,165.502 Z "/>
		<path fill="#000000" fill-opacity="1" stroke-width="2" stroke-linejoin="round" stroke="#000000" stroke-opacity="1" d="M 131.944,174.857L 132.192,174.671L 136.694,171.294L 139.819,183.169L 132.569,185.982"/>
		<path fill="#000000" fill-opacity="1" stroke-width="2" stroke-linejoin="round" stroke="#000000" stroke-opacity="1" d="M 139.069,190.169L 144.319,197.419L 140.632,203.419L 131.382,197.732L 139.507,190.044"/>
		<path fill="#000000" fill-opacity="1" stroke-width="2" stroke-linejoin="round" stroke="#000000" stroke-opacity="1" d="M 122.194,202.107L 129.007,201.294L 131.882,213.169L 122.694,215.857L 122.194,202.107 Z "/>
		<path fill="none" stroke-width="2" stroke-linejoin="round" stroke="#000000" stroke-opacity="1" d="M 32.4445,253.607L 35.8879,274.582L 42.7778,271.273L 38.6111,250.107L 32.2778,252.107"/>
		<line fill="none" stroke-width="2" stroke-linejoin="round" stroke="#000000" stroke-opacity="1" x1="89.301" y1="70.1089" x2="97.801" y2="36.6089"/>
		<path fill="none" stroke-width="2" stroke-linejoin="round" stroke="#000000" stroke-opacity="1" d="M 130.376,93.6089L 101.551,72.1089L 103.801,40.1089"/>
		<path fill="none" stroke-width="2" stroke-linejoin="round" stroke="#000000" stroke-opacity="1" d="M 118.301,66.7075L 115.301,47.8091L 92.5807,15.1089"/>
		<line fill="none" stroke-width="2" stroke-linejoin="round" stroke="#000000" stroke-opacity="1" x1="65.051" y1="28.9116" x2="81.051" y2="47.8091"/>
		<path fill="none" stroke-width="2" stroke-linejoin="round" stroke="#000000" stroke-opacity="1" d="M 46.9641,270.6L 31.1308,205.1L 16.9902,213.267L 30.6307,278.267L 23.4641,283.433"/>
		<line fill="none" stroke-width="2" stroke-linejoin="round" stroke="#000000" stroke-opacity="1" x1="14.6308" y1="274.582" x2="16.9902" y2="263.934"/>
		<line fill="none" stroke-width="2" stroke-linejoin="round" stroke="#000000" stroke-opacity="1" x1="10.7975" y1="274.582" x2="7.46411" y2="236.786"/>
		<path fill="none" stroke-width="2" stroke-linejoin="round" stroke="#000000" stroke-opacity="1" d="M 197.006,262.6L 205.967,264.1L 202.381,272.225L 194.131,269.35L 197.006,262.6 Z "/>
		<path fill="none" stroke-width="2" stroke-linejoin="round" stroke="#000000" stroke-opacity="1" d="M 202.756,283.35L 216.506,268.85L 237.131,269.85L 237.006,283.6L 202.756,283.35 Z "/>
		<path fill="none" stroke-width="2" stroke-linejoin="round" stroke="#000000" stroke-opacity="1" d="M 213.756,300.892L 213.006,288.975C 213.006,288.975 219.006,288.725 219.006,289.142C 219.006,289.558 218.922,298.725 218.922,298.725L 214.506,299.642"/>
		<path fill="none" stroke-width="2" stroke-linejoin="round" stroke="#000000" stroke-opacity="1" d="M 281.557,309.392L 300.455,296.559L 300.455,304.392L 287.756,324.725L 281.557,309.392 Z "/>
		<line fill="none" stroke-width="2" stroke-linejoin="round" stroke="#000000" stroke-opacity="1" x1="394.943" y1="242.475" x2="351.006" y2="225.809"/>
		<line fill="none" stroke-width="2" stroke-linejoin="round" stroke="#000000" stroke-opacity="1" x1="308.142" y1="156.565" x2="327.225" y2="141.065"/>
		<line fill="none" stroke-width="2" stroke-linejoin="round" stroke="#000000" stroke-opacity="1" x1="314.142" y1="159.815" x2="325.808" y2="150.649"/>
		<line fill="none" stroke-width="2" stroke-linejoin="round" stroke="#000000" stroke-opacity="1" x1="342.975" y1="137.44" x2="347.475" y2="149.19"/>
		<path fill="none" stroke-width="2" stroke-linejoin="round" stroke="#000000" stroke-opacity="1" d="M 351.225,153.065L 359.1,153.19L 361.35,148.565"/>
		<path fill="none" stroke-width="2" stroke-linejoin="round" stroke="#000000" stroke-opacity="1" d="M 352.475,157.19L 360.725,157.44L 365.35,151.19"/>
		<line fill="none" stroke-width="2" stroke-linejoin="round" stroke="#000000" stroke-opacity="1" x1="360.35" y1="174.232" x2="376.045" y2="172.482"/>
		<line fill="none" stroke-width="2" stroke-linejoin="round" stroke="#000000" stroke-opacity="1" x1="359.725" y1="180.093" x2="363.35" y2="180.093"/>
		<path fill="none" stroke-width="2" stroke-linejoin="round" stroke="#000000" stroke-opacity="1" d="M 338.25,202.357L 338.25,175.732L 343.433,175.607"/>
		<line fill="none" stroke-width="2" stroke-linejoin="round" stroke="#000000" stroke-opacity="1" x1="330.683" y1="201.607" x2="332.683" y2="180.093"/>
		<line fill="none" stroke-width="2" stroke-linejoin="round" stroke="#000000" stroke-opacity="1" x1="261.2" y1="82.3413" x2="264.034" y2="89.3306"/>
		<line fill="none" stroke-width="2" stroke-linejoin="round" stroke="#000000" stroke-opacity="1" x1="258.034" y1="88.4976" x2="261.034" y2="93.6646"/>
		<line fill="none" stroke-width="2" stroke-linejoin="round" stroke="#000000" stroke-opacity="1" x1="256.034" y1="93.1646" x2="258.7" y2="98.9976"/>
		<line fill="none" stroke-width="2" stroke-linejoin="round" stroke="#000000" stroke-opacity="1" x1="252.2" y1="97.9976" x2="257.2" y2="101.239"/>
		<line fill="none" stroke-width="2" stroke-linejoin="round" stroke="#000000" stroke-opacity="1" x1="249.862" y1="101.239" x2="253.7" y2="105.831"/>
		<line fill="none" stroke-width="2" stroke-linejoin="round" stroke="#000000" stroke-opacity="1" x1="245.867" y1="104.831" x2="249.862" y2="107.998"/>
		<path fill="none" stroke-width="2" stroke-linejoin="round" stroke="#000000" stroke-opacity="1" d="M 276.367,63.4438L 282.7,58.9976L 283.867,63.4429L 275.533,67.4976L 276.367,63.4438 Z "/>
	</g>
</svg>
