<?xml version="1.0" encoding="utf-8"?>
<!DOCTYPE svg PUBLIC "-//W3C//DTD SVG 1.1//EN" "http://www.w3.org/Graphics/SVG/1.1/DTD/svg11.dtd">
<svg xmlns="http://www.w3.org/2000/svg" xmlns:xlink="http://www.w3.org/1999/xlink" version="1.1" baseProfile="full" width="854.129" height="579.256" viewBox="0 0 854.13 579.26" enable-background="new 0 0 854.13 579.26" xml:space="preserve">
	<g>
		<path fill="#000000" fill-opacity="1" stroke-width="2" stroke-linejoin="round" stroke="#000000" stroke-opacity="1" d="M 1,103.2C 1.00505,103.412 1.41667,103.283 1.625,103.325C 1.83334,103.367 2.04098,103.412 2.25,103.45C 2.49935,103.495 2.74911,103.539 3,103.575C 4.28467,103.759 5.58732,103.789 6.875,103.95C 8.41866,104.143 9.94775,104.472 11.5,104.575C 11.7079,104.589 11.9167,104.575 12.125,104.575C 12.3333,104.575 12.5417,104.575 12.75,104.575C 12.9167,104.575 13.2173,104.739 13.25,104.575C 13.2976,104.337 12.9518,104.181 12.875,103.95C 12.8223,103.792 12.8223,103.609 12.875,103.45C 13.2004,102.474 13.9146,101.601 14,100.575C 14.073,99.6995 14.153,98.824 14.25,97.9504C 14.3238,97.2864 14.375,96.6184 14.375,95.9504C 14.375,95.7004 14.375,95.4504 14.375,95.2004C 14.375,95.0334 14.375,94.8669 14.375,94.7004C 14.375,94.4919 14.2818,94.2615 14.375,94.0754C 14.4682,93.8889 14.6683,93.6746 14.875,93.7004C 15.7122,93.8049 15.797,95.1135 16.25,95.8254C 16.9909,96.9895 17.8534,98.1282 18.25,99.4504C 18.4812,100.221 18.7651,100.981 19.125,101.7C 19.2018,101.854 19.1897,102.039 19.25,102.2C 19.3154,102.375 19.3569,102.581 19.5,102.7C 19.632,102.81 19.8333,102.867 20,102.825C 20.3615,102.735 20.6667,102.492 21,102.325C 21.3333,102.158 21.6706,102 22,101.825C 22.3792,101.624 22.7225,101.349 23.125,101.2C 24.7093,100.616 26.4571,100.511 28,99.8254C 28.9201,99.4163 29.8299,98.9841 30.75,98.5754C 30.9404,98.4905 31.0524,98.1345 31.25,98.2004C 31.413,98.2546 31.1853,98.5393 31.125,98.7004C 31.0596,98.8748 30.9738,99.0422 30.875,99.2004C 30.7646,99.3772 30.6012,99.5183 30.5,99.7004C 30.0848,100.448 29.264,100.882 28.625,101.45C 28.4693,101.589 28.4068,101.813 28.25,101.95C 28.0671,102.11 27.7968,102.154 27.625,102.325C 27.4532,102.497 27.3505,102.729 27.25,102.95C 27.1409,103.19 27.1751,103.503 27,103.7C 26.3544,104.427 25.3532,104.735 24.5,105.2C 23.7459,105.612 22.8564,105.76 22,105.825C 21.1236,105.893 20.2277,105.862 19.375,106.075C 19.2083,106.117 19.0417,106.158 18.875,106.2C 18.7083,106.242 18.375,106.154 18.375,106.325C 18.375,106.497 18.7535,106.329 18.875,106.45C 19.351,106.926 19.493,107.665 19.625,108.325C 20.1224,110.813 20.5244,113.359 21.5,115.7C 22.3959,117.85 23.5504,119.884 24.625,121.95C 25.5368,123.704 26.1464,125.631 26.5,127.575C 26.6321,128.302 27.3278,128.99 27.125,129.7C 27.0778,129.865 26.7955,129.804 26.625,129.825C 26.4596,129.846 26.2741,129.9 26.125,129.825C 25.9142,129.72 25.7917,129.492 25.625,129.325C 25.4583,129.158 25.2463,129.028 25.125,128.825C 24.5586,127.881 24.1605,126.831 23.5,125.95C 22.6888,124.868 22.1505,123.584 21.25,122.575C 20.5237,121.762 19.728,121.012 19,120.2C 18.6438,119.803 18.3297,119.37 18,118.95C 17.5778,118.413 17.2332,117.808 16.75,117.325C 16.6027,117.178 16.3973,117.098 16.25,116.95C 16.1027,116.803 15.9482,116.645 15.875,116.45C 15.8165,116.294 15.9335,116.106 15.875,115.95C 15.8018,115.755 15.6951,115.524 15.5,115.45C 15.3011,115.376 15.045,115.448 14.875,115.575C 14.6806,115.721 14.6518,116.01 14.5,116.2C 14.316,116.43 14.0833,116.617 13.875,116.825C 13.625,117.075 13.3628,117.314 13.125,117.575C 12.9455,117.773 12.7594,117.97 12.625,118.2C 12.4651,118.474 12.4163,118.805 12.25,119.075C 11.5833,120.158 10.6523,121.118 10.25,122.325C 10.1911,122.502 10.0905,122.662 10,122.825C 9.882,123.037 9.785,123.267 9.625,123.45C 9.48779,123.607 9.29834,123.71 9.125,123.825C 8.92285,123.96 8.74052,124.235 8.5,124.2C 7.9622,124.123 8.375,123.118 8.375,122.575C 8.375,121.531 8.5304,120.491 8.625,119.45C 8.70459,118.575 8.51803,117.628 8.875,116.825C 9.1333,116.244 9.59058,115.769 9.875,115.2C 10.2681,114.414 10.0376,113.45 10.125,112.575C 10.1421,112.405 10.1957,112.239 10.25,112.075C 10.321,111.863 10.5884,111.656 10.5,111.45C 10.4116,111.244 10.08,111.291 9.875,111.2C 9.70471,111.125 9.52209,111.065 9.375,110.95C 9.14242,110.769 8.96721,110.525 8.75,110.325C 7.42497,109.111 6.271,107.721 5,106.45C 4.24886,105.699 3.41459,105.036 2.625,104.325C 2.3831,104.108 2.09269,103.942 1.875,103.7C 1.71249,103.52 1.71094,103.196 1.5,103.075C 1.35083,102.99 0.995934,103.029 1,103.2 Z "/>
		<path fill="#000000" fill-opacity="1" stroke-width="2" stroke-linejoin="round" stroke="#000000" stroke-opacity="1" d="M 843.296,484.555C 843.01,484.549 843.015,485.053 842.879,485.305C 842.666,485.7 842.567,486.147 842.379,486.555C 841.707,488.01 840.674,489.273 839.712,490.555C 839.489,490.853 839.546,491.388 839.212,491.555C 838.815,491.754 838.323,491.555 837.879,491.555C 837.185,491.555 836.49,491.555 835.796,491.555C 835.046,491.555 834.296,491.555 833.546,491.555C 833.185,491.555 832.823,491.555 832.462,491.555C 832.351,491.555 832.24,491.555 832.129,491.555C 832.018,491.555 831.907,491.555 831.796,491.555C 831.685,491.555 831.573,491.555 831.462,491.555C 831.351,491.555 831.24,491.555 831.129,491.555C 831.018,491.555 830.907,491.555 830.796,491.555C 830.685,491.555 830.462,491.444 830.462,491.555C 830.462,491.712 830.692,491.77 830.796,491.888C 830.887,491.992 830.972,492.104 831.046,492.221C 831.369,492.738 831.865,493.124 832.296,493.555C 832.569,493.827 832.638,494.253 832.879,494.555C 833.026,494.739 833.195,494.907 833.379,495.055C 833.476,495.132 833.625,495.134 833.712,495.221C 834.301,495.81 834.692,496.646 834.796,497.471C 834.905,498.347 834.127,499.141 833.546,499.805C 832.586,500.902 831.808,502.19 831.296,503.555C 831.16,503.916 830.712,504.169 830.712,504.555C 830.712,504.694 830.914,504.758 830.962,504.888C 831.001,504.992 830.893,505.135 830.962,505.221C 831.294,505.636 832.037,505.207 832.546,505.055C 833.269,504.838 834.108,504.842 834.712,504.388C 835.53,503.775 836.289,503.074 836.962,502.305C 837.303,501.916 837.737,501.185 838.212,501.388C 838.34,501.443 838.37,501.617 838.462,501.721C 838.593,501.868 838.733,502.007 838.879,502.138C 839.585,502.774 840.387,503.295 841.129,503.888C 842.193,504.739 843.399,505.447 844.296,506.471C 844.697,506.93 845.142,507.356 845.629,507.721C 845.755,507.816 845.859,507.937 845.962,508.055C 846.054,508.159 846.114,508.487 846.212,508.388C 846.332,508.269 846.146,508.056 846.129,507.888C 846.074,507.335 846.068,506.774 846.129,506.221C 846.304,504.646 846.379,503.057 846.379,501.471C 846.379,500.805 846.51,500.125 846.379,499.471C 846.3,499.078 846.033,498.712 845.712,498.471C 845.593,498.382 845.393,498.418 845.296,498.305C 845.203,498.198 845.175,498.025 845.212,497.888C 845.47,496.944 846.79,496.725 847.629,496.221C 848.507,495.695 849.094,494.764 849.962,494.221C 850.059,494.161 850.185,494.166 850.296,494.138C 850.518,494.082 850.754,494.068 850.962,493.971C 851.357,493.789 851.722,493.541 852.129,493.388C 852.236,493.348 852.365,493.365 852.462,493.305C 852.596,493.221 852.655,493.042 852.796,492.971C 852.895,492.922 853.107,493.08 853.129,492.971C 853.161,492.813 853.012,492.648 852.879,492.555C 852.713,492.439 852.493,492.43 852.296,492.388C 852.104,492.347 851.904,492.346 851.712,492.305C 851.515,492.262 851.323,492.194 851.129,492.138C 849.867,491.778 848.525,491.721 847.212,491.721C 846.823,491.721 846.435,491.721 846.046,491.721C 845.935,491.721 845.823,491.721 845.712,491.721C 845.601,491.721 845.463,491.794 845.379,491.721C 845.238,491.6 845.178,491.401 845.129,491.221C 845.092,491.087 845.152,490.942 845.129,490.805C 845.096,490.605 845.03,490.412 844.962,490.221C 844.863,489.939 844.743,489.665 844.629,489.388C 844.37,488.759 844.128,488.064 844.212,487.388C 844.292,486.754 844.584,485.991 844.212,485.471C 844.132,485.359 843.997,485.295 843.879,485.221C 843.774,485.156 843.627,485.148 843.546,485.055C 843.423,484.914 843.482,484.559 843.296,484.555 Z "/>
		<path fill="none" stroke-width="2" stroke-linejoin="round" stroke="#000000" stroke-opacity="1" d="M 237.2,360.055C 237.2,360.055 79.172,103.395 369.484,19.8977"/>
		<path fill="none" stroke-width="2" stroke-linejoin="round" stroke="#000000" stroke-opacity="1" d="M 588.296,76.5906C 588.296,76.5906 728.539,322.26 577.358,435.646"/>
		<path fill="none" stroke-width="2" stroke-linejoin="round" stroke="#000000" stroke-opacity="1" d="M 426.177,549.031C 426.177,549.031 558.46,560.126 615.153,492.339"/>
		<path fill="none" stroke-width="2" stroke-linejoin="round" stroke="#000000" stroke-opacity="1" d="M 625.631,530.134C 625.631,530.134 711.646,435.998 682.297,331.885"/>
		<path fill="none" stroke-width="2" stroke-linejoin="round" stroke="#000000" stroke-opacity="1" d="M 634.051,114.386C 634.051,114.386 700.061,295.559 671.846,360.055"/>
		<path fill="none" stroke-width="2" stroke-linejoin="round" stroke="#000000" stroke-opacity="1" d="M 634.051,57.6926C 634.051,57.6926 747.437,171.079 728.539,322.26"/>
		<path fill="none" stroke-width="2" stroke-linejoin="round" stroke="#000000" stroke-opacity="1" d="M 662.964,133.283C 662.964,133.283 711.185,246.669 700.964,341.157"/>
		<path fill="none" stroke-width="2" stroke-linejoin="round" stroke="#000000" stroke-opacity="1" d="M 338.625,1.00024C 338.625,1.00024 228.685,38.7952 199.405,95.488"/>
		<path fill="none" stroke-width="2" stroke-linejoin="round" stroke="#000000" stroke-opacity="1" d="M 274.996,10.4236C 274.996,10.4236 170.595,38.7952 161.61,133.283"/>
		<path fill="none" stroke-width="2" stroke-linejoin="round" stroke="#000000" stroke-opacity="1" d="M 180.507,38.7952C 180.507,38.7952 136.125,82.8484 135.125,114.386"/>
		<path fill="none" stroke-width="2" stroke-linejoin="round" stroke="#000000" stroke-opacity="1" d="M 123.814,152.181C 123.814,152.181 79.0752,303.363 129.791,360.055"/>
		<path fill="none" stroke-width="2" stroke-linejoin="round" stroke="#000000" stroke-opacity="1" d="M 86.0192,341.157C 86.0192,341.157 161.61,531.89 331.688,578.256"/>
		<path fill="none" stroke-width="2" stroke-linejoin="round" stroke="#000000" stroke-opacity="1" d="M 463.972,567.929C 463.972,567.929 331.688,586.827 256.098,530.134"/>
		<path fill="none" stroke-width="2" stroke-linejoin="round" stroke="#000000" stroke-opacity="1" d="M 142.712,246.669C 142.712,246.669 104.917,379.943 218.303,445.589"/>
		<path fill="none" stroke-width="2" stroke-linejoin="round" stroke="#000000" stroke-opacity="1" d="M 180.507,284.465C 180.507,284.465 180.507,435.646 312.791,473.441"/>
		<path fill="none" stroke-width="2" stroke-linejoin="round" stroke="#000000" stroke-opacity="1" d="M 558.46,416.748C 558.46,416.748 547.577,473.442 501.767,492.339"/>
		<path fill="none" stroke-width="2" stroke-linejoin="round" stroke="#000000" stroke-opacity="1" d="M 369.484,133.283C 369.484,133.283 331.689,152.181 331.688,189.976"/>
		<path fill="none" stroke-width="2" stroke-linejoin="round" stroke="#000000" stroke-opacity="1" d="M 293.893,189.976C 293.893,189.976 312.791,110.896 369.484,122.089"/>
		<path fill="none" stroke-width="2" stroke-linejoin="round" stroke="#000000" stroke-opacity="1" d="M 526.957,114.386C 526.957,114.386 593.457,200.09 588.457,237.089"/>
		<path fill="none" stroke-width="2" stroke-linejoin="round" stroke="#000000" stroke-opacity="1" d="M 463.972,171.079C 463.972,171.079 509.577,189.977 501.767,208.874"/>
		<path fill="none" stroke-width="2" stroke-linejoin="round" stroke="#000000" stroke-opacity="1" d="M 350.586,64.0891C 350.586,64.0891 426.177,19.0896 520.665,88.5891"/>
		<path fill="none" stroke-width="2" stroke-linejoin="round" stroke="#000000" stroke-opacity="1" d="M 577.358,133.283C 577.358,133.283 612.659,168.09 604.457,239.089"/>
		<path fill="none" stroke-width="2" stroke-linejoin="round" stroke="#000000" stroke-opacity="1" d="M 274.996,368.089C 274.996,368.089 274.996,390.112 293.893,397.85"/>
		<path fill="none" stroke-width="2" stroke-linejoin="round" stroke="#000000" stroke-opacity="1" d="M 520.665,425.423C 520.665,425.423 520.665,454.543 482.87,473.441"/>
		<path fill="none" stroke-width="2" stroke-linejoin="round" stroke="#000000" stroke-opacity="1" d="M 568.624,378.952C 568.624,378.952 577.358,388.188 596.255,360.055"/>
	</g>
</svg>
