<?xml version="1.0" encoding="utf-8"?>
<!DOCTYPE svg PUBLIC "-//W3C//DTD SVG 1.1//EN" "http://www.w3.org/Graphics/SVG/1.1/DTD/svg11.dtd">
<svg xmlns="http://www.w3.org/2000/svg" xmlns:xlink="http://www.w3.org/1999/xlink" version="1.1" baseProfile="full" width="996.169" height="768.924" viewBox="0 0 996.17 768.92" enable-background="new 0 0 996.17 768.92" xml:space="preserve">
	<g>
		<path fill="#000000" fill-opacity="1" stroke-width="2" stroke-linejoin="round" stroke="#000000" stroke-opacity="1" d="M 388.034,1.00005C 388.034,1.00005 386.784,9.66655 387.367,9.66667C 387.95,9.66667 393.367,5.16667 392.2,3.91667C 391.034,2.66667 387.95,0.666672 388.034,1.00005 Z "/>
		<g>
			<ellipse fill="#FFFFFF" fill-opacity="1" stroke-width="2" stroke-linejoin="round" stroke="#000000" stroke-opacity="1" cx="404.511" cy="248.239" rx="179.527" ry="179.528"/>
			<path fill="#FFFFFF" fill-opacity="1" stroke-width="2" stroke-linejoin="round" stroke="#000000" stroke-opacity="1" d="M 546.243,192.912C 546.243,192.912 470.653,181.086 470.653,153.245C 470.653,125.404 478.52,101.972 489.55,87.6087C 500.58,73.2453 544.225,32.2151 573.58,59.9119C 602.936,87.6087 621.834,140.358 621.834,144.302C 621.834,148.245 599.914,183.245 578.247,187.245C 556.58,191.245 546.243,192.245 546.243,192.912 Z "/>
			<path fill="#FFFFFF" fill-opacity="1" stroke-width="2" stroke-linejoin="round" stroke="#000000" stroke-opacity="1" d="M 651.83,171.829C 651.83,171.829 649.997,125.662 667.164,114.662C 684.33,103.662 716.322,101.662 716.322,101.662C 716.322,101.662 754.117,106.506 754.117,144.302C 754.117,182.097 773.015,196.66 716.322,200.995C 659.629,205.329 666.83,187.329 666.83,187.329L 651.83,171.829 Z "/>
			<path fill="#FFFFFF" fill-opacity="1" stroke-width="2" stroke-linejoin="round" stroke="#000000" stroke-opacity="1" d="M 791.912,324.704C 791.912,324.705 816.597,271.926 857.097,283.704C 897.597,295.483 945.998,316.54 935.097,362.705C 924.196,408.869 904.179,447.643 838.597,437.705C 773.015,427.766 791.912,345.705 791.912,345.705L 791.912,324.704 Z "/>
			<g>
				<ellipse fill="#FFFFFF" fill-opacity="1" stroke-width="2" stroke-linejoin="round" stroke="#000000" stroke-opacity="1" cx="553.322" cy="437.215" rx="330.709" ry="330.709"/>
				<path fill="#000000" fill-opacity="1" stroke-width="2" stroke-linejoin="round" stroke="#000000" stroke-opacity="1" d="M 262.432,518.653C 262.432,518.653 415.087,671.307 453.25,652.225C 491.413,633.143 548.659,480.489 586.822,442.326C 624.986,404.162 796.722,327.219 815.803,356.15C 834.885,385.08 871.453,396.261 862.71,461.407C 853.967,526.554 815.804,738.333 605.904,747.634C 396.005,756.934 300.596,633.143 300.596,633.143C 300.596,633.143 205.187,499.571 243.351,404.162C 281.514,308.753 243.35,480.489 262.432,518.653 Z "/>
				<path fill="#000000" fill-opacity="1" stroke-width="2" stroke-linejoin="round" stroke="#000000" stroke-opacity="1" d="M 322.828,452.301C 322.828,452.301 362.913,632.687 423.042,552.516C 483.171,472.344 402.999,432.258 342.87,452.301"/>
			</g>
		</g>
		<line fill="none" stroke-width="2" stroke-linejoin="round" stroke="#000000" stroke-opacity="1" x1="507.078" y1="318.102" x2="479.281" y2="266.835"/>
		<line fill="none" stroke-width="2" stroke-linejoin="round" stroke="#000000" stroke-opacity="1" x1="525.975" y1="303.502" x2="501.614" y2="252.168"/>
		<line fill="none" stroke-width="2" stroke-linejoin="round" stroke="#000000" stroke-opacity="1" x1="555.614" y1="299.205" x2="544.873" y2="254.168"/>
		<line fill="none" stroke-width="2" stroke-linejoin="round" stroke="#000000" stroke-opacity="1" x1="551.948" y1="341.168" x2="544.873" y2="326.502"/>
		<line fill="none" stroke-width="2" stroke-linejoin="round" stroke="#000000" stroke-opacity="1" x1="587.281" y1="374.795" x2="577.948" y2="318.102"/>
		<line fill="none" stroke-width="2" stroke-linejoin="round" stroke="#000000" stroke-opacity="1" x1="593.281" y1="370.835" x2="576.948" y2="328.168"/>
		<line fill="none" stroke-width="2" stroke-linejoin="round" stroke="#000000" stroke-opacity="1" x1="601.566" y1="355.897" x2="601.566" y2="337"/>
		<line fill="none" stroke-width="2" stroke-linejoin="round" stroke="#000000" stroke-opacity="1" x1="612.281" y1="324.168" x2="612.281" y2="288.835"/>
		<line fill="none" stroke-width="2" stroke-linejoin="round" stroke="#000000" stroke-opacity="1" x1="620.463" y1="355.897" x2="620.463" y2="337"/>
		<line fill="none" stroke-width="2" stroke-linejoin="round" stroke="#000000" stroke-opacity="1" x1="630.281" y1="366.835" x2="632.281" y2="337"/>
		<line fill="none" stroke-width="2" stroke-linejoin="round" stroke="#000000" stroke-opacity="1" x1="625.281" y1="329.168" x2="620.463" y2="299.205"/>
		<line fill="none" stroke-width="2" stroke-linejoin="round" stroke="#000000" stroke-opacity="1" x1="856.948" y1="326.004" x2="907.948" y2="285.337"/>
		<line fill="none" stroke-width="2" stroke-linejoin="round" stroke="#000000" stroke-opacity="1" x1="843.281" y1="304.337" x2="897.614" y2="261.409"/>
		<line fill="none" stroke-width="2" stroke-linejoin="round" stroke="#000000" stroke-opacity="1" x1="828.338" y1="280.307" x2="885.03" y2="242.512"/>
		<line fill="none" stroke-width="2" stroke-linejoin="round" stroke="#000000" stroke-opacity="1" x1="817.281" y1="261.409" x2="871.281" y2="223.614"/>
		<line fill="none" stroke-width="2" stroke-linejoin="round" stroke="#000000" stroke-opacity="1" x1="809.44" y1="256.004" x2="875.281" y2="204.716"/>
		<line fill="none" stroke-width="2" stroke-linejoin="round" stroke="#000000" stroke-opacity="1" x1="809.44" y1="242.512" x2="838.281" y2="223.614"/>
		<line fill="none" stroke-width="2" stroke-linejoin="round" stroke="#000000" stroke-opacity="1" x1="809.44" y1="233.337" x2="847.235" y2="198.337"/>
		<line fill="none" stroke-width="2" stroke-linejoin="round" stroke="#000000" stroke-opacity="1" x1="790.542" y1="232.337" x2="822.614" y2="204.716"/>
		<line fill="none" stroke-width="2" stroke-linejoin="round" stroke="#000000" stroke-opacity="1" x1="786.364" y1="209.337" x2="823.364" y2="166.921"/>
		<line fill="none" stroke-width="2" stroke-linejoin="round" stroke="#000000" stroke-opacity="1" x1="733.849" y1="157.087" x2="739.281" y2="129.126"/>
		<line fill="none" stroke-width="2" stroke-linejoin="round" stroke="#000000" stroke-opacity="1" x1="730.281" y1="154.837" x2="752.747" y2="137.587"/>
		<line fill="none" stroke-width="2" stroke-linejoin="round" stroke="#000000" stroke-opacity="1" x1="718.531" y1="148.023" x2="729.281" y2="116.837"/>
		<line fill="none" stroke-width="2" stroke-linejoin="round" stroke="#000000" stroke-opacity="1" x1="710.281" y1="148.023" x2="714.952" y2="124.587"/>
		<line fill="none" stroke-width="2" stroke-linejoin="round" stroke="#000000" stroke-opacity="1" x1="696.054" y1="141.337" x2="706.781" y2="120.337"/>
		<line fill="none" stroke-width="2" stroke-linejoin="round" stroke="#000000" stroke-opacity="1" x1="690.531" y1="123.337" x2="708.781" y2="96.837"/>
		<line fill="none" stroke-width="2" stroke-linejoin="round" stroke="#000000" stroke-opacity="1" x1="680.281" y1="148.023" x2="691.031" y2="100.837"/>
		<line fill="none" stroke-width="2" stroke-linejoin="round" stroke="#000000" stroke-opacity="1" x1="666.281" y1="139.837" x2="672.031" y2="76.337"/>
		<line fill="none" stroke-width="2" stroke-linejoin="round" stroke="#000000" stroke-opacity="1" x1="655.031" y1="129.126" x2="658.259" y2="83.337"/>
		<line fill="none" stroke-width="2" stroke-linejoin="round" stroke="#000000" stroke-opacity="1" x1="642.781" y1="120.837" x2="643.031" y2="91.3306"/>
		<line fill="none" stroke-width="2" stroke-linejoin="round" stroke="#000000" stroke-opacity="1" x1="626.448" y1="120.087" x2="626.948" y2="99.587"/>
		<line fill="none" stroke-width="2" stroke-linejoin="round" stroke="#000000" stroke-opacity="1" x1="608.948" y1="124.337" x2="610.698" y2="98.087"/>
		<line fill="none" stroke-width="2" stroke-linejoin="round" stroke="#000000" stroke-opacity="1" x1="593.698" y1="110.228" x2="595.198" y2="76.337"/>
		<path fill="none" stroke-width="2" stroke-linejoin="round" stroke="#000000" stroke-opacity="1" d="M 586.948,126.087C 586.948,124.337 582.668,72.4328 582.668,72.4328"/>
		<line fill="none" stroke-width="2" stroke-linejoin="round" stroke="#000000" stroke-opacity="1" x1="574.698" y1="116.837" x2="572.198" y2="72.4328"/>
		<line fill="none" stroke-width="2" stroke-linejoin="round" stroke="#000000" stroke-opacity="1" x1="560.864" y1="114.087" x2="556.531" y2="72.4328"/>
		<line fill="none" stroke-width="2" stroke-linejoin="round" stroke="#000000" stroke-opacity="1" x1="544.873" y1="101.42" x2="541.531" y2="82.2536"/>
		<line fill="none" stroke-width="2" stroke-linejoin="round" stroke="#000000" stroke-opacity="1" x1="542.864" y1="118.087" x2="533.698" y2="78.4202"/>
		<line fill="none" stroke-width="2" stroke-linejoin="round" stroke="#000000" stroke-opacity="1" x1="525.975" y1="105.587" x2="525.975" y2="91.3306"/>
		<line fill="none" stroke-width="2" stroke-linejoin="round" stroke="#000000" stroke-opacity="1" x1="507.078" y1="115.67" x2="502.698" y2="72.4328"/>
		<line fill="none" stroke-width="2" stroke-linejoin="round" stroke="#000000" stroke-opacity="1" x1="499.364" y1="120.337" x2="483.864" y2="66.837"/>
		<line fill="none" stroke-width="2" stroke-linejoin="round" stroke="#000000" stroke-opacity="1" x1="490.698" y1="119.17" x2="474.198" y2="72.4328"/>
		<line fill="none" stroke-width="2" stroke-linejoin="round" stroke="#000000" stroke-opacity="1" x1="483.364" y1="122.004" x2="476.198" y2="99.6702"/>
		<line fill="none" stroke-width="2" stroke-linejoin="round" stroke="#000000" stroke-opacity="1" x1="471.364" y1="126.004" x2="469.282" y2="100.337"/>
		<line fill="none" stroke-width="2" stroke-linejoin="round" stroke="#000000" stroke-opacity="1" x1="462.281" y1="129.126" x2="450.385" y2="110.228"/>
		<path fill="none" stroke-width="2" stroke-linejoin="round" stroke="#000000" stroke-opacity="1" d="M 450.385,136.42C 450.385,133.795 439.906,104.67 439.906,104.67"/>
		<line fill="none" stroke-width="2" stroke-linejoin="round" stroke="#000000" stroke-opacity="1" x1="440.906" y1="139.795" x2="428.781" y2="114.795"/>
		<path fill="none" stroke-width="2" stroke-linejoin="round" stroke="#000000" stroke-opacity="1" d="M 429.656,144.42C 429.656,143.92 408.656,110.228 408.656,110.228"/>
		<line fill="none" stroke-width="2" stroke-linejoin="round" stroke="#000000" stroke-opacity="1" x1="323.239" y1="223.614" x2="306.239" y2="193.17"/>
		<line fill="none" stroke-width="2" stroke-linejoin="round" stroke="#000000" stroke-opacity="1" x1="321.989" y1="228.42" x2="299.203" y2="192.92"/>
		<line fill="none" stroke-width="2" stroke-linejoin="round" stroke="#000000" stroke-opacity="1" x1="318.101" y1="233.42" x2="287.739" y2="193.17"/>
		<line fill="none" stroke-width="2" stroke-linejoin="round" stroke="#000000" stroke-opacity="1" x1="318.101" y1="242.512" x2="272.489" y2="193.67"/>
		<line fill="none" stroke-width="2" stroke-linejoin="round" stroke="#000000" stroke-opacity="1" x1="302.489" y1="234.42" x2="288.989" y2="217.42"/>
		<line fill="none" stroke-width="2" stroke-linejoin="round" stroke="#000000" stroke-opacity="1" x1="310.989" y1="247.17" x2="270.489" y2="212.42"/>
		<line fill="none" stroke-width="2" stroke-linejoin="round" stroke="#000000" stroke-opacity="1" x1="308.489" y1="252.92" x2="252.239" y2="211.17"/>
		<path fill="none" stroke-width="2" stroke-linejoin="round" stroke="#000000" stroke-opacity="1" d="M 296.239,261.409C 295.239,261.409 270.239,234.42 270.239,234.42"/>
		<line fill="none" stroke-width="2" stroke-linejoin="round" stroke="#000000" stroke-opacity="1" x1="290.239" y1="250.17" x2="255.989" y2="242.512"/>
		<line fill="none" stroke-width="2" stroke-linejoin="round" stroke="#000000" stroke-opacity="1" x1="280.306" y1="280.307" x2="257.989" y2="250.504"/>
		<line fill="none" stroke-width="2" stroke-linejoin="round" stroke="#000000" stroke-opacity="1" x1="280.306" y1="290.254" x2="253.489" y2="265.754"/>
		<line fill="none" stroke-width="2" stroke-linejoin="round" stroke="#000000" stroke-opacity="1" x1="268.239" y1="293.004" x2="247.489" y2="272.504"/>
		<line fill="none" stroke-width="2" stroke-linejoin="round" stroke="#000000" stroke-opacity="1" x1="266.739" y1="307.254" x2="245.739" y2="288.254"/>
		<path fill="none" stroke-width="2" stroke-linejoin="round" stroke="#000000" stroke-opacity="1" d="M 266.489,313.004C 265.489,313.004 242.511,270.754 242.511,270.754"/>
		<line fill="none" stroke-width="2" stroke-linejoin="round" stroke="#000000" stroke-opacity="1" x1="569.073" y1="236.504" x2="563.77" y2="201.254"/>
		<line fill="none" stroke-width="2" stroke-linejoin="round" stroke="#000000" stroke-opacity="1" x1="554.323" y1="237.754" x2="556.073" y2="216.254"/>
		<line fill="none" stroke-width="2" stroke-linejoin="round" stroke="#000000" stroke-opacity="1" x1="538.073" y1="218.504" x2="539.073" y2="201.504"/>
		<path fill="none" stroke-width="2" stroke-linejoin="round" stroke="#000000" stroke-opacity="1" d="M 525.975,226.504C 525.975,226.504 523.323,192.134 518.323,185.819"/>
		<line fill="none" stroke-width="2" stroke-linejoin="round" stroke="#000000" stroke-opacity="1" x1="519.323" y1="223.614" x2="514.573" y2="204.716"/>
		<path fill="none" stroke-width="2" stroke-linejoin="round" stroke="#000000" stroke-opacity="1" d="M 507.078,227.504C 510.323,227.754 507.078,194.504 507.078,194.504"/>
		<line fill="none" stroke-width="2" stroke-linejoin="round" stroke="#000000" stroke-opacity="1" x1="499.573" y1="223.614" x2="494.323" y2="198.254"/>
		<line fill="none" stroke-width="2" stroke-linejoin="round" stroke="#000000" stroke-opacity="1" x1="500.823" y1="195.004" x2="494.573" y2="166.921"/>
		<line fill="none" stroke-width="2" stroke-linejoin="round" stroke="#000000" stroke-opacity="1" x1="510.823" y1="185.819" x2="507.078" y2="166.921"/>
		<line fill="none" stroke-width="2" stroke-linejoin="round" stroke="#000000" stroke-opacity="1" x1="531.823" y1="204.716" x2="525.975" y2="179.004"/>
		<line fill="none" stroke-width="2" stroke-linejoin="round" stroke="#000000" stroke-opacity="1" x1="544.873" y1="190.254" x2="544.873" y2="177.754"/>
		<line fill="none" stroke-width="2" stroke-linejoin="round" stroke="#000000" stroke-opacity="1" x1="551.573" y1="191.254" x2="552.573" y2="166.921"/>
		<line fill="none" stroke-width="2" stroke-linejoin="round" stroke="#000000" stroke-opacity="1" x1="563.77" y1="174.004" x2="571.323" y2="155.004"/>
		<line fill="none" stroke-width="2" stroke-linejoin="round" stroke="#000000" stroke-opacity="1" x1="549.573" y1="161.754" x2="558.823" y2="148.023"/>
		<line fill="none" stroke-width="2" stroke-linejoin="round" stroke="#000000" stroke-opacity="1" x1="540.073" y1="166.921" x2="544.873" y2="134.754"/>
		<line fill="none" stroke-width="2" stroke-linejoin="round" stroke="#000000" stroke-opacity="1" x1="535.323" y1="179.754" x2="533.823" y2="148.023"/>
		<line fill="none" stroke-width="2" stroke-linejoin="round" stroke="#000000" stroke-opacity="1" x1="525.975" y1="161.754" x2="520.573" y2="134.504"/>
		<line fill="none" stroke-width="2" stroke-linejoin="round" stroke="#000000" stroke-opacity="1" x1="519.073" y1="160.004" x2="512.073" y2="144.004"/>
		<line fill="none" stroke-width="2" stroke-linejoin="round" stroke="#000000" stroke-opacity="1" x1="516.073" y1="174.254" x2="507.078" y2="151.754"/>
		<line fill="none" stroke-width="2" stroke-linejoin="round" stroke="#000000" stroke-opacity="1" x1="499.573" y1="162.754" x2="497.323" y2="148.023"/>
		<line fill="none" stroke-width="2" stroke-linejoin="round" stroke="#000000" stroke-opacity="1" x1="565.823" y1="142.087" x2="566.323" y2="129.126"/>
		<line fill="none" stroke-width="2" stroke-linejoin="round" stroke="#000000" stroke-opacity="1" x1="551.323" y1="141.92" x2="556.156" y2="126.087"/>
		<line fill="none" stroke-width="2" stroke-linejoin="round" stroke="#000000" stroke-opacity="1" x1="531.156" y1="137.42" x2="530.989" y2="120.254"/>
		<line fill="none" stroke-width="2" stroke-linejoin="round" stroke="#000000" stroke-opacity="1" x1="509.989" y1="138.254" x2="512.489" y2="119.254"/>
		<line fill="none" stroke-width="2" stroke-linejoin="round" stroke="#000000" stroke-opacity="1" x1="522.489" y1="129.126" x2="518.323" y2="110.228"/>
		<line fill="none" stroke-width="2" stroke-linejoin="round" stroke="#000000" stroke-opacity="1" x1="549.656" y1="125.254" x2="551.489" y2="106.254"/>
		<line fill="none" stroke-width="2" stroke-linejoin="round" stroke="#000000" stroke-opacity="1" x1="516.823" y1="100.754" x2="512.823" y2="72.4328"/>
		<path fill="#000000" fill-opacity="1" stroke-width="2" stroke-linejoin="round" stroke="#000000" stroke-opacity="1" d="M 124.925,510.831C 124.258,510.831 123.572,510.669 122.925,510.831C 122.202,511.012 121.632,511.595 120.925,511.831C 120.119,512.1 119.026,511.73 118.425,512.331C 117.953,512.802 118.425,513.664 118.425,514.331C 118.425,514.998 118.28,515.68 118.425,516.331C 118.62,517.207 118.79,518.196 119.425,518.831C 119.911,519.317 121.044,519.903 121.425,519.331C 121.839,518.711 120.758,517.998 120.425,517.331"/>
		<path fill="#000000" fill-opacity="1" stroke-width="2" stroke-linejoin="round" stroke="#000000" stroke-opacity="1" d="M 47.4249,462.331C 47.9286,462.768 48.7582,462.331 49.4249,462.331C 50.0917,462.331 50.9044,462.747 51.4249,462.331C 51.9615,461.902 51.9249,461.018 51.9249,460.331C 51.9249,459.481 51.9349,458.511 51.4249,457.831C 50.8419,457.053 49.745,456.853 48.9249,456.331C 47.911,455.686 47.1268,454.331 45.9249,454.331C 45.2377,454.331 45.2758,455.66 45.4249,456.331C 45.6356,457.28 46.6176,457.909 46.9249,458.831C 47.2977,459.949 46.5345,461.559 47.4249,462.331 Z "/>
		<path fill="#000000" fill-opacity="1" stroke-width="2" stroke-linejoin="round" stroke="#000000" stroke-opacity="1" d="M 99.2999,383.039C 99.2445,383.261 99.1617,383.479 99.1332,383.706C 99.1058,383.926 99.0231,384.18 99.1332,384.373C 99.2711,384.614 99.5643,384.725 99.7999,384.873C 100.011,385.004 100.245,385.095 100.467,385.206C 100.689,385.317 100.887,385.508 101.133,385.539C 101.361,385.568 101.657,385.551 101.8,385.373C 101.939,385.199 101.825,384.927 101.8,384.706C 101.769,384.424 101.748,384.132 101.633,383.873C 101.52,383.619 101.231,383.466 101.133,383.206C 100.912,382.617 100.429,381.873 99.7999,381.873"/>
		<path fill="#000000" fill-opacity="1" stroke-width="2" stroke-linejoin="round" stroke="#000000" stroke-opacity="1" d="M 108.3,360.706C 108.163,360.948 108.703,361.112 108.8,361.373C 108.878,361.581 108.8,361.817 108.8,362.039C 108.8,362.317 108.687,362.619 108.8,362.873C 108.928,363.16 109.152,363.539 109.467,363.539C 109.696,363.539 109.605,363.1 109.633,362.873C 109.661,362.652 109.633,362.428 109.633,362.206C 109.633,361.984 109.579,361.755 109.633,361.539C 109.694,361.298 110.177,361.004 109.967,360.873C 109.493,360.577 108.574,360.22 108.3,360.706 Z "/>
		<path fill="#000000" fill-opacity="1" stroke-width="2" stroke-linejoin="round" stroke="#000000" stroke-opacity="1" d="M 97.4667,356.039C 96.5341,355.853 94.9672,355.482 94.6332,356.373C 94.3134,357.226 95.9105,357.842 96.7999,358.039C 97.505,358.196 98.566,358.64 98.9667,358.039C 99.0897,357.854 98.9391,357.593 98.9667,357.373C 98.995,357.145 99.0529,356.92 99.1332,356.706C 99.2206,356.473 99.4359,356.286 99.4667,356.039C 99.495,355.812 99.4213,355.567 99.2999,355.373C 98.6107,354.27 96.934,354.039 95.6332,354.039"/>
		<path fill="#000000" fill-opacity="1" stroke-width="2" stroke-linejoin="round" stroke="#000000" stroke-opacity="1" d="M 88.7999,350.873C 88.7428,351.114 88.3881,351.304 88.4667,351.539C 88.5453,351.775 88.8922,351.812 89.1332,351.873C 89.349,351.927 89.7565,352.091 89.7999,351.873C 89.8636,351.555 89.4796,351.309 89.2999,351.039C 89.1459,350.808 89.0634,350.46 88.7999,350.373C 88.642,350.32 88.8383,350.71 88.7999,350.873 Z "/>
		<path fill="#000000" fill-opacity="1" stroke-width="2" stroke-linejoin="round" stroke="#000000" stroke-opacity="1" d="M 107.3,336.706C 107.078,336.65 106.861,336.568 106.633,336.539C 106.413,336.512 106.189,336.539 105.967,336.539C 105.338,336.539 104.555,337.249 104.633,337.873C 104.668,338.148 104.937,338.343 105.133,338.539C 105.33,338.736 105.552,338.915 105.8,339.039C 106.601,339.44 107.767,339.932 108.467,339.373C 108.989,338.955 108.868,337.999 108.633,337.373C 108.379,336.694 107.448,336.53 106.8,336.206"/>
		<path fill="#000000" fill-opacity="1" stroke-width="2" stroke-linejoin="round" stroke="#000000" stroke-opacity="1" d="M 148.133,335.206C 147.065,335.206 145.941,335.851 145.3,336.706C 144.965,337.153 144.925,338.237 145.467,338.373C 145.682,338.427 145.912,338.348 146.133,338.373C 146.415,338.404 146.685,338.511 146.967,338.539C 147.694,338.612 148.578,338.681 149.133,338.206C 149.737,337.688 150.642,336.65 150.133,336.039C 149.987,335.863 149.691,335.918 149.467,335.873C 149.135,335.806 148.799,335.766 148.467,335.706C 147.314,335.496 146.139,335.373 144.967,335.373"/>
		<path fill="#000000" fill-opacity="1" stroke-width="2" stroke-linejoin="round" stroke="#000000" stroke-opacity="1" d="M 112.8,262.289C 112.8,262.623 112.881,262.966 112.8,263.289C 112.71,263.651 112.21,263.928 112.3,264.289C 112.649,265.685 115.629,266.144 116.55,265.039C 117.471,263.934 116.971,261.625 115.8,260.789C 114.16,259.618 111.816,260.039 109.8,260.039"/>
		<path fill="#000000" fill-opacity="1" stroke-width="2" stroke-linejoin="round" stroke="#000000" stroke-opacity="1" d="M 159.55,255.289C 159.55,256.855 160.084,258.99 161.55,259.539C 161.899,259.67 162.204,260.178 162.55,260.039C 162.869,259.912 162.757,259.38 162.8,259.039C 162.841,258.709 162.759,258.37 162.8,258.039C 162.928,257.016 163.089,255.961 163.55,255.039"/>
		<path fill="#000000" fill-opacity="1" stroke-width="2" stroke-linejoin="round" stroke="#000000" stroke-opacity="1" d="M 168.05,185.039C 168.467,185.123 168.897,185.155 169.3,185.289C 169.654,185.407 169.946,185.671 170.3,185.789C 171.355,186.141 172.509,186.149 173.55,186.539C 173.899,186.67 174.55,186.667 174.55,187.039C 174.55,187.373 173.873,187.12 173.55,187.039C 173.188,186.949 172.883,186.706 172.55,186.539C 172.217,186.373 171.899,186.17 171.55,186.039C 171.228,185.919 170.883,185.873 170.55,185.789C 170.217,185.706 169.55,185.883 169.55,185.539C 169.55,185.206 170.29,185.748 170.55,185.539C 170.818,185.325 170.58,184.803 170.8,184.539C 171.442,183.768 173.09,183.58 173.8,184.289C 174.117,184.607 174.349,185.093 174.3,185.539C 174.254,185.953 173.8,186.206 173.55,186.539"/>
		<path fill="#000000" fill-opacity="1" stroke-width="2" stroke-linejoin="round" stroke="#000000" stroke-opacity="1" d="M 198.8,205.039C 198.255,206.471 200.68,208.974 202.05,208.289C 202.383,208.123 202.46,207.651 202.55,207.289C 202.786,206.343 202.441,204.935 201.55,204.539C 201.162,204.367 200.718,204.213 200.3,204.289C 199.75,204.389 198.999,204.517 198.8,205.039 Z "/>
		<path fill="#000000" fill-opacity="1" stroke-width="2" stroke-linejoin="round" stroke="#000000" stroke-opacity="1" d="M 245.175,252.539C 244.814,252.059 244.771,250.965 244.175,251.039C 243.099,251.174 243.283,253.523 244.05,254.289"/>
		<path fill="#000000" fill-opacity="1" stroke-width="2" stroke-linejoin="round" stroke="#000000" stroke-opacity="1" d="M 244.175,233.164C 243.923,233.253 243.68,233.431 243.55,233.664C 243.449,233.846 243.505,234.086 243.55,234.289C 243.724,235.071 244.631,235.888 245.425,235.789C 245.987,235.719 246.355,234.977 246.425,234.414C 246.448,234.229 246.318,234.033 246.175,233.914C 246.043,233.804 245.836,233.85 245.675,233.789C 245.168,233.599 244.686,232.985 244.175,233.164 Z "/>
		<path fill="#000000" fill-opacity="1" stroke-width="2" stroke-linejoin="round" stroke="#000000" stroke-opacity="1" d="M 261.362,225.602C 260.902,225.602 260.356,225.451 259.987,225.727C 259.881,225.807 259.821,225.935 259.737,226.039C 259.654,226.143 259.552,226.235 259.487,226.352C 259.344,226.611 259.881,226.882 260.175,226.914C 260.278,226.926 260.383,226.914 260.487,226.914C 260.675,226.914 260.862,226.914 261.05,226.914C 261.196,226.914 261.343,226.936 261.487,226.914C 261.618,226.894 261.736,226.827 261.862,226.789C 261.945,226.765 262.047,226.782 262.112,226.727C 262.184,226.667 262.263,226.566 262.237,226.477C 262.209,226.377 262.071,226.352 261.987,226.289"/>
		<path fill="#000000" fill-opacity="1" stroke-width="2" stroke-linejoin="round" stroke="#000000" stroke-opacity="1" d="M 256.737,185.456C 257.243,187.478 256.862,189.622 256.862,191.706"/>
		<path fill="#000000" fill-opacity="1" stroke-width="2" stroke-linejoin="round" stroke="#000000" stroke-opacity="1" d="M 279.362,181.956C 278.54,181.682 277.558,183.269 277.862,184.081C 278.061,184.612 278.674,185.144 279.237,185.081C 279.777,185.021 279.981,184.233 280.112,183.706C 280.158,183.525 280.317,183.387 280.362,183.206C 280.403,183.044 280.467,182.836 280.362,182.706C 280.102,182.381 279.758,182.088 279.362,181.956 Z "/>
		<path fill="#000000" fill-opacity="1" stroke-width="2" stroke-linejoin="round" stroke="#000000" stroke-opacity="1" d="M 294.612,173.581C 294.195,173.894 293.749,174.446 293.862,174.956C 294.061,175.848 294.995,176.542 295.862,176.831C 296.039,176.89 296.186,177.14 296.362,177.081C 296.928,176.892 296.72,175.905 297.112,175.456C 297.495,175.019 297.953,174.37 297.737,173.831"/>
		<path fill="#000000" fill-opacity="1" stroke-width="2" stroke-linejoin="round" stroke="#000000" stroke-opacity="1" d="M 305.112,186.206C 304.597,186.206 304.041,186.295 303.612,186.581C 303.161,186.882 302.855,187.426 302.737,187.956C 302.689,188.175 302.512,188.358 302.487,188.581C 302.469,188.752 302.503,188.949 302.612,189.081C 302.95,189.486 303.601,189.453 304.112,189.581C 304.598,189.702 305.124,189.689 305.612,189.581C 306.474,189.389 306.942,187.838 306.487,187.081C 306.035,186.327 305.117,185.706 304.237,185.706"/>
		<path fill="#000000" fill-opacity="1" stroke-width="2" stroke-linejoin="round" stroke="#000000" stroke-opacity="1" d="M 307.904,130.956C 307.007,130.956 305.516,131.065 305.404,131.956C 305.222,133.411 306.648,135.1 308.071,135.456C 309.339,135.773 311.12,135.669 311.904,134.623"/>
		<path fill="#000000" fill-opacity="1" stroke-width="2" stroke-linejoin="round" stroke="#000000" stroke-opacity="1" d="M 311.904,133.123C 311.179,132.687 310.356,132.437 309.571,132.123"/>
		<path fill="#000000" fill-opacity="1" stroke-width="2" stroke-linejoin="round" stroke="#000000" stroke-opacity="1" d="M 331.737,106.956C 331.515,106.956 331.293,106.956 331.071,106.956C 330.849,106.956 330.578,106.817 330.404,106.956C 329.876,107.378 330.298,108.443 330.737,108.956C 330.918,109.167 331.169,109.309 331.404,109.456C 331.615,109.588 331.824,109.82 332.071,109.789C 333.258,109.641 333.404,107.653 333.404,106.456"/>
		<path fill="#000000" fill-opacity="1" stroke-width="2" stroke-linejoin="round" stroke="#000000" stroke-opacity="1" d="M 356.404,115.289C 355.563,115.382 355.107,116.83 355.404,117.623C 355.502,117.883 355.678,118.128 355.904,118.289C 356.09,118.422 356.366,118.354 356.571,118.456C 356.819,118.58 356.966,119.016 357.237,118.956C 357.621,118.871 357.853,118.449 358.071,118.123C 358.306,117.771 358.459,117.364 358.571,116.956C 358.629,116.742 358.7,116.47 358.571,116.289C 358.109,115.642 357.195,115.202 356.404,115.289 Z "/>
		<path fill="#000000" fill-opacity="1" stroke-width="2" stroke-linejoin="round" stroke="#000000" stroke-opacity="1" d="M 360.404,82.1226C 358.292,81.4832 357.181,87.6359 359.154,88.6226C 359.452,88.7717 359.823,88.5812 360.154,88.6226C 360.495,88.6652 360.868,89.0632 361.154,88.8726C 363.038,87.6169 362.571,82.7786 360.404,82.1226 Z "/>
		<path fill="#000000" fill-opacity="1" stroke-width="2" stroke-linejoin="round" stroke="#000000" stroke-opacity="1" d="M 374.904,82.1226C 374.488,82.1226 373.914,81.7972 373.654,82.1226C 372.914,83.0475 374.889,85.482 375.904,84.8726C 376.927,84.2588 376.12,82.4397 376.654,81.3726"/>
		<path fill="#000000" fill-opacity="1" stroke-width="2" stroke-linejoin="round" stroke="#000000" stroke-opacity="1" d="M 328.404,88.8726C 327.403,88.5022 326.298,90.3107 326.404,91.3726C 326.441,91.7435 326.661,92.0896 326.904,92.3726C 327.175,92.689 327.514,92.9762 327.904,93.1226C 328.216,93.2395 328.573,93.0812 328.904,93.1226C 329.245,93.1652 329.597,93.5262 329.904,93.3726C 330.958,92.8455 331.187,90.7535 330.404,89.8726C 329.909,89.3156 329.103,89.1311 328.404,88.8726 Z "/>
		<path fill="#000000" fill-opacity="1" stroke-width="2" stroke-linejoin="round" stroke="#000000" stroke-opacity="1" d="M 335.154,73.1226C 334.834,73.2159 335.037,73.8106 335.154,74.1226C 335.3,74.5127 335.609,74.8279 335.904,75.1226C 336.199,75.4172 337.05,76.2627 336.904,75.8726C 336.523,74.8553 336.197,72.8189 335.154,73.1226 Z "/>
		<path fill="#000000" fill-opacity="1" stroke-width="2" stroke-linejoin="round" stroke="#000000" stroke-opacity="1" d="M 325.654,43.6226C 325.654,45.1319 325.249,46.9152 326.154,48.1226C 326.404,48.4559 326.743,48.9411 327.154,48.8726C 327.522,48.8113 327.488,48.2059 327.654,47.8726C 327.821,47.5392 328.064,47.2342 328.154,46.8726C 328.235,46.5491 328.154,46.2059 328.154,45.8726C 328.154,45.4559 328.2,45.0368 328.154,44.6226C 328.116,44.2811 327.988,43.9559 327.904,43.6226"/>
		<path fill="#000000" fill-opacity="1" stroke-width="2" stroke-linejoin="round" stroke="#000000" stroke-opacity="1" d="M 663.04,32.712C 664.17,33.3898 665.056,34.4992 666.29,34.962C 667.337,35.3545 668.312,34.0049 669.29,33.462C 669.715,33.2259 670.22,33.0777 670.54,32.712C 670.835,32.3742 671.149,31.8973 671.04,31.462C 670.939,31.0577 670.412,30.8982 670.04,30.712C 669.733,30.5583 669.373,30.5452 669.04,30.462"/>
		<path fill="#000000" fill-opacity="1" stroke-width="2" stroke-linejoin="round" stroke="#000000" stroke-opacity="1" d="M 611.29,90.212C 610.873,90.212 610.412,90.0256 610.04,90.212C 609.097,90.6833 608.455,92.3348 609.04,93.212C 609.246,93.522 609.706,93.5452 610.04,93.712C 610.373,93.8786 610.67,94.1657 611.04,94.212C 612.905,94.4451 613.971,89.5528 612.29,88.712"/>
		<path fill="#000000" fill-opacity="1" stroke-width="2" stroke-linejoin="round" stroke="#000000" stroke-opacity="1" d="M 648.29,60.212C 649.068,61.2491 649.88,62.3821 651.04,62.962C 651.338,63.111 651.757,63.1385 652.04,62.962C 652.492,62.679 652.706,62.1286 653.04,61.712"/>
		<path fill="#000000" fill-opacity="1" stroke-width="2" stroke-linejoin="round" stroke="#000000" stroke-opacity="1" d="M 653.29,59.462C 652.956,59.2952 652.639,59.0928 652.29,58.962C 651.968,58.8414 651.623,58.7952 651.29,58.712"/>
		<path fill="#000000" fill-opacity="1" stroke-width="2" stroke-linejoin="round" stroke="#000000" stroke-opacity="1" d="M 821.29,175.962C 821.623,176.129 822.026,176.198 822.29,176.462C 822.633,176.805 822.72,177.346 823.04,177.712C 823.918,178.715 826.3,178.821 827.04,177.712C 827.903,176.417 827.3,173.59 825.79,173.212"/>
		<path fill="#000000" fill-opacity="1" stroke-width="2" stroke-linejoin="round" stroke="#000000" stroke-opacity="1" d="M 847.79,178.712C 846.728,178.607 845.664,179.713 845.29,180.712C 844.937,181.651 846.294,183.086 847.29,182.962C 847.703,182.91 847.995,182.507 848.29,182.212C 848.584,181.917 848.79,181.545 849.04,181.212C 849.29,180.879 849.569,180.565 849.79,180.212C 849.987,179.896 850.588,179.436 850.29,179.212C 849.61,178.702 848.636,178.796 847.79,178.712 Z "/>
		<path fill="#000000" fill-opacity="1" stroke-width="2" stroke-linejoin="round" stroke="#000000" stroke-opacity="1" d="M 900.956,244.543C 899.936,244.543 899.624,246.204 899.456,247.21C 899.4,247.543 899.323,247.874 899.289,248.21C 899.267,248.431 899.132,248.719 899.289,248.877C 899.446,249.033 899.741,248.823 899.956,248.877C 900.741,249.073 901.485,249.632 902.289,249.543C 903.869,249.368 904.412,247.131 905.123,245.71C 905.492,244.971 906.54,243.96 905.956,243.377C 905.278,242.698 904.082,242.877 903.123,242.877"/>
		<path fill="#000000" fill-opacity="1" stroke-width="2" stroke-linejoin="round" stroke="#000000" stroke-opacity="1" d="M 874.789,238.043C 874.567,238.043 874.307,237.92 874.123,238.043C 873.916,238.181 873.849,238.469 873.789,238.71C 873.735,238.925 873.69,239.178 873.789,239.377C 873.93,239.658 874.205,239.855 874.456,240.043C 875.531,240.849 877.164,240.912 878.456,240.543C 879.319,240.297 880.761,240.419 880.956,239.543C 881.021,239.251 880.756,238.977 880.623,238.71C 880.478,238.42 880.313,238.138 880.123,237.877C 879.403,236.887 878.484,235.809 877.289,235.543C 876.395,235.344 875.172,235.477 874.623,236.21"/>
		<path fill="#000000" fill-opacity="1" stroke-width="2" stroke-linejoin="round" stroke="#000000" stroke-opacity="1" d="M 917.123,268.71C 916.892,269.632 916.317,270.717 916.789,271.543C 916.912,271.759 917.214,271.823 917.456,271.877C 917.727,271.937 918.011,271.877 918.289,271.877C 919.168,271.877 920.396,271.829 920.789,271.043C 921.287,270.048 921.307,268.765 920.956,267.71C 920.657,266.814 919.394,266.481 918.456,266.377C 917.689,266.291 916.801,266.853 916.456,267.543"/>
		<path fill="#000000" fill-opacity="1" stroke-width="2" stroke-linejoin="round" stroke="#000000" stroke-opacity="1" d="M 460.206,247.627C 459.57,251.44 458.972,256.393 461.706,259.127C 462.373,259.793 462.952,260.561 463.706,261.127C 464.302,261.574 464.966,262.034 465.706,262.127C 466.388,262.212 467.184,262.074 467.706,261.627C 468.444,260.994 468.734,259.976 469.206,259.127C 470.401,256.975 473.011,255.068 472.706,252.627C 472.408,250.241 468.97,249.435 466.706,248.627C 463.232,247.386 459.895,245.127 456.206,245.127"/>
		<path fill="#000000" fill-opacity="1" stroke-width="2" stroke-linejoin="round" stroke="#000000" stroke-opacity="1" d="M 492.706,242.127C 493.383,244.837 492.429,249.818 495.206,250.127C 498.287,250.469 501.795,245.529 500.706,242.627C 499.893,240.459 496.952,239.688 494.706,239.127"/>
		<path fill="#000000" fill-opacity="1" stroke-width="2" stroke-linejoin="round" stroke="#000000" stroke-opacity="1" d="M 540.706,246.127C 540.539,246.793 540.282,247.443 540.206,248.127C 540.114,248.955 539.722,249.948 540.206,250.627C 540.727,251.357 541.886,251.262 542.706,251.627C 543.387,251.929 544.039,252.293 544.706,252.627"/>
		<path fill="#000000" fill-opacity="1" stroke-width="2" stroke-linejoin="round" stroke="#000000" stroke-opacity="1" d="M 545.706,246.627C 545.039,246.127 544.413,245.568 543.706,245.127C 543.074,244.731 542.373,244.46 541.706,244.127"/>
		<path fill="#000000" fill-opacity="1" stroke-width="2" stroke-linejoin="round" stroke="#000000" stroke-opacity="1" d="M 572.206,185.127C 571.373,185.127 570.451,184.754 569.706,185.127C 568.961,185.499 568.578,186.381 568.206,187.127C 567.311,188.915 566.792,191.712 568.206,193.127C 568.841,193.761 569.988,194.665 570.706,194.127C 571.386,193.617 570.39,192.456 570.206,191.627C 570.057,190.956 569.947,190.27 569.706,189.627C 569.444,188.929 569.039,188.293 568.706,187.627"/>
		<path fill="#000000" fill-opacity="1" stroke-width="2" stroke-linejoin="round" stroke="#000000" stroke-opacity="1" d="M 487.206,143.127C 488.039,143.627 488.91,144.069 489.706,144.627C 490.58,145.238 491.364,145.971 492.206,146.627C 492.864,147.138 493.373,148.127 494.206,148.127C 496.683,148.127 499.479,145.089 499.206,142.627C 499.13,141.944 499.146,141.154 498.706,140.627C 498.229,140.054 497.373,139.96 496.706,139.627C 496.039,139.293 495.373,138.96 494.706,138.627C 494.039,138.293 493.373,137.96 492.706,137.627"/>
		<path fill="#000000" fill-opacity="1" stroke-width="2" stroke-linejoin="round" stroke="#000000" stroke-opacity="1" d="M 575.206,128.627C 574.607,128.919 575.206,129.96 575.206,130.627C 575.206,131.293 575.206,131.96 575.206,132.627C 575.206,133.46 574.744,134.433 575.206,135.127C 575.587,135.698 576.535,135.776 577.206,135.627C 578.155,135.416 579.141,134.917 579.706,134.127C 580.093,133.584 580.128,132.642 579.706,132.127C 578.503,130.656 576.913,127.792 575.206,128.627 Z "/>
		<path fill="#000000" fill-opacity="1" stroke-width="2" stroke-linejoin="round" stroke="#000000" stroke-opacity="1" d="M 991.169,254.131C 994.207,254.89 995.169,259.499 995.169,262.631"/>
		<path fill="#000000" fill-opacity="1" stroke-width="2" stroke-linejoin="round" stroke="#000000" stroke-opacity="1" d="M 990.417,255.123C 991.407,257.104 991.101,259.808 992.667,261.373"/>
		<path fill="#000000" fill-opacity="1" stroke-width="2" stroke-linejoin="round" stroke="#000000" stroke-opacity="1" d="M 61.8334,632.457C 63.1666,632.457 64.4999,632.457 65.8334,632.457C 67.1666,632.457 68.4999,632.457 69.8334,632.457C 71.1666,632.457 75.1666,632.457 73.8334,632.457C 69.7103,632.457 65.8334,630.457 61.8334,629.457C 60.4999,629.123 59.1971,628.627 57.8334,628.457C 56.5101,628.291 54.1566,629.75 53.8334,628.457C 52.8871,624.672 60.9318,624.457 64.8334,624.457"/>
		<path fill="#000000" fill-opacity="1" stroke-width="2" stroke-linejoin="round" stroke="#000000" stroke-opacity="1" d="M 3.33325,588.623C 3.33325,589.975 3.12024,591.597 4,592.623C 4.87964,593.65 6.6886,593.618 8,593.29"/>
		<path fill="#000000" fill-opacity="1" stroke-width="2" stroke-linejoin="round" stroke="#000000" stroke-opacity="1" d="M 1.66663,589.957C 1.44446,590.401 0.842896,590.819 1,591.29C 1.15698,591.761 1.88879,591.734 2.33325,591.957"/>
	</g>
</svg>
