<?xml version="1.0" encoding="utf-8"?>
<!DOCTYPE svg PUBLIC "-//W3C//DTD SVG 1.1//EN" "http://www.w3.org/Graphics/SVG/1.1/DTD/svg11.dtd">
<svg xmlns="http://www.w3.org/2000/svg" xmlns:xlink="http://www.w3.org/1999/xlink" version="1.1" baseProfile="full" width="652.968" height="644.52" viewBox="0 0 652.97 644.52" enable-background="new 0 0 652.97 644.52" xml:space="preserve">
	<g>
		<path fill="#FFFFFF" fill-opacity="1" stroke-width="2" stroke-linejoin="round" stroke="#000000" stroke-opacity="1" d="M 1,397.85L 189.976,378.952L 198.425,208.874L 19.8976,227.771L 1,397.85 Z "/>
		<path fill="#FFFFFF" fill-opacity="1" stroke-width="2" stroke-linejoin="round" stroke="#000000" stroke-opacity="1" d="M 446.095,643.519L 635.071,624.622L 643.52,454.543L 464.993,473.441L 446.095,643.519 Z "/>
		<path fill="#FFFFFF" fill-opacity="1" stroke-width="2" stroke-linejoin="round" stroke="#000000" stroke-opacity="1" d="M 238.221,189.976L 405.758,189.976L 435.645,0.999756L 246.669,19.8972L 238.221,189.976 Z "/>
		<path fill="#FFFFFF" fill-opacity="1" stroke-width="2" stroke-linejoin="round" stroke="#000000" stroke-opacity="1" d="M 463.923,406.548L 624.622,416.748L 651.968,171.078L 462.992,189.976L 463.923,406.548 Z "/>
		<path fill="#FFFFFF" fill-opacity="1" stroke-width="2" stroke-linejoin="round" stroke="#000000" stroke-opacity="1" d="M 227.771,397.85L 395.309,397.85L 425.196,208.874L 236.22,227.771L 227.771,397.85 Z "/>
		<path fill="#FFFFFF" fill-opacity="1" stroke-width="2" stroke-linejoin="round" stroke="#000000" stroke-opacity="1" d="M 227.771,643.519L 395.309,643.519L 425.196,454.543L 236.22,473.44L 227.771,643.519 Z "/>
		<path fill="#FFFFFF" fill-opacity="1" stroke-width="2" stroke-linejoin="round" stroke="#000000" stroke-opacity="1" d="M 11.4489,595.493L 178.986,595.493L 208.874,406.517L 19.8975,425.414L 11.4489,595.493 Z "/>
	</g>
</svg>
