<?xml version="1.0" encoding="utf-8"?>
<!DOCTYPE svg PUBLIC "-//W3C//DTD SVG 1.1//EN" "http://www.w3.org/Graphics/SVG/1.1/DTD/svg11.dtd">
<svg xmlns="http://www.w3.org/2000/svg" xmlns:xlink="http://www.w3.org/1999/xlink" version="1.1" baseProfile="full" width="406.013" height="405.445" viewBox="0 0 406.01 405.44" enable-background="new 0 0 406.01 405.44" xml:space="preserve">
	<g>
		<path fill="#000000" fill-opacity="1" stroke-linejoin="round" stroke="#000000" stroke-opacity="1" d="M 5.01294,189.198C 6.36346,189.882 134.329,132.698 405.513,186.698C 402.013,178.173 237.521,386.047 237.521,386.047L 223.154,404.944C 223.154,404.944 223.154,386.048 204.256,386.047L 185.358,386.047L 174.353,357.701C 174.353,357.7 -32.6471,202.229 5.01294,189.198 Z "/>
		<path fill="#000000" fill-opacity="1" stroke-linejoin="round" stroke="#000000" stroke-opacity="1" d="M 197.526,172.79L 208.026,140.378L 218.276,175.289L 230.026,172.289C 230.026,172.289 228.302,133.987 228.427,121.479C 228.54,110.199 227.776,87.0391 227.776,87.0391L 204.256,83.6846L 190.776,140.378L 185.359,171.289L 197.526,172.79 Z "/>
		<path fill="#000000" fill-opacity="1" stroke-linejoin="round" stroke="#000000" stroke-opacity="1" d="M 199.776,91.79L 192.443,96.29L 191.109,105.79L 187.943,115.956L 186.484,115.04L 187.234,108.04C 187.234,108.04 179.568,109.29 179.859,107.081C 180.151,104.872 180.193,104.497 182.026,103.54C 183.859,102.583 183.068,99.665 181.276,98.9561C 179.484,98.248 178.401,100.29 178.401,100.29"/>
		<path fill="#000000" fill-opacity="1" stroke-linejoin="round" stroke="#000000" stroke-opacity="1" d="M 229.776,98.7314L 229.912,99.6914L 231.901,113.731L 232.401,120.772L 234.443,121.48L 234.359,116.48C 234.359,116.48 238.417,119.583 239.234,119.063C 240.051,118.546 241.327,118.647 240.051,114.272C 238.776,109.897 231.526,53.835 231.526,53.835L 227.776,82.335"/>
		<path fill="#000000" fill-opacity="1" stroke-linejoin="round" stroke="#000000" stroke-opacity="1" d="M 182.484,94.6865L 192.734,99.2695L 200.818,72.4355L 195.651,92.2686C 195.651,92.2686 227.984,92.8525 229.901,94.6025C 231.818,96.3525 230.484,85.5186 230.484,85.5186L 231.734,69.623L 233.755,93.248L 246.588,92.998L 232.109,45.0811L 225.213,30.8525L 198.005,33.9561C 198.005,33.9561 190.88,36.957 192.63,48.8311C 194.38,60.7061 184.13,93.6641 182.484,94.6865 Z "/>
		<path fill="#000000" fill-opacity="1" stroke-linejoin="round" stroke="#000000" stroke-opacity="1" d="M 217.151,34.665L 215.776,29.165C 215.776,29.165 218.607,28.5693 220.651,21.29C 222.695,14.0107 222.151,10.415 217.526,6.16504C 212.901,1.91309 203.901,-4.52246 199.214,6.79004C 194.526,18.1006 199.714,21.3525 202.464,22.915C 205.214,24.4775 203.798,26.1025 203.798,26.1025L 203.798,32.9092L 217.151,34.665 Z "/>
		<path fill="#FFFFFF" fill-opacity="1" stroke-linejoin="round" stroke="#000000" stroke-opacity="1" d="M 200.506,24.665L 220.318,23.165C 220.318,23.165 224.006,20.665 223.943,25.2275C 223.88,29.79 222.695,32.1025 222.695,32.1025L 198.88,32.9092L 202.386,31.29L 197.979,32.9092L 211.636,32.4463L 212.61,35.8936C 212.61,35.8936 199.319,38.332 192.11,41.4561C 184.9,44.5811 174.443,63.2695 152.568,58.7686C 130.693,54.2686 119.443,54.7695 120.568,26.2686C 120.568,26.2686 113.443,66.585 138.693,68.6436C 163.943,70.7041 172.068,51.8057 172.068,51.8057C 172.068,51.8057 187.86,32.374 194.985,31.623C 202.11,30.873 200.386,24.415 200.386,24.415"/>
	</g>
</svg>
