<?xml version="1.0" encoding="utf-8"?>
<!DOCTYPE svg PUBLIC "-//W3C//DTD SVG 1.1//EN" "http://www.w3.org/Graphics/SVG/1.1/DTD/svg11.dtd">
<svg xmlns="http://www.w3.org/2000/svg" xmlns:xlink="http://www.w3.org/1999/xlink" version="1.1" baseProfile="full" width="437.239" height="378.952" viewBox="0 0 437.24 378.95" enable-background="new 0 0 437.24 378.95" xml:space="preserve">
	<g>
		<path fill="#000000" fill-opacity="1" stroke-linejoin="round" stroke="#000000" stroke-opacity="1" d="M 19.3976,0.5C 19.3976,0.5 151.681,49.8555 227.272,48.5215C 302.862,47.1875 435.146,67.8535 435.146,67.8535C 435.146,67.8535 442.957,74.0215 424.457,80.6875C 405.957,87.3535 359.555,103.438 359.555,103.438C 359.555,103.438 341.707,132.938 330.207,146.438C 318.707,159.938 281.207,170.579 277.707,170.578C 274.207,170.578 214.95,288.354 170.579,292.104C 126.207,295.854 94.9882,378.453 94.9882,378.453L 0.5,378.453L 0.5,3.85352L 19.3976,0.5 Z "/>
		<path fill="#FFFFFF" fill-opacity="1" stroke-linejoin="round" stroke="#E3E3E3" stroke-opacity="1" d="M 343.036,49.2051C 343.036,49.2051 330.733,102.317 320.76,110.886C 310.786,119.454 278.036,125.658 276.786,148.681C 275.536,171.704 256.536,173.454 256.536,173.454C 256.536,173.454 211.378,204.621 207.374,227.371C 203.37,250.121 200.37,269.371 200.37,269.371L 194.12,272.121C 194.12,272.121 196.865,223.621 202.12,216.871C 207.374,210.121 255.014,162.371 264.067,162.371C 273.12,162.371 271.12,141.371 272.12,137.871C 273.12,134.371 279.62,125.371 279.62,125.371L 317.703,107.871L 342.87,48.3711"/>
		<path fill="#FFFFFF" fill-opacity="1" stroke-linejoin="round" stroke="#E3E3E3" stroke-opacity="1" d="M 18.3976,285.455L 98.453,186.477C 98.453,186.476 127.12,100.227 124.453,73.0898C 121.786,45.9541 125.453,48.9541 125.453,48.9541C 125.453,48.9541 57.1196,196.793 30.453,205.373C 3.78629,213.954 3.78629,252.287 3.78629,252.287L 18.3976,285.455 Z "/>
		<path fill="#FFFFFF" fill-opacity="1" stroke-linejoin="round" stroke="#E3E3E3" stroke-opacity="1" d="M 9.11963,318.76C 9.11962,318.76 93.9882,243.17 112.886,224.271C 131.783,205.373 131.783,129.783 131.783,129.783L 197.786,84.2871L 137.786,129.783C 137.786,129.783 144.286,158.035 140.786,167.578C 137.286,177.121 142.853,238.551 127.87,243.169C 112.886,247.787 79.203,299.861 79.203,299.861L 106.87,286.121L 100.87,309.121L 131.783,293.787L 102.37,318.76L 162.203,287.037L 112.886,340.787C 112.886,340.787 102.751,356.555 98.3696,356.555C 93.9882,356.555 49.8696,364.287 49.8696,364.287L 9.11963,318.76 Z "/>
	</g>
</svg>
