<?xml version="1.0" encoding="utf-8"?>
<!DOCTYPE svg PUBLIC "-//W3C//DTD SVG 1.1//EN" "http://www.w3.org/Graphics/SVG/1.1/DTD/svg11.dtd">
<svg xmlns="http://www.w3.org/2000/svg" xmlns:xlink="http://www.w3.org/1999/xlink" version="1.1" baseProfile="full" width="499.772" height="760.633" viewBox="0 0 499.77 760.63" enable-background="new 0 0 499.77 760.63" xml:space="preserve">
	<g>
		<path fill="#FFFFFF" fill-opacity="1" stroke-linejoin="round" stroke="#000000" stroke-opacity="1" d="M 299.98,122.723C 299.98,122.722 306.605,139.411 319.98,136.098C 333.355,132.784 329.73,119.472 329.73,119.472L 328.688,91.6807C 328.688,91.6807 321.688,87.623 318.563,91.3057C 315.438,94.9883 303.362,113.886 303.362,113.886L 299.98,122.723 Z "/>
		<path fill="#FFFFFF" fill-opacity="1" stroke-linejoin="round" stroke="#000000" stroke-opacity="1" d="M 465.272,256.431L 484.897,243.306C 484.897,243.306 499.022,255.454 499.272,265.067C 499.522,274.681 492.339,281.806 492.339,281.806C 492.339,281.806 484.272,273.931 484.772,273.931C 485.271,273.929 482.272,267.681 482.272,267.681L 475.647,265.067L 465.272,256.431 Z "/>
		<path fill="#FFFFFF" fill-opacity="1" stroke-linejoin="round" stroke="#000000" stroke-opacity="1" d="M 420.501,282.473C 420.501,282.472 431.376,295.005 432.251,302.863C 433.126,310.722 437.751,314.097 437.751,314.097C 437.751,314.097 426.245,320.348 416.748,313.722C 407.251,307.097 406.126,306.347 406.126,306.347C 406.126,306.347 394.501,310.223 392.501,305.597C 390.501,300.972 392.901,300.598 395.376,300.347C 397.85,300.097 406.251,294.722 406.251,294.722L 416.748,283.965L 420.501,282.473 Z "/>
		<path fill="#FFFFFF" fill-opacity="1" stroke-linejoin="round" stroke="#000000" stroke-opacity="1" d="M 407.459,365.056C 407.459,365.056 412.959,372.603 411.959,378.454C 410.959,384.306 423.459,372.056 423.459,372.056L 407.459,365.056 Z "/>
		<path fill="#FFFFFF" fill-opacity="1" stroke-linejoin="round" stroke="#000000" stroke-opacity="1" d="M 405.562,490.154C 405.562,490.153 411.312,489.149 415.062,491.839C 418.812,494.528 420.625,497.904 418.687,499.403C 416.748,500.903 416.562,502.154 413.437,502.153C 410.312,502.153 402.562,495.154 403.062,495.153C 403.562,495.153 405.937,491.839 405.937,491.839L 405.562,490.154 Z "/>
		<path fill="#FFFFFF" fill-opacity="1" stroke-linejoin="round" stroke="#000000" stroke-opacity="1" d="M 290.728,465.404C 290.728,465.403 290.894,465.161 291.202,464.722C 294.166,460.495 310.301,438.093 318.228,439.904C 326.978,441.903 341.157,462.903 341.157,462.903L 346.228,485.153C 346.228,485.153 332.228,490.904 325.228,488.403C 318.228,485.903 303.362,477.403 303.362,477.403L 290.728,465.404 Z "/>
		<path fill="#FFFFFF" fill-opacity="1" stroke-linejoin="round" stroke="#000000" stroke-opacity="1" d="M 390.728,629.55C 390.728,629.55 417.478,612.478 421.478,618.3C 425.478,624.122 422.978,628.8 422.978,628.8L 408.728,638.3L 397.85,635.55L 390.728,629.55 Z "/>
		<path fill="#FFFFFF" fill-opacity="1" stroke-linejoin="round" stroke="#000000" stroke-opacity="1" d="M 332.062,732.134C 332.062,732.133 345.812,742.361 347.062,749.384C 348.312,756.406 354.812,760.133 354.812,760.133C 354.812,760.133 375.594,721.134 378.953,721.633C 382.312,722.133 368.562,718.611 368.562,718.611L 349.562,726.633L 332.062,732.134 Z "/>
		<path fill="#FFFFFF" fill-opacity="1" stroke-linejoin="round" stroke="#000000" stroke-opacity="1" d="M 246.669,680.816C 246.669,680.815 272.562,681.218 275.562,683.967C 278.562,686.717 296.062,680.815 296.062,680.815L 309.312,684.467C 309.312,684.467 295.117,718.611 284.464,718.611C 273.812,718.611 257.454,705.721 252.062,702.717L 246.669,699.713L 246.669,680.816 Z "/>
		<path fill="#FFFFFF" fill-opacity="1" stroke-linejoin="round" stroke="#000000" stroke-opacity="1" d="M 196.812,707.217C 196.812,707.217 211.312,697.968 216.812,694.967C 222.312,691.967 239.812,684.217 239.812,684.217L 246.669,672.967C 246.669,672.967 243.562,673.967 238.062,673.717C 232.562,673.467 227.772,664.967 227.772,664.967C 227.772,664.967 221.749,668.217 215.312,669.467C 208.874,670.717 193.312,680.815 193.312,680.815L 189.976,699.713L 196.812,707.217 Z "/>
		<path fill="#FFFFFF" fill-opacity="1" stroke-linejoin="round" stroke="#000000" stroke-opacity="1" d="M 329.478,639.717C 329.478,639.716 334.603,639.95 332.728,643.021C 330.853,646.091 325.603,648.466 325.603,648.466L 325.978,643.021L 329.478,639.717 Z "/>
		<path fill="#FFFFFF" fill-opacity="1" stroke-linejoin="round" stroke="#000000" stroke-opacity="1" d="M 123.894,580.14C 123.894,580.139 139.108,576.89 145.644,570.64C 152.181,564.389 235.144,465.972 235.144,465.972C 235.144,465.972 246.669,463.306 246.669,426.972C 246.669,390.639 277.31,208.374 277.31,208.374C 277.31,208.374 284.465,170.989 265.567,194.989C 246.669,218.989 189.976,346.822 189.976,346.822C 189.976,346.821 226.287,149.834 236.478,122.411C 246.669,94.9883 224.645,111.32 223.145,113.886C 221.645,116.452 214.02,119.827 214.02,119.827L 218.895,97.9521C 218.895,97.9521 246.669,46.5557 246.669,38.2959C 246.669,30.0361 208.874,0.5 208.874,0.5C 208.874,0.5 171.079,47.7373 133.283,113.886C 95.4882,180.036 1,435.146 1,435.146L 38.7953,529.634L 86.8984,529.634L 123.894,580.14 Z "/>
		<path fill="#000000" fill-opacity="1" stroke-linejoin="round" d="M 0,432.146L 151.181,35.2959L 170.079,54.1924L 37.7953,413.247L 56.6929,451.043L 113.386,318.759L 126.439,389.248L 180.439,224.271L 94.4882,517.748L 37.7953,526.634L 0,432.146 Z "/>
		<line fill="none" stroke-linejoin="round" stroke="#000000" stroke-opacity="1" x1="107.106" y1="347.749" x2="170.079" y2="174.749"/>
		<path fill="#000000" fill-opacity="1" stroke-linejoin="round" stroke="#000000" stroke-opacity="1" d="M 104.606,451.044L 188.976,356.556L 234.106,451.043L 139.608,564.429L 123.108,577.406L 94.4882,499.406L 104.606,451.044 Z "/>
		<line fill="none" stroke-linejoin="round" stroke="#000000" stroke-opacity="1" x1="56.6929" y1="432.146" x2="170.079" y2="154.573"/>
		<path fill="#000000" fill-opacity="1" stroke-linejoin="round" stroke="#000000" stroke-opacity="1" d="M 318.506,445.774L 318.92,446.302L 329.881,460.274C 329.881,460.274 336.131,478.524 335.506,478.524C 334.881,478.524 300.381,469.94 300.381,469.94"/>
		<path fill="#000000" fill-opacity="1" stroke-linejoin="round" stroke="#000000" stroke-opacity="1" d="M 411.423,299.862L 422.673,287.899L 406.173,299.862L 411.423,305.149L 411.423,299.862 Z "/>
		<path fill="#000000" fill-opacity="1" stroke-linejoin="round" stroke="#000000" stroke-opacity="1" d="M 491.339,266.399L 495.923,262.067L 491.339,273.149L 484.923,271.399L 491.339,266.399 Z "/>
		<path fill="#000000" fill-opacity="1" stroke-linejoin="round" stroke="#000000" stroke-opacity="1" d="M 254.256,684.15L 298.756,683.65L 270.756,707.982L 251.589,687.649L 254.256,684.15 Z "/>
	</g>
</svg>
