<?xml version="1.0" encoding="utf-8"?>
<!DOCTYPE svg PUBLIC "-//W3C//DTD SVG 1.1//EN" "http://www.w3.org/Graphics/SVG/1.1/DTD/svg11.dtd">
<svg xmlns="http://www.w3.org/2000/svg" xmlns:xlink="http://www.w3.org/1999/xlink" version="1.1" baseProfile="full" width="1290.13" height="774.915" viewBox="0 0 1290.13 774.92" enable-background="new 0 0 1290.13 774.92" xml:space="preserve">
	<g>
		<path fill="#000000" fill-opacity="1" stroke-width="2" stroke-linejoin="round" stroke="#000000" stroke-opacity="1" d="M 556.65,508.478C 556.143,508.478 555.535,508.397 555.15,508.728C 555.027,508.833 554.972,508.999 554.9,509.145C 554.833,509.278 554.806,509.43 554.733,509.561C 554.297,510.346 553.733,511.163 553.733,512.061C 553.733,512.729 553.691,513.743 554.316,513.978C 555.206,514.311 556.23,513.678 557.066,513.228C 557.898,512.78 558.504,511.667 558.4,510.728C 558.341,510.2 557.78,509.819 557.316,509.561C 556.877,509.317 556.31,509.493 555.816,509.395"/>
		<path fill="#000000" fill-opacity="1" stroke-width="2" stroke-linejoin="round" stroke="#000000" stroke-opacity="1" d="M 587.066,520.645C 586.455,521.256 585.712,521.758 585.233,522.478C 584.867,523.027 584.692,523.685 584.483,524.311C 584.36,524.681 584.146,525.182 584.4,525.478C 584.749,525.885 585.376,525.944 585.9,526.061C 586.582,526.213 587.295,526.436 587.983,526.311C 588.798,526.163 589.563,525.485 589.9,524.728C 590.036,524.422 589.858,524.06 589.816,523.728C 589.701,522.803 589.439,521.555 588.566,521.228C 587.827,520.95 586.586,520.938 586.233,521.645"/>
		<path fill="#000000" fill-opacity="1" stroke-width="2" stroke-linejoin="round" stroke="#000000" stroke-opacity="1" d="M 992.24,500.311C 992.018,500.311 991.794,500.284 991.574,500.311C 991.346,500.34 991.083,500.331 990.907,500.478C 990.134,501.122 990.123,502.578 990.574,503.478C 991.04,504.411 992.388,504.584 993.407,504.811C 994.168,504.98 995.141,505.477 995.74,504.978C 995.958,504.796 995.817,504.413 995.907,504.145C 996.121,503.503 996.576,502.731 996.24,502.145C 995.599,501.022 994.032,500.478 992.74,500.478C 992.462,500.478 992.185,500.478 991.907,500.478C 991.629,500.478 991.351,500.478 991.074,500.478C 990.796,500.478 990.364,500.229 990.24,500.478C 990.083,500.792 990.462,501.145 990.574,501.478"/>
		<path fill="#000000" fill-opacity="1" stroke-width="2" stroke-linejoin="round" stroke="#000000" stroke-opacity="1" d="M 1028.24,484.645C 1028.02,484.645 1027.8,484.645 1027.57,484.645C 1027.35,484.645 1027.1,484.534 1026.91,484.645C 1025.84,485.253 1025.94,487.259 1026.57,488.311C 1027.3,489.526 1029.01,489.891 1030.41,490.145C 1031.43,490.33 1032.45,491.387 1033.41,490.978C 1034.32,490.586 1034.43,489.254 1034.74,488.311C 1034.97,487.618 1035.5,486.739 1035.07,486.145C 1033.72,484.247 1030.57,484.645 1028.24,484.645 Z "/>
		<path fill="#000000" fill-opacity="1" stroke-width="2" stroke-linejoin="round" stroke="#000000" stroke-opacity="1" d="M 633.65,272.77C 633.374,272.803 633.71,273.331 633.65,273.603C 633.451,274.497 632.573,275.45 632.983,276.27C 633.662,277.627 635.763,278.719 637.15,278.103C 638.001,277.725 638.4,276.269 637.983,275.436C 637.506,274.481 636.525,273.668 635.483,273.436C 635.212,273.375 634.927,273.436 634.65,273.436C 634.372,273.436 634.047,273.59 633.816,273.436C 633.626,273.309 633.877,272.741 633.65,272.77 Z "/>
		<path fill="#000000" fill-opacity="1" stroke-width="2" stroke-linejoin="round" stroke="#000000" stroke-opacity="1" d="M 573.316,231.27C 572.8,231.915 572.818,232.848 572.483,233.603C 571.996,234.698 571.163,236.007 571.65,237.103C 572.389,238.766 574.537,239.555 576.316,239.936C 576.764,240.032 577.197,240.2 577.65,240.27C 577.924,240.312 578.207,240.239 578.483,240.27C 578.711,240.295 578.921,240.436 579.15,240.436C 579.433,240.436 579.783,240.47 579.983,240.27C 580.14,240.112 579.983,239.825 579.983,239.603C 579.983,239.214 579.983,238.825 579.983,238.436C 579.983,237.641 579.712,236.864 579.483,236.103C 579.055,234.675 578.605,233.084 577.483,232.103C 576.129,230.918 573.949,231.27 572.15,231.27"/>
		<path fill="#000000" fill-opacity="1" stroke-width="2" stroke-linejoin="round" stroke="#000000" stroke-opacity="1" d="M 672.733,232.353C 672.613,232.727 671.989,232.68 671.733,232.978C 671.361,233.412 671.421,234.093 671.421,234.665C 671.421,235.103 671.282,235.563 671.421,235.978C 671.533,236.314 671.927,236.486 672.233,236.665C 672.727,236.954 673.398,237.21 673.921,236.978C 674.587,236.682 674.809,235.821 675.233,235.228C 675.576,234.748 676.001,234.292 676.171,233.728C 676.37,233.062 676.292,232.208 675.858,231.665C 675.41,231.104 674.638,230.728 673.921,230.728C 673.52,230.728 672.945,230.575 672.733,230.915C 672.479,231.321 672.879,231.896 672.733,232.353 Z "/>
		<path fill="#000000" fill-opacity="1" stroke-width="2" stroke-linejoin="round" stroke="#000000" stroke-opacity="1" d="M 747.545,229.04C 747.407,229.124 747.25,229.183 747.129,229.29C 746.996,229.409 746.928,229.588 746.795,229.707C 746.375,230.081 745.716,230.174 745.379,230.624C 744.87,231.302 744.314,231.985 744.045,232.79C 743.747,233.687 744.316,235.075 745.212,235.374C 745.871,235.593 746.688,235.711 747.295,235.374C 747.933,235.02 748.33,234.328 748.712,233.707C 749.246,232.839 749.632,231.888 750.045,230.957C 750.309,230.364 750.701,229.604 750.379,229.04C 750.317,228.932 750.154,228.934 750.045,228.874C 749.904,228.795 749.771,228.701 749.629,228.624C 748.959,228.258 748.142,228.207 747.379,228.207C 747.044,228.207 746.588,228.029 746.379,228.29C 746.171,228.551 746.379,228.957 746.379,229.29"/>
		<path fill="#000000" fill-opacity="1" stroke-width="2" stroke-linejoin="round" stroke="#000000" stroke-opacity="1" d="M 389.545,391.874C 389.388,392.03 389.094,391.819 388.879,391.874C 388.638,391.934 388.371,392.016 388.212,392.207C 388.065,392.383 388.071,392.646 388.045,392.874C 388.015,393.149 387.958,393.443 388.045,393.707C 388.485,395.024 390.201,395.471 391.379,396.207C 392.202,396.721 393.269,397.956 394.045,397.374C 394.223,397.24 394.045,396.929 394.045,396.707C 394.045,396.429 394.045,396.151 394.045,395.874C 394.045,394.258 392.248,393.063 390.879,392.207C 390.49,391.964 389.869,391.549 389.545,391.874 Z "/>
		<path fill="#000000" fill-opacity="1" stroke-width="2" stroke-linejoin="round" stroke="#000000" stroke-opacity="1" d="M 374.879,421.707C 374.657,421.707 374.428,421.653 374.212,421.707C 373.971,421.768 373.721,421.864 373.545,422.04C 373.068,422.518 373.048,423.385 373.212,424.04C 373.423,424.884 374.702,424.996 375.545,425.207C 376.423,425.426 377.403,426.111 378.212,425.707C 379.414,425.106 378.806,422.488 377.712,421.707C 376.352,420.735 374.55,420.374 372.879,420.374"/>
		<path fill="#000000" fill-opacity="1" stroke-width="2" stroke-linejoin="round" stroke="#000000" stroke-opacity="1" d="M 289.379,415.04C 289.157,415.096 288.939,415.178 288.712,415.207C 288.492,415.234 288.238,415.097 288.046,415.207C 287.804,415.345 287.658,415.62 287.546,415.874C 287.43,416.133 287.434,416.429 287.379,416.707C 287.226,417.471 286.825,418.363 287.212,419.04C 287.582,419.688 288.473,419.948 289.212,420.04C 289.894,420.125 290.529,420.616 291.212,420.54C 291.494,420.509 291.777,420.463 292.046,420.374C 292.281,420.295 292.568,420.243 292.712,420.04C 293.265,419.266 293.153,417.76 292.379,417.207C 290.931,416.173 288.956,416.223 287.212,415.874"/>
		<path fill="#000000" fill-opacity="1" stroke-width="2" stroke-linejoin="round" stroke="#000000" stroke-opacity="1" d="M 120.441,500.228C 119.89,500.228 119.258,500.209 118.816,500.54C 118.722,500.611 118.65,500.707 118.566,500.79C 118.462,500.895 118.364,501.005 118.254,501.103C 117.684,501.61 116.756,502.237 116.941,502.978C 117.048,503.404 117.64,503.559 118.066,503.665C 118.618,503.803 119.19,503.845 119.754,503.915C 120.236,503.976 120.717,504.271 121.191,504.165C 122.054,503.973 122.671,503.081 123.066,502.29C 123.27,501.883 123.601,501.403 123.441,500.978C 123.322,500.66 123.057,500.379 122.754,500.228C 122.381,500.041 121.909,500.266 121.504,500.165C 120.997,500.038 120.464,500.04 119.941,500.04"/>
		<path fill="#000000" fill-opacity="1" stroke-width="2" stroke-linejoin="round" stroke="#000000" stroke-opacity="1" d="M 382.711,506.499C 382.119,507.209 382.023,508.262 382.023,509.186C 382.023,509.667 381.933,510.193 382.148,510.624C 382.513,511.353 383.454,511.633 384.211,511.936C 384.958,512.235 385.838,512.672 386.586,512.374C 386.888,512.252 387.121,511.993 387.336,511.749C 387.581,511.468 387.681,511.088 387.836,510.749C 388.287,509.755 388.586,508.653 388.586,507.561C 388.586,506.895 388.821,506.157 388.523,505.561C 388.286,505.086 387.778,504.793 387.336,504.499C 386.94,504.234 386.482,504.061 386.023,503.936C 385.541,503.805 384.877,503.583 384.523,503.936C 384.299,504.161 384.33,504.551 384.148,504.811C 383.639,505.539 382.994,506.163 382.461,506.874"/>
		<path fill="#000000" fill-opacity="1" stroke-width="2" stroke-linejoin="round" stroke="#000000" stroke-opacity="1" d="M 482.898,675.999C 482.565,675.999 482.231,675.999 481.898,675.999C 481.565,675.999 481.181,675.822 480.898,675.999C 480.446,676.281 480.137,676.771 479.898,677.249C 479.708,677.629 479.821,678.11 479.648,678.499C 479.113,679.702 478.129,680.652 477.398,681.749C 476.754,682.714 475.504,684.033 476.148,684.999C 476.81,685.991 478.236,686.23 479.398,686.499C 480.068,686.653 480.731,686.832 481.398,686.999C 481.731,687.082 482.055,687.249 482.398,687.249C 484.541,687.249 484.65,683.004 483.898,680.999C 483.108,678.891 480.662,677.756 478.648,676.749"/>
		<path fill="#000000" fill-opacity="1" stroke-width="2" stroke-linejoin="round" stroke="#000000" stroke-opacity="1" d="M 619.898,613.124C 619.368,613.124 618.989,613.764 618.773,614.249C 618.559,614.73 618.066,615.264 618.273,615.749C 618.673,616.681 620.133,616.749 621.148,616.749C 621.816,616.749 622.564,616.948 623.148,616.624C 623.381,616.494 623.525,616.223 623.773,616.124C 623.967,616.046 624.199,616.184 624.398,616.124C 624.631,616.054 624.865,615.933 625.023,615.749C 625.512,615.178 625.359,614.092 624.898,613.499C 624.429,612.895 623.614,612.643 622.898,612.374C 621.962,612.022 620.73,611.819 619.898,612.374C 619.369,612.727 619.052,613.381 618.898,613.999"/>
		<path fill="#000000" fill-opacity="1" stroke-width="2" stroke-linejoin="round" stroke="#000000" stroke-opacity="1" d="M 524.773,577.124C 524.646,577.231 524.377,576.993 524.273,577.124C 524.143,577.286 524.273,577.54 524.273,577.749C 524.273,577.957 524.273,578.165 524.273,578.374C 524.273,578.901 524.351,579.557 524.773,579.874C 525.546,580.454 526.784,579.931 527.648,579.499C 527.849,579.398 528.053,579.293 528.273,579.249C 528.477,579.208 528.738,579.382 528.898,579.249C 529.419,578.814 528.158,577.987 527.523,577.749C 527.328,577.676 527.196,577.489 527.023,577.374C 526.821,577.239 526.59,577.147 526.398,576.999C 525.971,576.666 525.281,575.991 524.898,576.374C 524.719,576.553 524.966,576.959 524.773,577.124 Z "/>
		<path fill="#FFFFFF" fill-opacity="1" stroke-width="2" stroke-linejoin="round" stroke="#000000" stroke-opacity="1" d="M 1101.57,768.499C 1101.47,768.541 1101.35,768.485 1101.24,768.499C 1101.13,768.513 1101.01,768.53 1100.91,768.582C 1100.78,768.644 1100.65,768.719 1100.57,768.832C 1100.51,768.925 1100.54,769.065 1100.49,769.165C 1100.4,769.321 1100.26,769.441 1100.16,769.582C 1100.07,769.691 1099.94,769.781 1099.91,769.915C 1099.76,770.451 1099.91,771.026 1099.91,771.582C 1099.91,772.03 1099.52,772.526 1099.74,772.915C 1100.05,773.466 1100.87,773.541 1101.49,773.665C 1102.39,773.846 1103.38,774.238 1104.24,773.915C 1104.8,773.705 1104.76,772.755 1104.66,772.165C 1104.44,771.002 1103.87,769.76 1102.91,769.082C 1102.74,768.967 1102.58,768.852 1102.41,768.749C 1102.3,768.685 1102.17,768.663 1102.07,768.582C 1101.97,768.491 1101.96,768.271 1101.82,768.249C 1101.71,768.229 1101.68,768.454 1101.57,768.499 Z "/>
		<path fill="#000000" fill-opacity="1" stroke-width="2" stroke-linejoin="round" stroke="#000000" stroke-opacity="1" d="M 1285.24,558.499C 1284.89,558.631 1284.87,559.149 1284.74,559.499C 1284.62,559.82 1284.61,560.177 1284.49,560.499C 1283.95,561.938 1282.86,563.594 1283.49,564.999C 1283.96,566.059 1285.73,566.825 1286.74,566.249C 1288.55,565.215 1290.06,561.62 1288.49,560.249C 1287.56,559.438 1286.39,558.061 1285.24,558.499 Z "/>
		<path fill="#000000" fill-opacity="1" stroke-width="2" stroke-linejoin="round" stroke="#000000" stroke-opacity="1" d="M 812.356,436.707C 811.385,436.707 809.856,437.235 809.856,438.207C 809.856,439.808 811.499,441.108 812.856,441.957C 813.75,442.516 814.953,443.499 815.856,442.957C 816.151,442.78 816.023,442.29 816.106,441.957C 816.19,441.624 816.203,441.264 816.356,440.957C 816.991,439.688 817.515,437.797 816.606,436.707C 815.428,435.293 812.947,436.207 811.106,436.207"/>
		<path fill="#000000" fill-opacity="1" stroke-width="2" stroke-linejoin="round" stroke="#000000" stroke-opacity="1" d="M 884.19,374.207C 882.804,374.553 882.433,377.163 883.19,378.374C 883.599,379.028 884.424,379.636 885.19,379.54C 886.447,379.383 886.756,377.006 886.19,375.874C 885.623,374.739 884.087,374.348 882.856,374.04"/>
		<path fill="#000000" fill-opacity="1" stroke-width="2" stroke-linejoin="round" stroke="#000000" stroke-opacity="1" d="M 1005.19,331.04C 1004.38,331.846 1003.09,332.307 1002.69,333.374C 1002.31,334.383 1003.58,335.516 1004.52,336.04C 1004.81,336.198 1005.06,336.409 1005.36,336.54C 1005.57,336.633 1005.81,336.797 1006.02,336.707C 1006.9,336.329 1006.52,334.833 1006.52,333.874C 1006.52,332.329 1004.93,331.134 1003.69,330.207"/>
		<path fill="#000000" fill-opacity="1" stroke-width="2" stroke-linejoin="round" stroke="#000000" stroke-opacity="1" d="M 828.148,223.79C 827.858,224.747 828.391,225.82 828.148,226.79C 828.088,227.031 827.846,227.21 827.815,227.457C 827.786,227.684 827.82,227.961 827.981,228.124C 828.553,228.696 829.506,228.79 830.315,228.79C 831.212,228.79 832.531,228.642 832.815,227.79C 833.096,226.947 833.256,225.895 832.815,225.124C 832.379,224.361 831.393,224.089 830.648,223.624C 829.94,223.181 828.39,222.991 828.148,223.79 Z "/>
		<path fill="#000000" fill-opacity="1" stroke-width="2" stroke-linejoin="round" stroke="#000000" stroke-opacity="1" d="M 268.999,169.292C 266.46,169.292 262.89,169.915 261.999,172.292C 261.758,172.935 261.584,173.61 261.499,174.292C 261.416,174.953 261.168,175.713 261.499,176.292C 261.912,177.015 262.792,177.35 263.499,177.792C 264.131,178.187 264.867,178.396 265.499,178.792C 266.206,179.233 266.719,179.999 267.499,180.292C 268.123,180.526 268.866,180.502 269.499,180.292C 271.62,179.584 273.499,176.292 272.499,174.292C 270.727,170.748 265.46,169.792 261.499,169.792"/>
		<path fill="#000000" fill-opacity="1" stroke-width="2" stroke-linejoin="round" stroke="#000000" stroke-opacity="1" d="M 524.166,92.4165C 523.293,92.5957 522.319,92.4844 521.541,92.9165C 520.914,93.2646 520.211,93.9541 520.291,94.6665C 520.382,95.4888 521.373,96.0537 522.166,96.2915C 522.69,96.4492 523.309,96.2793 523.791,96.5415C 524.635,97.0024 525.661,97.8071 526.541,97.4165C 527.107,97.165 527.097,96.2822 527.166,95.6665C 527.245,94.9517 527.862,94.1846 527.541,93.5415C 527.435,93.3306 527.229,93.1826 527.041,93.0415C 526.891,92.9297 526.699,92.8906 526.541,92.7915C 526.067,92.4951 525.59,91.9414 525.041,92.0415C 524.728,92.0981 524.476,92.3525 524.166,92.4165 Z "/>
		<path fill="#000000" fill-opacity="1" stroke-width="2" stroke-linejoin="round" stroke="#000000" stroke-opacity="1" d="M 656.457,44.4165C 656.264,44.2939 655.966,44.4365 655.791,44.583C 655.6,44.7422 655.578,45.0322 655.457,45.25C 655.3,45.5332 655.102,45.7935 654.957,46.083C 654.823,46.3506 654.748,46.6445 654.624,46.9165C 653.954,48.3911 652.828,50.7778 654.124,51.75C 654.847,52.292 656.005,52.6982 656.791,52.25C 657.701,51.7295 658.089,50.5649 658.457,49.583C 658.911,48.3735 657.244,47.293 656.791,46.083C 656.592,45.5527 656.936,44.7192 656.457,44.4165 Z "/>
		<path fill="#000000" fill-opacity="1" stroke-width="2" stroke-linejoin="round" stroke="#000000" stroke-opacity="1" d="M 755.624,1C 755.264,1.0957 755.124,1.62744 755.124,2C 755.124,2.37207 755.4,2.70166 755.624,3C 756.478,4.13916 758.465,5.32715 759.624,4.5C 760.505,3.87012 761.64,2.26611 760.874,1.5C 759.813,0.439453 757.862,1.68604 756.374,1.5C 756.076,1.46289 755.914,0.922852 755.624,1 Z "/>
		<path fill="#000000" fill-opacity="1" stroke-width="2" stroke-linejoin="round" stroke="#000000" stroke-opacity="1" d="M 436.499,215.958C 435.851,215.958 435.365,216.731 435.124,217.333C 434.908,217.872 434.263,218.428 434.499,218.958C 434.607,219.202 434.891,219.329 435.124,219.458C 435.274,219.542 435.456,219.546 435.624,219.583C 435.831,219.629 436.036,219.708 436.249,219.708C 436.421,219.708 436.627,219.705 436.749,219.583C 436.87,219.461 436.783,219.229 436.874,219.083C 436.999,218.883 437.407,218.816 437.374,218.583C 437.34,218.343 436.961,218.326 436.749,218.208C 436.224,217.917 435.73,217.569 435.249,217.208"/>
		<path fill="#000000" fill-opacity="1" stroke-width="2" stroke-linejoin="round" stroke="#000000" stroke-opacity="1" d="M 458.999,252.208C 458.556,252.392 457.87,252.075 457.582,252.458C 457.327,252.798 457.121,253.339 457.332,253.708C 457.638,254.244 458.575,254.135 459.166,253.958C 459.344,253.905 459.51,253.812 459.666,253.708C 459.846,253.588 459.983,253.408 460.166,253.292C 460.481,253.091 460.968,252.828 460.916,252.458C 460.864,252.101 460.274,252.086 459.916,252.042C 459.607,252.003 459.286,252.089 458.999,252.208 Z "/>
		<path fill="#000000" fill-opacity="1" stroke-width="2" stroke-linejoin="round" stroke="#000000" stroke-opacity="1" d="M 404.749,307.792C 404.527,307.792 404.304,307.792 404.082,307.792C 403.86,307.792 403.586,307.649 403.416,307.792C 402.43,308.612 402.107,310.184 402.249,311.458C 402.371,312.554 403.383,313.571 404.416,313.958C 405.3,314.29 406.304,313.958 407.249,313.958C 408.25,313.958 409.541,314.5 410.249,313.792C 410.897,313.144 411.361,311.926 410.916,311.125C 410.419,310.232 409.705,309.317 408.749,308.958C 407.291,308.412 405.639,308.792 404.082,308.792"/>
		<path fill="#000000" fill-opacity="1" stroke-width="2" stroke-linejoin="round" stroke="#000000" stroke-opacity="1" d="M 2.33333,417.791C 2.33333,419.791 1.17085,422.163 2.33333,423.791C 3.7018,425.707 8.42897,423.741 9,421.458C 9.10779,421.026 9.19878,420.522 9,420.124C 8.71892,419.562 8.24103,419.046 7.66667,418.791C 5.61327,417.878 2.34825,417.993 1,419.791"/>
	</g>
</svg>
